{"glyphs":{"0":{"ha":722,"x_min":53,"x_max":671,"o":"m 221 442 q 232 247 221 322 q 263 126 243 171 q 308 65 282 82 q 363 49 333 49 q 416 66 390 49 q 461 127 442 83 q 492 247 481 171 q 503 442 503 324 q 492 638 503 561 q 461 760 481 715 q 416 822 442 804 q 363 839 390 839 q 308 822 333 839 q 263 761 282 806 q 232 640 243 717 q 221 442 221 563 m 363 907 q 478 881 422 907 q 576 800 533 856 q 645 656 619 744 q 671 442 671 567 q 645 229 671 317 q 576 87 619 142 q 478 6 533 32 q 363 -19 422 -19 q 246 6 301 -19 q 147 87 190 32 q 78 229 104 142 q 53 442 53 317 q 78 656 53 567 q 147 800 104 744 q 246 881 190 856 q 363 907 301 907 z "},"1":{"ha":722,"x_min":103,"x_max":638,"o":"m 126 825 l 442 900 l 461 886 l 456 688 l 456 292 q 456 193 456 243 q 457 93 456 143 l 638 57 l 638 0 l 103 0 l 103 57 l 286 92 q 288 192 288 142 q 288 292 288 243 l 288 771 l 126 757 l 126 825 z "},"2":{"ha":722,"x_min":64,"x_max":667,"o":"m 71 0 l 71 107 q 172 207 122 157 q 265 303 221 257 q 415 490 367 407 q 464 661 464 574 q 422 792 464 744 q 310 839 381 839 q 257 835 286 839 l 236 738 q 200 654 224 676 q 144 632 176 632 q 64 683 90 632 q 93 781 68 739 q 159 851 118 822 q 253 893 200 879 q 365 907 307 907 q 488 889 436 907 q 572 839 539 871 q 622 763 606 807 q 638 668 638 719 q 622 575 638 619 q 569 483 606 531 q 476 380 533 435 q 335 257 418 325 q 272 203 307 233 q 199 142 236 174 l 667 142 l 667 0 l 71 0 z "},"3":{"ha":722,"x_min":60,"x_max":672,"o":"m 244 501 l 292 501 q 428 546 379 501 q 478 681 478 590 q 437 799 478 760 q 321 839 396 839 q 300 838 311 839 q 275 836 289 838 l 258 754 q 225 684 247 706 q 167 663 203 663 q 123 674 143 663 q 92 710 103 685 q 120 797 97 760 q 179 859 143 835 q 262 895 215 883 q 360 907 308 907 q 481 890 428 907 q 570 844 533 874 q 626 774 607 815 q 644 686 644 733 q 599 557 644 615 q 457 468 553 499 q 622 387 571 446 q 672 240 672 328 q 649 137 672 185 q 583 54 626 89 q 480 0 540 19 q 343 -19 419 -19 q 147 33 221 -19 q 60 193 72 85 q 93 234 72 221 q 139 247 114 247 q 198 222 178 247 q 231 135 218 197 l 246 54 q 301 49 272 49 q 499 242 499 49 q 449 379 499 331 q 303 428 400 428 l 244 428 l 244 501 z "},"4":{"ha":722,"x_min":32,"x_max":693,"o":"m 693 229 l 556 229 l 556 0 l 401 0 l 401 229 l 32 229 l 32 328 l 440 894 l 556 894 l 556 347 l 693 347 l 693 229 m 401 347 l 401 726 l 132 347 l 401 347 z "},"5":{"ha":722,"x_min":54,"x_max":674,"o":"m 329 -19 q 139 35 208 -19 q 54 193 69 90 q 86 234 65 221 q 133 247 107 247 q 192 224 171 247 q 224 142 213 201 l 239 57 q 306 49 272 49 q 447 103 396 49 q 497 254 497 158 q 446 408 497 356 q 303 461 394 461 q 174 446 242 461 l 135 464 l 164 888 l 644 888 l 644 746 l 232 746 l 218 539 q 350 553 278 553 q 483 535 424 553 q 585 481 543 517 q 651 394 628 446 q 674 274 674 342 q 648 150 674 204 q 576 58 622 96 q 467 1 531 21 q 329 -19 404 -19 z "},"6":{"ha":722,"x_min":47,"x_max":674,"o":"m 372 -19 q 237 6 297 -19 q 135 81 176 32 q 70 203 93 131 q 47 368 47 275 q 86 564 47 472 q 198 728 125 656 q 376 847 271 800 q 613 907 481 893 l 621 850 q 339 710 435 804 q 224 467 243 617 q 314 528 264 507 q 419 549 364 549 q 606 476 539 549 q 674 281 674 404 q 650 149 674 206 q 586 56 626 93 q 490 -1 546 18 q 372 -19 435 -19 m 374 49 q 469 99 433 49 q 504 256 504 149 q 467 410 504 361 q 364 460 431 460 q 290 447 328 460 q 219 400 253 433 l 219 393 q 262 130 219 211 q 374 49 304 49 z "},"7":{"ha":722,"x_min":72,"x_max":668,"o":"m 168 14 l 554 746 l 72 746 l 72 888 l 668 888 l 668 799 l 340 0 l 182 0 l 168 14 z "},"8":{"ha":722,"x_min":61,"x_max":661,"o":"m 61 199 q 110 326 61 272 q 251 421 158 379 q 125 530 165 469 q 85 665 85 590 q 106 766 85 721 q 166 842 128 811 q 256 890 204 874 q 367 907 307 907 q 478 891 429 907 q 559 847 526 875 q 608 781 592 819 q 625 699 625 743 q 589 594 625 647 q 458 490 553 540 q 611 378 561 439 q 661 225 661 317 q 639 124 661 169 q 576 47 617 79 q 479 -2 536 15 q 353 -19 422 -19 q 138 38 215 -19 q 61 199 61 94 m 231 713 q 238 664 231 688 q 263 616 244 640 q 315 567 282 592 q 400 518 349 543 q 469 608 450 567 q 488 700 488 649 q 455 799 488 758 q 363 839 422 839 q 270 805 310 839 q 231 713 231 771 m 363 47 q 467 90 429 47 q 506 193 506 133 q 496 247 506 222 q 463 296 486 272 q 403 343 440 319 q 310 393 365 367 q 233 310 257 351 q 208 208 208 268 q 251 92 208 138 q 363 47 294 47 z "},"9":{"ha":722,"x_min":40,"x_max":667,"o":"m 129 -28 l 115 33 q 265 98 201 63 q 374 178 329 133 q 445 279 418 224 q 485 404 472 335 q 313 346 414 346 q 206 364 256 346 q 119 417 156 382 q 61 501 82 451 q 40 615 40 551 q 64 739 40 685 q 129 831 88 793 q 228 888 171 868 q 351 907 285 907 q 585 808 503 907 q 667 539 667 710 q 633 343 667 435 q 531 178 599 251 q 363 51 463 104 q 129 -28 263 -1 m 208 631 q 253 482 208 531 q 369 433 299 433 q 493 475 442 433 q 494 506 494 490 q 494 536 494 521 q 484 678 494 619 q 455 772 474 736 q 410 823 436 807 q 350 839 383 839 q 295 826 321 839 q 250 788 269 814 q 219 724 231 763 q 208 631 208 685 z "}," ":{"ha":311,"x_min":0,"x_max":0,"o":""},"A":{"ha":929,"x_min":10,"x_max":913,"o":"m 10 0 l 10 65 l 124 82 l 414 926 l 528 926 l 818 75 l 913 64 l 913 0 l 511 0 l 511 64 l 633 79 l 567 285 l 264 285 l 197 83 l 318 65 l 318 0 l 10 0 m 543 357 l 417 743 l 288 357 l 543 357 z "},"B":{"ha":889,"x_min":54,"x_max":842,"o":"m 174 433 l 174 488 q 174 665 174 576 q 171 843 174 754 l 54 856 l 54 921 l 479 921 q 715 858 639 921 q 792 700 792 796 q 780 631 792 664 q 742 569 768 597 q 672 519 715 540 q 567 486 629 499 q 778 405 714 467 q 842 256 842 343 q 822 164 842 210 q 756 82 803 118 q 633 23 710 46 q 442 0 556 0 l 54 0 l 54 65 l 171 78 q 174 253 174 165 q 174 433 174 342 m 428 850 l 354 850 q 351 674 351 761 q 351 513 351 586 l 408 513 q 566 555 517 513 q 615 688 615 597 q 569 813 615 775 q 428 850 524 850 m 414 444 l 351 444 q 351 250 351 340 q 354 72 351 160 l 419 72 q 595 119 536 72 q 654 256 654 165 q 597 398 654 351 q 414 444 539 444 z "},"C":{"ha":871,"x_min":57,"x_max":824,"o":"m 553 51 q 696 83 624 51 l 729 253 l 824 253 l 818 46 q 686 -6 757 13 q 532 -24 615 -24 q 342 9 429 -24 q 192 104 256 42 q 92 257 128 167 q 57 461 57 347 q 94 665 57 575 q 197 817 132 754 q 349 912 263 879 q 536 944 436 944 q 672 929 604 944 q 807 876 740 914 l 813 668 l 717 668 l 683 840 q 622 864 651 857 q 561 871 592 871 q 442 846 499 871 q 344 769 386 821 q 278 641 303 718 q 253 460 253 564 q 276 279 253 356 q 339 152 299 203 q 434 76 379 101 q 553 51 489 51 z "},"D":{"ha":982,"x_min":54,"x_max":926,"o":"m 174 442 l 174 490 q 174 666 174 578 q 171 843 174 754 l 54 856 l 54 921 l 465 921 q 656 890 571 921 q 801 801 740 860 q 894 656 861 742 q 926 461 926 571 q 890 265 926 350 q 790 120 854 179 q 635 31 725 61 q 439 0 546 0 l 54 0 l 54 65 l 171 78 q 174 256 174 165 q 174 442 174 346 m 353 442 q 353 254 353 346 q 356 72 353 163 l 435 72 q 655 173 578 72 q 732 460 732 274 q 656 751 732 651 q 443 850 579 850 l 356 850 q 353 672 353 761 q 353 490 353 582 l 353 442 z "},"E":{"ha":832,"x_min":54,"x_max":792,"o":"m 174 431 l 174 490 q 174 666 174 578 q 171 843 174 754 l 54 856 l 54 921 l 754 921 l 764 678 l 667 678 l 638 847 l 356 847 q 353 673 353 760 q 353 510 353 586 l 532 510 l 550 631 l 622 631 l 622 317 l 550 317 l 533 436 l 353 436 q 353 248 353 336 q 356 74 353 160 l 665 74 l 694 243 l 792 243 l 782 0 l 54 0 l 54 65 l 171 78 q 174 253 174 165 q 174 431 174 340 z "},"F":{"ha":804,"x_min":54,"x_max":768,"o":"m 174 431 l 174 490 q 174 666 174 578 q 171 843 174 754 l 54 856 l 54 921 l 758 921 l 768 678 l 671 678 l 642 847 l 356 847 q 353 673 353 760 q 353 510 353 586 l 540 510 l 558 631 l 629 631 l 629 303 l 558 303 l 539 436 l 353 436 q 353 250 353 336 q 356 79 353 164 l 482 65 l 482 0 l 54 0 l 54 65 l 171 78 q 174 253 174 165 q 174 431 174 340 z "},"G":{"ha":942,"x_min":57,"x_max":921,"o":"m 840 118 l 840 58 q 694 -3 768 18 q 531 -24 621 -24 q 338 11 425 -24 q 188 110 250 46 q 91 263 125 174 q 57 461 57 353 q 91 657 57 568 q 188 810 125 746 q 340 909 250 874 q 542 944 429 944 q 815 879 699 944 l 821 671 l 725 671 l 692 840 q 561 871 629 871 q 440 845 496 871 q 342 768 383 819 q 276 640 300 717 q 253 461 253 563 q 276 283 253 360 q 340 156 299 207 q 438 78 381 104 q 564 51 494 51 q 618 56 593 51 q 667 67 643 60 l 667 121 q 666 244 667 183 q 664 367 665 304 l 529 381 l 529 446 l 921 446 l 921 381 l 843 372 q 841 246 842 308 q 840 118 840 183 z "},"H":{"ha":1081,"x_min":54,"x_max":1026,"o":"m 172 431 l 172 490 q 172 666 172 578 q 169 843 172 754 l 54 856 l 54 921 l 468 921 l 468 856 l 354 843 q 351 670 351 756 q 351 508 351 585 l 728 508 q 728 677 728 594 q 725 843 728 760 l 613 856 l 613 921 l 1026 921 l 1026 856 l 911 843 q 908 668 908 756 q 908 490 908 581 l 908 431 q 908 255 908 343 q 911 78 908 167 l 1026 65 l 1026 0 l 613 0 l 613 65 l 725 78 q 728 255 728 165 q 728 436 728 344 l 351 436 q 351 249 351 336 q 354 78 351 161 l 468 65 l 468 0 l 54 0 l 54 65 l 169 78 q 172 253 172 165 q 172 431 172 340 z "},"I":{"ha":526,"x_min":54,"x_max":472,"o":"m 174 431 l 174 490 q 174 666 174 578 q 171 843 174 754 l 54 856 l 54 921 l 472 921 l 472 856 l 356 843 q 353 668 353 756 q 353 490 353 581 l 353 431 q 353 255 353 343 q 356 78 353 167 l 472 65 l 472 0 l 54 0 l 54 65 l 171 78 q 174 253 174 165 q 174 431 174 340 z "},"J":{"ha":533,"x_min":-87,"x_max":490,"o":"m 57 856 l 57 921 l 490 921 l 490 856 l 374 843 q 371 671 371 757 q 371 497 371 585 l 371 315 q 369 199 371 250 q 362 105 367 147 q 349 28 357 63 q 331 -36 342 -6 q 288 -122 315 -85 q 223 -183 260 -158 q 144 -221 186 -208 q 56 -233 101 -233 q -32 -216 7 -233 q -87 -156 -71 -199 q -57 -92 -83 -112 q 10 -71 -31 -71 q 67 -85 42 -71 q 125 -129 93 -99 l 156 -161 q 190 -85 181 -131 q 199 29 199 -39 q 198 127 199 68 q 195 280 197 186 q 191 510 193 374 q 188 842 189 646 l 57 856 z "},"K":{"ha":946,"x_min":54,"x_max":939,"o":"m 174 431 l 174 490 q 174 666 174 578 q 171 843 174 754 l 54 856 l 54 921 l 468 921 l 468 856 l 349 842 q 346 667 346 754 q 346 490 346 581 l 346 424 l 682 838 l 586 856 l 586 921 l 907 921 l 907 856 l 774 838 l 565 588 l 842 76 l 939 65 l 939 0 l 561 0 l 561 65 l 651 76 l 454 456 l 346 326 q 346 206 346 268 q 349 78 346 143 l 460 65 l 460 0 l 54 0 l 54 65 l 171 78 q 174 253 174 165 q 174 431 174 340 z "},"L":{"ha":818,"x_min":54,"x_max":772,"o":"m 174 490 q 174 668 174 581 q 171 843 174 756 l 54 856 l 54 921 l 478 921 l 478 856 l 356 842 q 353 667 353 754 q 353 490 353 579 l 353 406 q 353 247 353 331 q 356 75 353 163 l 635 75 l 675 267 l 772 267 l 758 0 l 54 0 l 54 65 l 171 78 q 174 251 174 165 q 174 415 174 336 l 174 490 z "},"M":{"ha":1249,"x_min":40,"x_max":1194,"o":"m 40 0 l 40 65 l 169 83 l 169 840 l 46 856 l 46 921 l 356 921 l 626 231 l 882 921 l 1192 921 l 1192 856 l 1078 843 q 1075 668 1075 756 q 1075 490 1075 581 l 1075 431 q 1075 253 1075 342 q 1078 78 1075 165 l 1194 65 l 1194 0 l 785 0 l 785 65 l 894 79 q 897 251 897 167 q 897 415 897 336 l 899 746 l 624 0 l 535 0 l 244 744 q 247 662 246 704 q 248 583 247 619 q 249 517 249 546 q 250 474 250 488 l 250 83 l 365 65 l 365 0 l 40 0 z "},"N":{"ha":1015,"x_min":47,"x_max":968,"o":"m 47 0 l 47 65 l 165 82 l 165 824 l 150 846 l 51 856 l 51 921 l 314 921 l 771 292 l 771 838 l 618 856 l 618 921 l 968 921 l 968 856 l 850 838 l 850 -6 l 768 -6 l 244 714 l 244 85 l 397 65 l 397 0 l 47 0 z "},"O":{"ha":978,"x_min":57,"x_max":922,"o":"m 253 461 q 266 305 253 379 q 308 174 279 231 q 383 85 338 118 q 490 51 428 51 q 597 85 553 51 q 670 174 642 118 q 712 305 699 231 q 725 461 725 379 q 712 617 725 543 q 670 748 699 692 q 597 838 642 804 q 490 871 553 871 q 383 838 428 871 q 308 748 338 804 q 266 617 279 692 q 253 461 253 543 m 490 944 q 651 914 574 944 q 790 823 729 883 q 886 672 850 763 q 922 461 922 581 q 886 253 922 344 q 790 101 850 163 q 651 8 729 40 q 490 -24 574 -24 q 328 7 407 -24 q 190 99 250 38 q 93 250 129 160 q 57 461 57 340 q 93 668 57 578 q 190 820 129 758 q 328 913 250 882 q 490 944 407 944 z "},"P":{"ha":833,"x_min":54,"x_max":807,"o":"m 174 431 l 174 490 q 174 666 174 578 q 171 843 174 754 l 54 856 l 54 921 l 429 921 q 598 901 526 921 q 716 844 669 881 q 785 758 763 808 q 807 646 807 707 q 786 535 807 588 q 718 443 765 482 q 595 381 671 404 q 410 358 519 358 l 353 358 q 353 222 353 292 q 356 79 353 153 l 482 65 l 482 0 l 54 0 l 54 65 l 171 78 q 174 253 174 165 q 174 431 174 340 m 353 490 l 353 429 l 421 429 q 581 489 531 429 q 631 646 631 549 q 577 798 631 746 q 415 850 524 850 l 356 850 q 353 672 353 761 q 353 490 353 582 z "},"Q":{"ha":978,"x_min":57,"x_max":922,"o":"m 689 -293 q 567 -272 621 -293 q 476 -212 514 -250 q 419 -124 439 -175 q 396 -14 399 -72 q 265 39 326 1 q 157 135 203 76 q 84 276 111 194 q 57 461 57 358 q 93 668 57 578 q 190 820 129 758 q 328 913 250 882 q 490 944 407 944 q 651 914 574 944 q 790 823 729 883 q 886 672 850 763 q 922 461 922 581 q 894 276 922 358 q 817 133 865 193 q 705 35 769 72 q 569 -17 640 -3 q 618 -154 572 -106 q 743 -203 664 -203 q 791 -199 764 -203 q 849 -186 818 -196 l 871 -249 q 787 -283 835 -272 q 689 -293 739 -293 m 253 461 q 266 305 253 379 q 308 174 279 231 q 383 85 338 118 q 490 51 428 51 q 597 85 553 51 q 670 174 642 118 q 712 305 699 231 q 725 461 725 379 q 712 617 725 543 q 670 748 699 692 q 597 838 642 804 q 490 871 553 871 q 383 838 428 871 q 308 748 338 804 q 266 617 279 692 q 253 461 253 543 z "},"R":{"ha":925,"x_min":54,"x_max":913,"o":"m 174 431 l 174 490 q 174 666 174 578 q 171 843 174 754 l 54 856 l 54 921 l 472 921 q 724 859 636 921 q 811 685 811 797 q 798 610 811 647 q 756 543 785 574 q 681 490 726 513 q 571 457 635 467 q 701 395 658 442 q 763 258 743 349 l 806 76 l 913 65 l 913 0 q 852 -13 878 -10 q 786 -17 826 -17 q 667 8 708 -17 q 614 97 625 32 l 574 290 q 522 397 558 368 q 411 425 485 425 l 351 425 q 351 246 351 331 q 354 78 351 161 l 472 65 l 472 0 l 54 0 l 54 65 l 171 78 q 174 253 174 165 q 174 431 174 340 m 443 850 l 354 850 q 351 672 351 761 q 351 494 351 583 l 432 494 q 524 508 486 494 q 587 547 563 522 q 622 606 611 572 q 633 676 633 639 q 443 850 633 850 z "},"S":{"ha":731,"x_min":51,"x_max":682,"o":"m 335 53 q 471 93 422 53 q 519 203 519 133 q 511 256 519 233 q 485 298 503 279 q 439 333 467 317 q 374 364 411 349 l 317 388 q 213 440 260 413 q 135 503 167 468 q 85 583 103 539 q 68 682 68 626 q 92 792 68 743 q 160 874 117 840 q 263 926 203 908 q 397 944 324 944 q 531 925 469 944 q 642 872 593 906 l 632 685 l 526 685 l 499 846 q 394 868 450 868 q 276 831 324 868 q 228 726 228 794 q 265 628 228 665 q 371 564 301 592 l 431 539 q 624 416 565 482 q 682 249 682 350 q 658 137 682 188 q 590 51 635 86 q 481 -4 544 15 q 336 -24 417 -24 q 181 -4 257 -24 q 51 50 106 15 l 60 250 l 167 250 l 194 82 q 260 60 226 67 q 335 53 293 53 z "},"T":{"ha":858,"x_min":28,"x_max":831,"o":"m 339 431 l 339 490 q 339 668 339 579 q 336 847 339 757 l 154 847 l 125 668 l 28 668 l 36 921 l 824 921 l 831 668 l 735 668 l 706 847 l 522 847 q 519 671 519 760 q 519 490 519 582 l 519 431 q 519 255 519 343 q 522 79 519 167 l 653 65 l 653 0 l 206 0 l 206 65 l 336 79 q 339 254 339 167 q 339 431 339 342 z "},"U":{"ha":1013,"x_min":47,"x_max":971,"o":"m 339 390 q 353 248 339 306 q 395 155 368 190 q 462 104 422 119 q 553 89 501 89 q 647 106 606 89 q 715 161 688 124 q 758 258 743 199 q 772 404 772 318 l 772 840 l 638 856 l 638 921 l 971 921 l 971 856 l 853 842 l 853 386 q 828 199 853 276 q 757 72 803 121 q 647 -1 711 22 q 504 -24 583 -24 q 365 -3 428 -24 q 256 63 301 18 q 184 178 210 107 q 158 347 158 249 l 158 499 q 158 671 158 585 q 156 844 158 757 l 47 856 l 47 921 l 469 921 l 469 856 l 342 842 q 339 672 339 757 q 339 499 339 586 l 339 390 z "},"V":{"ha":928,"x_min":15,"x_max":919,"o":"m 421 -6 l 110 846 l 15 856 l 15 921 l 428 921 l 428 854 l 303 840 l 515 219 l 725 839 l 608 854 l 608 921 l 919 921 l 919 856 l 807 839 l 517 -6 l 421 -6 z "},"W":{"ha":1349,"x_min":15,"x_max":1340,"o":"m 892 -6 l 672 671 l 463 -6 l 367 -6 l 117 844 l 15 856 l 15 921 l 419 921 l 419 856 l 304 842 l 463 239 l 651 842 l 531 856 l 531 921 l 926 921 l 926 856 l 794 839 l 979 235 l 1149 839 l 1035 856 l 1035 921 l 1340 921 l 1340 856 l 1228 838 l 988 -6 l 892 -6 z "},"X":{"ha":904,"x_min":13,"x_max":893,"o":"m 13 0 l 13 65 l 133 79 l 371 439 l 131 843 l 21 856 l 21 921 l 433 921 l 433 856 l 329 844 l 488 575 l 653 844 l 550 856 l 550 921 l 856 921 l 856 856 l 742 843 l 526 511 l 783 78 l 893 65 l 893 0 l 469 0 l 469 65 l 585 78 l 408 374 l 221 78 l 319 65 l 319 0 l 13 0 z "},"Y":{"ha":874,"x_min":15,"x_max":864,"o":"m 663 0 l 217 0 l 217 65 l 347 79 q 349 207 349 140 q 349 360 349 274 l 111 846 l 15 856 l 15 921 l 435 921 l 435 856 l 315 842 l 492 456 l 672 839 l 561 856 l 561 921 l 864 921 l 864 856 l 753 838 l 529 379 q 529 217 529 288 q 531 79 529 146 l 663 65 l 663 0 z "},"Z":{"ha":774,"x_min":28,"x_max":746,"o":"m 647 253 l 746 253 l 735 0 l 28 0 l 28 57 l 515 847 l 176 847 l 139 668 l 42 668 l 53 921 l 722 921 l 722 865 l 236 75 l 611 75 l 647 253 z "},"a":{"ha":722,"x_min":53,"x_max":719,"o":"m 314 82 q 366 94 342 82 q 435 138 390 106 l 435 358 q 380 340 406 349 q 336 325 354 332 q 241 260 267 297 q 215 185 215 224 q 244 106 215 131 q 314 82 272 82 m 576 -17 q 486 11 521 -17 q 439 88 451 39 q 392 41 414 61 q 347 8 369 21 q 297 -12 324 -6 q 238 -19 271 -19 q 165 -8 199 -19 q 106 25 131 3 q 67 80 81 47 q 53 156 53 113 q 63 218 53 189 q 102 274 74 247 q 178 326 131 301 q 301 375 226 351 q 364 394 329 385 q 435 414 399 404 l 435 453 q 428 533 435 501 q 408 584 422 565 q 369 610 393 603 q 313 618 346 618 q 285 617 300 618 q 256 613 271 615 l 239 536 q 209 463 232 486 q 151 439 186 439 q 74 501 85 439 q 163 635 86 585 q 367 685 239 685 q 544 627 489 685 q 599 433 599 569 l 599 131 q 609 83 599 97 q 639 68 619 68 q 688 99 665 68 l 719 71 q 660 3 694 22 q 576 -17 626 -17 z "},"b":{"ha":824,"x_min":32,"x_max":771,"o":"m 40 0 l 40 57 l 132 75 q 133 187 133 126 q 133 292 133 247 l 133 889 l 32 901 l 32 956 l 281 1018 l 301 1006 l 296 810 l 296 586 q 503 685 386 685 q 608 662 558 685 q 693 595 657 639 q 750 487 729 551 q 771 339 771 422 q 748 190 771 257 q 685 77 725 124 q 593 6 646 31 q 481 -19 540 -19 q 379 2 425 -19 q 293 72 333 24 l 275 -17 l 40 0 m 431 78 q 546 140 499 78 q 593 331 593 203 q 550 524 593 461 q 436 586 507 586 q 370 569 404 586 q 300 522 336 553 l 300 138 q 431 78 364 78 z "},"c":{"ha":694,"x_min":49,"x_max":649,"o":"m 411 618 q 340 602 374 618 q 280 553 306 586 q 239 469 254 519 q 224 350 224 418 q 281 157 224 224 q 432 90 339 90 q 531 115 488 90 q 607 183 575 139 l 649 153 q 545 24 614 67 q 378 -19 476 -19 q 247 3 307 -19 q 142 72 186 26 q 74 182 99 117 q 49 331 49 247 q 76 480 49 414 q 152 592 104 546 q 263 661 200 638 q 396 685 326 685 q 491 670 447 685 q 568 629 535 656 q 622 568 601 603 q 649 493 643 533 q 569 432 632 432 q 479 529 492 432 l 461 613 q 411 618 439 618 z "},"d":{"ha":806,"x_min":51,"x_max":779,"o":"m 229 329 q 276 141 229 203 q 399 79 324 79 q 464 94 435 79 q 521 136 493 108 l 521 535 q 460 575 489 563 q 400 588 432 588 q 334 572 365 588 q 280 525 303 557 q 243 444 257 493 q 229 329 229 396 m 538 -15 l 526 74 q 441 4 488 28 q 332 -19 394 -19 q 219 4 271 -19 q 131 73 168 28 q 72 182 93 118 q 51 326 51 246 q 76 475 51 408 q 141 588 100 542 q 237 660 182 635 q 353 685 292 685 q 449 665 407 685 q 528 600 490 644 l 528 888 l 419 901 l 419 956 l 674 1018 l 694 1006 l 689 810 l 689 75 l 779 57 l 779 0 l 538 -15 z "},"e":{"ha":715,"x_min":51,"x_max":661,"o":"m 389 685 q 501 665 450 685 q 587 608 551 644 q 642 520 622 572 q 661 406 661 468 q 653 329 661 360 l 228 329 q 291 149 233 208 q 436 90 349 90 q 540 115 499 90 q 617 178 582 139 l 657 142 q 547 22 617 64 q 379 -19 476 -19 q 246 4 306 -19 q 142 73 186 28 q 75 183 99 118 q 51 329 51 247 q 79 478 51 413 q 154 590 107 544 q 263 660 201 636 q 389 685 324 685 m 379 618 q 329 606 354 618 q 283 568 304 594 q 248 499 263 542 q 229 394 233 457 l 419 394 q 486 415 469 394 q 503 474 503 436 q 467 578 503 538 q 379 618 431 618 z "},"f":{"ha":497,"x_min":39,"x_max":614,"o":"m 142 292 l 142 581 l 39 581 l 39 653 l 144 667 q 182 838 156 775 q 251 943 208 900 q 356 1013 301 993 q 464 1032 411 1032 q 560 1013 518 1032 q 614 944 603 993 q 588 890 611 913 q 522 868 564 868 q 410 938 463 868 l 385 963 q 349 919 363 944 q 315 819 325 879 q 307 665 304 758 l 478 665 l 478 581 l 310 581 l 310 292 q 310 185 310 239 q 313 78 311 132 l 429 57 l 429 0 l 46 0 l 46 57 l 139 75 q 141 183 140 129 q 142 292 142 238 z "},"g":{"ha":736,"x_min":36,"x_max":713,"o":"m 342 -251 q 508 -216 451 -251 q 564 -128 564 -181 q 537 -61 564 -89 q 443 -33 510 -33 l 289 -33 q 197 -25 236 -33 q 169 -75 178 -51 q 160 -129 160 -99 q 207 -223 160 -194 q 342 -251 254 -251 m 67 458 q 138 624 67 563 q 338 685 210 685 q 535 626 464 685 l 692 686 l 713 672 l 713 575 l 578 575 q 607 458 607 526 q 536 294 607 356 q 338 233 465 233 q 222 249 275 233 q 196 172 196 213 q 213 131 196 146 q 276 115 231 115 l 450 115 q 644 64 586 115 q 703 -75 703 13 q 679 -169 703 -124 q 608 -249 656 -214 q 491 -303 561 -283 q 329 -324 421 -324 q 192 -310 249 -324 q 101 -275 136 -297 q 51 -223 67 -253 q 36 -158 36 -193 q 65 -77 36 -114 q 161 -8 94 -40 q 97 35 117 7 q 76 101 76 64 q 101 181 76 142 q 176 267 125 221 q 95 343 124 294 q 67 458 67 392 m 339 624 q 251 578 282 624 q 221 458 221 533 q 249 339 221 383 q 335 294 278 294 q 424 340 393 294 q 454 463 454 386 q 424 580 454 536 q 339 624 394 624 z "},"h":{"ha":846,"x_min":32,"x_max":810,"o":"m 533 685 q 674 626 625 685 q 724 436 724 567 l 724 292 q 724 185 724 244 q 725 74 724 125 l 810 57 l 810 0 l 467 0 l 467 57 l 556 75 q 557 185 557 126 q 557 292 557 244 l 557 424 q 535 537 557 506 q 461 568 514 568 q 300 489 383 568 l 300 292 q 300 186 300 246 q 301 74 300 126 l 383 57 l 383 0 l 40 0 l 40 57 l 132 75 q 133 187 133 126 q 133 292 133 247 l 133 888 l 32 901 l 32 956 l 281 1018 l 301 1006 l 296 810 l 296 561 q 410 654 350 624 q 533 685 471 685 z "},"i":{"ha":426,"x_min":35,"x_max":389,"o":"m 219 814 q 144 842 175 814 q 114 913 114 869 q 144 985 114 957 q 219 1013 175 1013 q 294 985 264 1013 q 324 913 324 957 q 294 842 324 869 q 219 814 264 814 m 389 0 l 44 0 l 44 57 l 136 75 q 138 187 138 126 q 138 292 138 247 l 138 357 q 136 452 138 414 q 133 532 135 490 l 35 544 l 35 597 l 285 685 l 307 671 l 303 475 l 303 292 q 303 187 303 247 q 304 74 303 126 l 389 57 l 389 0 z "},"j":{"ha":406,"x_min":-139,"x_max":322,"o":"m 217 814 q 142 842 172 814 q 111 913 111 869 q 142 985 111 957 q 217 1013 172 1013 q 292 985 261 1013 q 322 913 322 957 q 292 842 322 869 q 217 814 261 814 m 135 129 l 135 357 q 133 452 135 414 q 131 532 132 490 l 33 544 l 33 597 l 281 685 l 303 671 l 299 475 l 299 108 q 295 -21 299 35 q 282 -118 292 -76 q 256 -192 272 -160 q 213 -253 239 -225 q 11 -337 129 -337 q -94 -310 -58 -337 q -139 -250 -131 -282 q -104 -192 -132 -212 q -40 -172 -76 -172 q 75 -233 22 -172 l 99 -260 q 109 -244 104 -253 q 117 -224 114 -235 q 133 -87 132 -176 q 135 129 135 1 z "},"k":{"ha":794,"x_min":32,"x_max":793,"o":"m 32 956 l 285 1018 l 306 1006 l 300 810 l 300 353 l 532 586 l 433 607 l 433 665 l 756 665 l 756 607 l 629 589 l 489 451 l 701 76 l 793 57 l 793 0 l 558 0 l 372 339 l 300 268 q 301 170 300 221 q 303 74 301 119 l 396 57 l 396 0 l 36 0 l 36 57 l 131 75 q 133 185 132 128 q 133 292 133 243 l 133 888 l 32 901 l 32 956 z "},"l":{"ha":431,"x_min":32,"x_max":397,"o":"m 32 956 l 285 1018 l 306 1006 l 300 810 l 300 292 q 301 183 300 238 q 303 75 301 129 l 397 57 l 397 0 l 36 0 l 36 57 l 131 75 q 133 183 132 129 q 133 292 133 238 l 133 888 l 32 901 l 32 956 z "},"m":{"ha":1256,"x_min":38,"x_max":1221,"o":"m 533 685 q 707 557 671 685 q 823 656 764 626 q 946 685 882 685 q 1088 626 1040 685 q 1135 440 1135 568 l 1135 292 q 1135 185 1135 244 q 1136 74 1135 126 l 1221 57 l 1221 0 l 882 0 l 882 57 l 968 75 q 969 185 969 126 q 969 292 969 244 l 969 419 q 947 538 969 507 q 871 568 924 568 q 718 497 797 568 q 720 468 719 483 q 721 436 721 453 l 721 292 q 721 185 721 244 q 722 74 721 126 l 806 57 l 806 0 l 465 0 l 465 57 l 554 75 q 556 185 556 126 q 556 292 556 244 l 556 417 q 534 535 556 501 q 458 568 513 568 q 381 549 418 568 q 307 499 343 531 l 307 292 q 307 186 307 246 q 308 74 307 126 l 390 57 l 390 0 l 47 0 l 47 57 l 138 75 q 139 187 139 126 q 139 292 139 247 l 139 365 q 139 416 139 394 q 138 456 139 438 q 137 493 138 475 q 135 532 136 511 l 38 544 l 38 597 l 269 685 l 292 671 l 303 563 q 411 653 353 621 q 533 685 469 685 z "},"n":{"ha":849,"x_min":38,"x_max":813,"o":"m 538 685 q 678 626 629 685 q 726 436 726 567 l 726 292 q 726 185 726 244 q 728 74 726 125 l 813 57 l 813 0 l 469 0 l 469 57 l 558 75 q 560 185 560 126 q 560 292 560 244 l 560 424 q 538 537 560 506 q 463 568 515 568 q 307 499 386 568 l 307 292 q 307 186 307 246 q 308 74 307 126 l 390 57 l 390 0 l 47 0 l 47 57 l 138 75 q 139 187 139 126 q 139 292 139 247 l 139 365 q 139 416 139 394 q 138 456 139 438 q 137 493 138 475 q 135 532 136 511 l 38 544 l 38 597 l 269 685 l 292 671 l 301 564 q 538 685 410 685 z "},"o":{"ha":774,"x_min":51,"x_max":722,"o":"m 386 -19 q 254 4 315 -19 q 148 73 193 28 q 77 183 103 118 q 51 332 51 249 q 78 481 51 415 q 151 592 106 546 q 258 661 197 638 q 386 685 319 685 q 514 661 453 685 q 621 592 575 638 q 694 481 667 547 q 722 332 722 415 q 696 183 722 249 q 624 73 669 118 q 518 4 579 28 q 386 -19 457 -19 m 386 49 q 501 117 461 49 q 540 331 540 186 q 501 546 540 475 q 386 617 461 617 q 233 331 233 617 q 272 117 233 186 q 386 49 311 49 z "},"p":{"ha":828,"x_min":40,"x_max":776,"o":"m 599 328 q 556 522 599 457 q 443 586 513 586 q 378 569 411 586 q 310 525 346 553 l 310 132 q 433 78 368 78 q 551 138 503 78 q 599 328 599 199 m 142 -22 l 142 365 q 142 416 142 394 q 141 456 142 438 q 140 493 140 475 q 138 532 139 511 l 40 544 l 40 597 l 271 685 l 293 671 l 300 585 q 508 685 392 685 q 613 662 564 685 q 699 594 663 639 q 756 484 735 549 q 776 336 776 419 q 753 188 776 254 q 691 76 731 122 q 599 6 651 31 q 486 -19 546 -19 q 389 0 433 -19 q 306 64 344 19 l 306 -21 q 306 -129 306 -74 q 308 -246 307 -185 l 417 -267 l 417 -324 l 44 -324 l 44 -267 l 139 -249 q 141 -131 140 -187 q 142 -22 142 -75 z "},"q":{"ha":790,"x_min":51,"x_max":786,"o":"m 229 328 q 276 140 229 201 q 399 79 324 79 q 465 94 435 79 q 525 140 496 110 l 525 538 q 460 576 490 565 q 401 588 431 588 q 279 524 329 588 q 229 328 229 461 m 692 -31 q 692 -140 692 -85 q 694 -249 693 -194 l 786 -267 l 786 -324 l 417 -324 l 417 -267 l 526 -246 q 528 -137 528 -192 q 529 -31 529 -83 l 529 79 q 441 4 489 28 q 332 -19 393 -19 q 219 4 271 -19 q 131 72 168 28 q 72 181 93 117 q 51 325 51 244 q 75 474 51 407 q 140 587 99 540 q 237 659 182 633 q 354 685 292 685 q 449 665 404 685 q 536 596 494 644 l 665 685 l 696 671 l 692 483 l 692 -31 z "},"r":{"ha":615,"x_min":38,"x_max":610,"o":"m 49 0 l 49 57 l 138 74 q 139 187 139 126 q 139 292 139 247 l 139 365 q 139 416 139 394 q 138 456 139 438 q 137 493 138 475 q 135 532 136 511 l 38 544 l 38 597 l 269 685 l 292 671 l 307 501 q 392 638 338 592 q 500 685 446 685 q 568 665 538 685 q 610 610 599 646 q 585 529 608 557 q 519 501 561 501 q 425 551 468 501 l 413 565 q 307 393 339 504 l 307 292 q 307 189 307 247 q 308 79 307 131 l 422 57 l 422 0 l 49 0 z "},"s":{"ha":617,"x_min":56,"x_max":572,"o":"m 281 -19 q 163 -5 217 -19 q 57 39 110 10 l 56 200 l 149 200 l 174 71 q 282 50 224 50 q 388 75 353 50 q 422 144 422 100 q 394 208 422 183 q 300 254 367 232 l 231 278 q 107 351 151 303 q 63 474 63 399 q 80 555 63 517 q 131 622 97 593 q 213 668 164 651 q 326 685 263 685 q 435 670 386 685 q 533 628 485 656 l 526 482 l 435 482 l 410 599 q 369 611 390 607 q 324 615 349 615 q 238 592 268 615 q 207 528 207 568 q 233 467 207 490 q 329 421 258 444 l 385 404 q 529 318 486 369 q 572 194 572 267 q 497 40 572 100 q 281 -19 422 -19 z "},"t":{"ha":474,"x_min":14,"x_max":476,"o":"m 285 171 q 305 96 285 119 q 358 72 325 72 q 399 81 379 72 q 443 107 419 89 l 476 72 q 403 4 449 28 q 293 -19 358 -19 q 163 22 210 -19 q 115 156 115 64 q 116 216 115 188 q 117 285 117 244 l 117 581 l 14 581 l 14 653 l 126 667 l 179 857 l 292 857 l 286 665 l 453 665 l 453 581 l 285 581 l 285 171 z "},"u":{"ha":826,"x_min":31,"x_max":789,"o":"m 789 0 l 551 -12 l 540 108 q 431 13 490 44 q 304 -19 371 -19 q 226 -6 261 -19 q 166 37 190 7 q 128 114 142 67 q 115 231 115 161 l 121 574 l 31 593 l 31 647 l 274 676 l 290 661 l 283 467 l 283 236 q 308 126 283 157 q 378 96 332 96 q 458 117 417 96 q 536 175 499 139 l 540 574 l 453 593 l 453 644 l 690 676 l 708 661 l 704 467 l 704 75 l 789 57 l 789 0 z "},"v":{"ha":717,"x_min":-6,"x_max":706,"o":"m 400 -6 l 318 -6 l 67 594 l -6 607 l -6 665 l 360 665 l 360 607 l 253 590 l 404 186 l 543 589 l 442 607 l 442 665 l 706 665 l 706 607 l 628 590 l 400 -6 z "},"w":{"ha":1078,"x_min":-6,"x_max":1067,"o":"m 706 -6 q 643 160 669 88 q 597 288 617 232 q 561 388 576 344 q 535 467 546 431 l 364 -6 l 288 -6 l 67 596 l -6 607 l -6 665 l 335 665 l 335 607 l 240 593 l 368 200 l 507 593 l 414 607 l 414 665 l 736 665 l 736 607 l 646 592 l 782 204 l 904 592 l 813 607 l 813 665 l 1067 665 l 1067 607 l 990 593 l 783 -6 l 706 -6 z "},"x":{"ha":747,"x_min":14,"x_max":733,"o":"m 285 57 l 285 0 l 14 0 l 14 57 l 106 74 l 290 313 l 108 593 l 21 607 l 21 665 l 369 665 l 369 607 l 297 594 l 415 417 l 540 592 l 461 607 l 461 665 l 713 665 l 713 607 l 632 592 l 451 360 l 642 74 l 733 57 l 733 0 l 367 0 l 367 57 l 450 71 l 328 256 l 197 74 l 285 57 z "},"y":{"ha":726,"x_min":0,"x_max":724,"o":"m 136 -337 q 42 -310 82 -337 q 0 -240 3 -282 q 38 -184 8 -203 q 104 -165 68 -165 q 159 -177 132 -165 q 214 -224 186 -189 l 222 -235 q 287 -152 260 -199 q 333 -53 314 -106 l 336 -44 l 72 599 l 1 610 l 1 665 l 365 665 l 365 610 l 256 594 l 411 168 l 563 593 l 457 610 l 457 665 l 724 665 l 724 610 l 646 594 l 408 -25 q 349 -163 378 -104 q 288 -261 319 -222 q 219 -319 256 -300 q 136 -337 182 -337 z "},"z":{"ha":639,"x_min":33,"x_max":611,"o":"m 53 665 l 594 665 l 594 614 l 226 61 l 479 61 l 519 229 l 611 229 l 597 0 l 33 0 l 33 51 l 407 604 l 169 604 l 133 450 l 42 456 l 53 665 z "},"À":{"ha":929,"x_min":10,"x_max":913,"o":"m 10 0 l 10 65 l 124 82 l 414 926 l 528 926 l 818 75 l 913 64 l 913 0 l 511 0 l 511 64 l 633 79 l 567 285 l 264 285 l 197 83 l 318 65 l 318 0 l 10 0 m 543 357 l 417 743 l 288 357 l 543 357 m 557 1028 l 525 983 q 428 1030 476 1007 q 332 1076 381 1053 q 272 1120 288 1099 q 257 1161 257 1142 q 275 1202 257 1185 q 321 1219 293 1219 q 363 1208 342 1219 q 415 1167 383 1197 q 486 1098 451 1132 q 557 1028 521 1064 z "},"Á":{"ha":929,"x_min":10,"x_max":913,"o":"m 10 0 l 10 65 l 124 82 l 414 926 l 528 926 l 818 75 l 913 64 l 913 0 l 511 0 l 511 64 l 633 79 l 567 285 l 264 285 l 197 83 l 318 65 l 318 0 l 10 0 m 543 357 l 417 743 l 288 357 l 543 357 m 371 1028 q 442 1099 407 1064 q 513 1165 476 1133 q 565 1208 544 1197 q 607 1219 586 1219 q 653 1202 635 1219 q 671 1161 671 1185 q 656 1121 671 1142 q 597 1078 642 1100 q 500 1031 549 1054 q 403 983 451 1007 l 371 1028 z "},"Â":{"ha":929,"x_min":10,"x_max":913,"o":"m 10 0 l 10 65 l 124 82 l 414 926 l 528 926 l 818 75 l 913 64 l 913 0 l 511 0 l 511 64 l 633 79 l 567 285 l 264 285 l 197 83 l 318 65 l 318 0 l 10 0 m 543 357 l 417 743 l 288 357 l 543 357 m 501 1183 l 696 999 l 663 957 l 467 1068 l 271 957 l 238 999 l 432 1183 l 501 1183 z "},"Ã":{"ha":929,"x_min":10,"x_max":913,"o":"m 10 0 l 10 65 l 124 82 l 414 926 l 528 926 l 818 75 l 913 64 l 913 0 l 511 0 l 511 64 l 633 79 l 567 285 l 264 285 l 197 83 l 318 65 l 318 0 l 10 0 m 543 357 l 417 743 l 288 357 l 543 357 m 214 1010 q 265 1147 226 1097 q 367 1196 304 1196 q 427 1183 403 1196 q 475 1153 451 1169 q 522 1116 499 1135 q 575 1097 546 1097 q 630 1124 608 1097 q 667 1194 651 1150 l 717 1176 q 667 1040 704 1090 q 567 990 629 990 q 504 1003 531 990 q 456 1033 478 1017 q 408 1070 432 1051 q 356 1089 385 1089 q 301 1063 324 1089 q 264 992 279 1036 l 214 1010 z "},"Ä":{"ha":929,"x_min":10,"x_max":913,"o":"m 10 0 l 10 65 l 124 82 l 414 926 l 528 926 l 818 75 l 913 64 l 913 0 l 511 0 l 511 64 l 633 79 l 567 285 l 264 285 l 197 83 l 318 65 l 318 0 l 10 0 m 543 357 l 417 743 l 288 357 l 543 357 m 304 1013 q 241 1036 268 1013 q 214 1099 214 1060 q 241 1161 214 1138 q 304 1185 268 1185 q 367 1161 340 1185 q 394 1099 394 1138 q 367 1036 394 1060 q 304 1013 340 1013 m 631 1013 q 568 1036 594 1013 q 542 1099 542 1060 q 568 1161 542 1138 q 631 1185 594 1185 q 695 1161 668 1185 q 722 1099 722 1138 q 695 1036 722 1060 q 631 1013 668 1013 z "},"Ā":{"ha":929,"x_min":10,"x_max":913,"o":"m 10 0 l 10 65 l 124 82 l 414 926 l 528 926 l 818 75 l 913 64 l 913 0 l 511 0 l 511 64 l 633 79 l 567 285 l 264 285 l 197 83 l 318 65 l 318 0 l 10 0 m 543 357 l 417 743 l 288 357 l 543 357 m 251 1033 l 251 1139 l 685 1139 l 685 1033 l 251 1033 z "},"Ă":{"ha":929,"x_min":10,"x_max":913,"o":"m 10 0 l 10 65 l 124 82 l 414 926 l 528 926 l 818 75 l 913 64 l 913 0 l 511 0 l 511 64 l 633 79 l 567 285 l 264 285 l 197 83 l 318 65 l 318 0 l 10 0 m 543 357 l 417 743 l 288 357 l 543 357 m 257 1172 l 310 1193 q 369 1117 329 1146 q 471 1089 408 1089 q 572 1117 533 1089 q 632 1193 611 1146 l 685 1172 q 664 1106 679 1139 q 622 1048 649 1074 q 558 1007 596 1022 q 471 992 521 992 q 383 1007 421 992 q 319 1048 346 1022 q 278 1106 293 1074 q 257 1172 263 1139 z "},"Ắ":{"ha":929,"x_min":10,"x_max":913,"o":"m 10 0 l 10 65 l 124 82 l 414 926 l 528 926 l 818 75 l 913 64 l 913 0 l 511 0 l 511 64 l 633 79 l 567 285 l 264 285 l 197 83 l 318 65 l 318 0 l 10 0 m 543 357 l 417 743 l 288 357 l 543 357 m 465 1000 q 377 1015 415 1000 q 313 1056 339 1031 q 272 1115 288 1082 q 251 1181 257 1147 l 304 1201 q 364 1125 325 1153 q 465 1097 403 1097 q 568 1125 528 1097 q 628 1200 608 1153 l 679 1181 q 658 1115 674 1147 q 617 1056 643 1082 q 553 1015 590 1031 q 465 1000 515 1000 m 413 1190 l 493 1336 q 530 1384 511 1369 q 571 1399 549 1399 q 613 1383 593 1399 q 632 1346 632 1368 q 622 1307 632 1326 q 583 1264 613 1288 l 456 1154 l 413 1190 z "},"Ặ":{"ha":929,"x_min":10,"x_max":913,"o":"m 10 0 l 10 65 l 124 82 l 414 926 l 528 926 l 818 75 l 913 64 l 913 0 l 511 0 l 511 64 l 633 79 l 567 285 l 264 285 l 197 83 l 318 65 l 318 0 l 10 0 m 543 357 l 417 743 l 288 357 l 543 357 m 257 1172 l 310 1193 q 369 1117 329 1146 q 471 1089 408 1089 q 572 1117 533 1089 q 632 1193 611 1146 l 685 1172 q 664 1106 679 1139 q 622 1048 649 1074 q 558 1007 596 1022 q 471 992 521 992 q 383 1007 421 992 q 319 1048 346 1022 q 278 1106 293 1074 q 257 1172 263 1139 m 456 -296 q 381 -269 411 -296 q 350 -197 350 -242 q 381 -125 350 -153 q 456 -97 411 -97 q 531 -125 500 -97 q 561 -197 561 -153 q 531 -269 561 -242 q 456 -296 500 -296 z "},"Ằ":{"ha":929,"x_min":10,"x_max":913,"o":"m 10 0 l 10 65 l 124 82 l 414 926 l 528 926 l 818 75 l 913 64 l 913 0 l 511 0 l 511 64 l 633 79 l 567 285 l 264 285 l 197 83 l 318 65 l 318 0 l 10 0 m 543 357 l 417 743 l 288 357 l 543 357 m 465 1000 q 377 1015 415 1000 q 313 1056 339 1031 q 272 1115 288 1082 q 251 1181 257 1147 l 303 1200 q 363 1125 322 1153 q 465 1097 403 1097 q 567 1125 528 1097 q 626 1201 606 1153 l 679 1181 q 658 1115 674 1147 q 617 1056 643 1082 q 553 1015 590 1031 q 465 1000 515 1000 m 518 1190 l 475 1154 l 347 1264 q 308 1307 318 1288 q 299 1346 299 1326 q 318 1383 299 1368 q 360 1399 338 1399 q 401 1384 382 1399 q 438 1336 419 1369 l 518 1190 z "},"Ẳ":{"ha":929,"x_min":10,"x_max":913,"o":"m 10 0 l 10 65 l 124 82 l 414 926 l 528 926 l 818 75 l 913 64 l 913 0 l 511 0 l 511 64 l 633 79 l 567 285 l 264 285 l 197 83 l 318 65 l 318 0 l 10 0 m 543 357 l 417 743 l 288 357 l 543 357 m 431 1140 l 418 1190 q 476 1208 461 1199 q 492 1233 492 1218 q 465 1261 492 1251 q 376 1276 439 1271 l 390 1392 q 578 1258 578 1376 q 540 1179 578 1210 q 431 1140 501 1149 m 251 1181 l 304 1201 q 363 1126 324 1154 q 465 1097 403 1097 q 567 1126 528 1097 q 626 1201 606 1154 l 679 1181 q 658 1115 674 1147 q 617 1056 643 1082 q 553 1015 590 1031 q 465 1000 515 1000 q 378 1015 415 1000 q 314 1056 340 1031 q 272 1115 288 1082 q 251 1181 257 1147 z "},"Ẵ":{"ha":929,"x_min":10,"x_max":913,"o":"m 10 0 l 10 65 l 124 82 l 414 926 l 528 926 l 818 75 l 913 64 l 913 0 l 511 0 l 511 64 l 633 79 l 567 285 l 264 285 l 197 83 l 318 65 l 318 0 l 10 0 m 543 357 l 417 743 l 288 357 l 543 357 m 229 1222 q 274 1325 239 1288 q 369 1363 310 1363 q 430 1353 406 1363 q 476 1335 454 1344 q 521 1315 499 1324 q 571 1306 543 1306 q 657 1367 631 1306 l 701 1349 q 656 1246 690 1283 q 564 1208 622 1208 q 501 1217 528 1208 q 454 1238 475 1226 q 410 1257 432 1249 q 360 1265 388 1265 q 274 1206 300 1265 l 229 1222 m 465 1000 q 379 1014 415 1000 q 318 1051 343 1028 q 278 1103 293 1074 q 254 1164 263 1132 l 304 1183 q 366 1120 329 1143 q 465 1097 403 1097 q 565 1120 528 1097 q 628 1183 603 1143 l 676 1164 q 653 1103 668 1132 q 613 1051 638 1074 q 551 1014 588 1028 q 465 1000 515 1000 z "},"Ǎ":{"ha":929,"x_min":10,"x_max":913,"o":"m 10 0 l 10 65 l 124 82 l 414 926 l 528 926 l 818 75 l 913 64 l 913 0 l 511 0 l 511 64 l 633 79 l 567 285 l 264 285 l 197 83 l 318 65 l 318 0 l 10 0 m 543 357 l 417 743 l 288 357 l 543 357 m 290 1217 l 465 1096 l 640 1217 l 681 1181 l 521 997 l 410 997 l 251 1181 l 290 1217 z "},"Ấ":{"ha":929,"x_min":10,"x_max":913,"o":"m 10 0 l 10 65 l 124 82 l 414 926 l 528 926 l 818 75 l 913 64 l 913 0 l 511 0 l 511 64 l 633 79 l 567 285 l 264 285 l 197 83 l 318 65 l 318 0 l 10 0 m 543 357 l 417 743 l 288 357 l 543 357 m 269 975 l 236 1017 l 431 1201 l 500 1201 l 694 1017 l 661 975 l 465 1086 l 269 975 m 664 1104 l 628 1144 l 681 1218 q 726 1270 704 1257 q 767 1283 747 1283 q 806 1267 790 1283 q 822 1228 822 1251 q 806 1184 822 1204 q 746 1143 790 1164 l 664 1104 z "},"Ậ":{"ha":929,"x_min":10,"x_max":913,"o":"m 10 0 l 10 65 l 124 82 l 414 926 l 528 926 l 818 75 l 913 64 l 913 0 l 511 0 l 511 64 l 633 79 l 567 285 l 264 285 l 197 83 l 318 65 l 318 0 l 10 0 m 543 357 l 417 743 l 288 357 l 543 357 m 501 1183 l 696 999 l 663 957 l 467 1068 l 271 957 l 238 999 l 432 1183 l 501 1183 m 446 -296 q 371 -269 401 -296 q 340 -197 340 -242 q 371 -125 340 -153 q 446 -97 401 -97 q 521 -125 490 -97 q 551 -197 551 -153 q 521 -269 551 -242 q 446 -296 490 -296 z "},"Ầ":{"ha":929,"x_min":10,"x_max":913,"o":"m 10 0 l 10 65 l 124 82 l 414 926 l 528 926 l 818 75 l 913 64 l 913 0 l 511 0 l 511 64 l 633 79 l 567 285 l 264 285 l 197 83 l 318 65 l 318 0 l 10 0 m 543 357 l 417 743 l 288 357 l 543 357 m 661 975 l 465 1086 l 269 975 l 236 1017 l 431 1201 l 500 1201 l 694 1017 l 661 975 m 258 1106 l 176 1143 q 115 1183 132 1163 q 99 1228 99 1204 q 115 1267 99 1251 q 154 1283 131 1283 q 196 1270 174 1283 q 242 1218 218 1257 l 294 1147 l 258 1106 z "},"Ẩ":{"ha":929,"x_min":10,"x_max":913,"o":"m 10 0 l 10 65 l 124 82 l 414 926 l 528 926 l 818 75 l 913 64 l 913 0 l 511 0 l 511 64 l 633 79 l 567 285 l 264 285 l 197 83 l 318 65 l 318 0 l 10 0 m 543 357 l 417 743 l 288 357 l 543 357 m 269 975 l 236 1017 l 431 1201 l 500 1201 l 694 1017 l 661 975 l 465 1086 l 269 975 m 635 1144 q 693 1165 678 1154 q 708 1189 708 1175 q 682 1217 708 1206 q 594 1233 656 1228 l 607 1349 q 796 1214 796 1332 q 757 1134 796 1165 q 647 1094 718 1103 l 635 1144 z "},"Ẫ":{"ha":929,"x_min":10,"x_max":913,"o":"m 10 0 l 10 65 l 124 82 l 414 926 l 528 926 l 818 75 l 913 64 l 913 0 l 511 0 l 511 64 l 633 79 l 567 285 l 264 285 l 197 83 l 318 65 l 318 0 l 10 0 m 543 357 l 417 743 l 288 357 l 543 357 m 267 968 l 236 1010 l 431 1161 l 500 1161 l 694 1010 l 664 968 l 465 1058 l 267 968 m 229 1208 q 276 1311 239 1274 q 369 1349 313 1349 q 430 1340 406 1349 q 476 1321 454 1331 q 521 1301 499 1310 q 571 1292 543 1292 q 657 1353 631 1292 l 701 1335 q 655 1232 690 1269 q 564 1194 619 1194 q 501 1203 528 1194 q 454 1224 475 1213 q 410 1243 432 1235 q 360 1251 388 1251 q 274 1192 300 1251 l 229 1208 z "},"Ạ":{"ha":929,"x_min":10,"x_max":913,"o":"m 10 0 l 10 65 l 124 82 l 414 926 l 528 926 l 818 75 l 913 64 l 913 0 l 511 0 l 511 64 l 633 79 l 567 285 l 264 285 l 197 83 l 318 65 l 318 0 l 10 0 m 543 357 l 417 743 l 288 357 l 543 357 m 446 -296 q 371 -269 401 -296 q 340 -197 340 -242 q 371 -125 340 -153 q 446 -97 401 -97 q 521 -125 490 -97 q 551 -197 551 -153 q 521 -269 551 -242 q 446 -296 490 -296 z "},"Ả":{"ha":929,"x_min":10,"x_max":913,"o":"m 10 0 l 10 65 l 124 82 l 414 926 l 528 926 l 818 75 l 913 64 l 913 0 l 511 0 l 511 64 l 633 79 l 567 285 l 264 285 l 197 83 l 318 65 l 318 0 l 10 0 m 543 357 l 417 743 l 288 357 l 543 357 m 426 990 l 414 1040 q 472 1058 457 1049 q 488 1083 488 1068 q 461 1111 488 1101 q 372 1126 435 1121 l 386 1242 q 574 1108 574 1226 q 535 1029 574 1060 q 426 990 497 999 z "},"Å":{"ha":929,"x_min":10,"x_max":913,"o":"m 10 0 l 10 65 l 124 82 l 414 926 l 528 926 l 818 75 l 913 64 l 913 0 l 511 0 l 511 64 l 633 79 l 567 285 l 264 285 l 197 83 l 318 65 l 318 0 l 10 0 m 543 357 l 417 743 l 288 357 l 543 357 m 468 989 q 371 1024 413 989 q 329 1121 329 1058 q 371 1219 329 1183 q 468 1254 413 1254 q 565 1219 524 1254 q 607 1121 607 1185 q 565 1024 607 1058 q 468 989 524 989 m 468 1044 q 520 1067 501 1044 q 539 1121 539 1090 q 521 1174 539 1153 q 468 1196 503 1196 q 416 1174 435 1196 q 397 1121 397 1153 q 415 1067 397 1090 q 468 1044 433 1044 z "},"Ą":{"ha":929,"x_min":10,"x_max":913,"o":"m 10 0 l 10 65 l 124 82 l 414 926 l 528 926 l 818 75 l 913 64 l 913 0 l 511 0 l 511 64 l 633 79 l 567 285 l 264 285 l 197 83 l 318 65 l 318 0 l 10 0 m 543 357 l 417 743 l 288 357 l 543 357 m 607 -181 q 650 -65 607 -115 q 760 15 693 -14 l 807 15 q 743 -47 764 -11 q 722 -121 722 -82 q 749 -190 722 -165 q 818 -214 776 -214 q 893 -196 857 -214 l 911 -243 q 839 -294 883 -278 q 750 -310 794 -310 q 645 -274 683 -310 q 607 -181 607 -239 z "},"Æ":{"ha":1260,"x_min":10,"x_max":1218,"o":"m 10 0 l 10 65 l 114 79 l 507 840 l 389 856 l 389 921 l 1181 921 l 1190 678 l 1093 678 l 1064 847 l 783 847 q 781 673 781 760 q 781 510 781 586 l 960 510 l 978 631 l 1050 631 l 1050 317 l 978 317 l 961 436 l 781 436 q 781 248 781 336 q 783 74 781 160 l 1092 74 l 1121 243 l 1218 243 l 1208 0 l 488 0 l 488 65 l 597 78 q 599 208 599 143 q 600 342 600 274 l 336 342 l 204 83 l 318 65 l 318 0 l 10 0 m 600 415 l 600 835 l 588 835 l 374 415 l 600 415 z "},"Ç":{"ha":871,"x_min":57,"x_max":824,"o":"m 553 51 q 696 83 624 51 l 729 253 l 824 253 l 818 46 q 686 -6 757 13 q 532 -24 615 -24 q 342 9 429 -24 q 192 104 256 42 q 92 257 128 167 q 57 461 57 347 q 94 665 57 575 q 197 817 132 754 q 349 912 263 879 q 536 944 436 944 q 672 929 604 944 q 807 876 740 914 l 813 668 l 717 668 l 683 840 q 622 864 651 857 q 561 871 592 871 q 442 846 499 871 q 344 769 386 821 q 278 641 303 718 q 253 460 253 564 q 276 279 253 356 q 339 152 299 203 q 434 76 379 101 q 553 51 489 51 m 464 -121 l 482 6 l 544 6 l 535 -76 q 632 -117 597 -87 q 667 -192 667 -146 q 624 -276 667 -243 q 496 -310 581 -310 q 441 -305 464 -310 q 399 -293 418 -300 l 411 -240 q 481 -249 446 -249 q 539 -233 521 -249 q 557 -190 557 -217 q 534 -143 557 -158 q 464 -121 511 -128 z "},"Ć":{"ha":871,"x_min":57,"x_max":824,"o":"m 553 51 q 696 83 624 51 l 729 253 l 824 253 l 818 46 q 686 -6 757 13 q 532 -24 615 -24 q 342 9 429 -24 q 192 104 256 42 q 92 257 128 167 q 57 461 57 347 q 94 665 57 575 q 197 817 132 754 q 349 912 263 879 q 536 944 436 944 q 672 929 604 944 q 807 876 740 914 l 813 668 l 717 668 l 683 840 q 622 864 651 857 q 561 871 592 871 q 442 846 499 871 q 344 769 386 821 q 278 641 303 718 q 253 460 253 564 q 276 279 253 356 q 339 152 299 203 q 434 76 379 101 q 553 51 489 51 m 439 1033 q 510 1104 475 1069 q 581 1171 544 1139 q 633 1214 613 1203 q 675 1225 654 1225 q 721 1208 703 1225 q 739 1167 739 1190 q 724 1126 739 1147 q 665 1083 710 1106 q 568 1036 617 1060 q 471 989 519 1013 l 439 1033 z "},"Č":{"ha":871,"x_min":57,"x_max":824,"o":"m 553 51 q 696 83 624 51 l 729 253 l 824 253 l 818 46 q 686 -6 757 13 q 532 -24 615 -24 q 342 9 429 -24 q 192 104 256 42 q 92 257 128 167 q 57 461 57 347 q 94 665 57 575 q 197 817 132 754 q 349 912 263 879 q 536 944 436 944 q 672 929 604 944 q 807 876 740 914 l 813 668 l 717 668 l 683 840 q 622 864 651 857 q 561 871 592 871 q 442 846 499 871 q 344 769 386 821 q 278 641 303 718 q 253 460 253 564 q 276 279 253 356 q 339 152 299 203 q 434 76 379 101 q 553 51 489 51 m 357 1222 l 532 1101 l 707 1222 l 747 1186 l 588 1003 l 476 1003 l 318 1186 l 357 1222 z "},"Ĉ":{"ha":871,"x_min":57,"x_max":824,"o":"m 553 51 q 696 83 624 51 l 729 253 l 824 253 l 818 46 q 686 -6 757 13 q 532 -24 615 -24 q 342 9 429 -24 q 192 104 256 42 q 92 257 128 167 q 57 461 57 347 q 94 665 57 575 q 197 817 132 754 q 349 912 263 879 q 536 944 436 944 q 672 929 604 944 q 807 876 740 914 l 813 668 l 717 668 l 683 840 q 622 864 651 857 q 561 871 592 871 q 442 846 499 871 q 344 769 386 821 q 278 641 303 718 q 253 460 253 564 q 276 279 253 356 q 339 152 299 203 q 434 76 379 101 q 553 51 489 51 m 553 1201 l 747 1017 l 714 975 l 518 1086 l 322 975 l 289 1017 l 483 1201 l 553 1201 z "},"Ċ":{"ha":871,"x_min":57,"x_max":824,"o":"m 553 51 q 696 83 624 51 l 729 253 l 824 253 l 818 46 q 686 -6 757 13 q 532 -24 615 -24 q 342 9 429 -24 q 192 104 256 42 q 92 257 128 167 q 57 461 57 347 q 94 665 57 575 q 197 817 132 754 q 349 912 263 879 q 536 944 436 944 q 672 929 604 944 q 807 876 740 914 l 813 668 l 717 668 l 683 840 q 622 864 651 857 q 561 871 592 871 q 442 846 499 871 q 344 769 386 821 q 278 641 303 718 q 253 460 253 564 q 276 279 253 356 q 339 152 299 203 q 434 76 379 101 q 553 51 489 51 m 515 1004 q 440 1032 471 1004 q 410 1104 410 1060 q 440 1176 410 1149 q 515 1203 471 1203 q 590 1176 560 1203 q 621 1104 621 1149 q 590 1032 621 1060 q 515 1004 560 1004 z "},"Ď":{"ha":982,"x_min":54,"x_max":926,"o":"m 174 442 l 174 490 q 174 666 174 578 q 171 843 174 754 l 54 856 l 54 921 l 465 921 q 656 890 571 921 q 801 801 740 860 q 894 656 861 742 q 926 461 926 571 q 890 265 926 350 q 790 120 854 179 q 635 31 725 61 q 439 0 546 0 l 54 0 l 54 65 l 171 78 q 174 256 174 165 q 174 442 174 346 m 353 442 q 353 254 353 346 q 356 72 353 163 l 435 72 q 655 173 578 72 q 732 460 732 274 q 656 751 732 651 q 443 850 579 850 l 356 850 q 353 672 353 761 q 353 490 353 582 l 353 442 m 300 1217 l 475 1096 l 650 1217 l 690 1181 l 531 997 l 419 997 l 261 1181 l 300 1217 z "},"Đ":{"ha":982,"x_min":54,"x_max":926,"o":"m 542 436 l 353 436 q 353 247 353 336 q 356 72 353 158 l 435 72 q 655 173 578 72 q 732 460 732 274 q 656 751 732 651 q 443 850 579 850 l 356 850 q 353 674 353 761 q 353 508 353 586 l 542 508 l 542 436 m 54 0 l 54 65 l 171 78 q 174 255 174 165 q 174 436 174 344 l 54 436 l 54 508 l 174 508 q 174 677 174 594 q 171 843 174 760 l 54 856 l 54 921 l 465 921 q 656 890 571 921 q 801 801 740 860 q 894 656 861 742 q 926 461 926 571 q 890 265 926 350 q 790 120 854 179 q 635 31 725 61 q 439 0 546 0 l 54 0 z "},"Ḍ":{"ha":982,"x_min":54,"x_max":926,"o":"m 174 442 l 174 490 q 174 666 174 578 q 171 843 174 754 l 54 856 l 54 921 l 465 921 q 656 890 571 921 q 801 801 740 860 q 894 656 861 742 q 926 461 926 571 q 890 265 926 350 q 790 120 854 179 q 635 31 725 61 q 439 0 546 0 l 54 0 l 54 65 l 171 78 q 174 256 174 165 q 174 442 174 346 m 353 442 q 353 254 353 346 q 356 72 353 163 l 435 72 q 655 173 578 72 q 732 460 732 274 q 656 751 732 651 q 443 850 579 850 l 356 850 q 353 672 353 761 q 353 490 353 582 l 353 442 m 469 -296 q 394 -269 425 -296 q 364 -197 364 -242 q 394 -125 364 -153 q 469 -97 425 -97 q 544 -125 514 -97 q 575 -197 575 -153 q 544 -269 575 -242 q 469 -296 514 -296 z "},"Ḏ":{"ha":982,"x_min":54,"x_max":926,"o":"m 174 442 l 174 490 q 174 666 174 578 q 171 843 174 754 l 54 856 l 54 921 l 465 921 q 656 890 571 921 q 801 801 740 860 q 894 656 861 742 q 926 461 926 571 q 890 265 926 350 q 790 120 854 179 q 635 31 725 61 q 439 0 546 0 l 54 0 l 54 65 l 171 78 q 174 256 174 165 q 174 442 174 346 m 353 442 q 353 254 353 346 q 356 72 353 163 l 435 72 q 655 173 578 72 q 732 460 732 274 q 656 751 732 651 q 443 850 579 850 l 356 850 q 353 672 353 761 q 353 490 353 582 l 353 442 m 286 -256 l 286 -151 l 686 -151 l 686 -256 l 286 -256 z "},"È":{"ha":832,"x_min":54,"x_max":792,"o":"m 174 431 l 174 490 q 174 666 174 578 q 171 843 174 754 l 54 856 l 54 921 l 754 921 l 764 678 l 667 678 l 638 847 l 356 847 q 353 673 353 760 q 353 510 353 586 l 532 510 l 550 631 l 622 631 l 622 317 l 550 317 l 533 436 l 353 436 q 353 248 353 336 q 356 74 353 160 l 665 74 l 694 243 l 792 243 l 782 0 l 54 0 l 54 65 l 171 78 q 174 253 174 165 q 174 431 174 340 m 514 1028 l 482 983 q 385 1030 433 1007 q 289 1076 338 1053 q 229 1120 244 1099 q 214 1161 214 1142 q 232 1202 214 1185 q 278 1219 250 1219 q 319 1208 299 1219 q 372 1167 340 1197 q 443 1098 408 1132 q 514 1028 478 1064 z "},"É":{"ha":832,"x_min":54,"x_max":792,"o":"m 174 431 l 174 490 q 174 666 174 578 q 171 843 174 754 l 54 856 l 54 921 l 754 921 l 764 678 l 667 678 l 638 847 l 356 847 q 353 673 353 760 q 353 510 353 586 l 532 510 l 550 631 l 622 631 l 622 317 l 550 317 l 533 436 l 353 436 q 353 248 353 336 q 356 74 353 160 l 665 74 l 694 243 l 792 243 l 782 0 l 54 0 l 54 65 l 171 78 q 174 253 174 165 q 174 431 174 340 m 358 1028 q 429 1099 394 1064 q 500 1165 464 1133 q 553 1208 532 1197 q 594 1219 574 1219 q 640 1202 622 1219 q 658 1161 658 1185 q 644 1121 658 1142 q 585 1078 629 1100 q 488 1031 536 1054 q 390 983 439 1007 l 358 1028 z "},"Ê":{"ha":832,"x_min":54,"x_max":792,"o":"m 174 431 l 174 490 q 174 666 174 578 q 171 843 174 754 l 54 856 l 54 921 l 754 921 l 764 678 l 667 678 l 638 847 l 356 847 q 353 673 353 760 q 353 510 353 586 l 532 510 l 550 631 l 622 631 l 622 317 l 550 317 l 533 436 l 353 436 q 353 248 353 336 q 356 74 353 160 l 665 74 l 694 243 l 792 243 l 782 0 l 54 0 l 54 65 l 171 78 q 174 253 174 165 q 174 431 174 340 m 496 1201 l 690 1017 l 657 975 l 461 1086 l 265 975 l 232 1017 l 426 1201 l 496 1201 z "},"Ě":{"ha":832,"x_min":54,"x_max":792,"o":"m 174 431 l 174 490 q 174 666 174 578 q 171 843 174 754 l 54 856 l 54 921 l 754 921 l 764 678 l 667 678 l 638 847 l 356 847 q 353 673 353 760 q 353 510 353 586 l 532 510 l 550 631 l 622 631 l 622 317 l 550 317 l 533 436 l 353 436 q 353 248 353 336 q 356 74 353 160 l 665 74 l 694 243 l 792 243 l 782 0 l 54 0 l 54 65 l 171 78 q 174 253 174 165 q 174 431 174 340 m 281 1217 l 456 1096 l 631 1217 l 671 1181 l 511 997 l 400 997 l 242 1181 l 281 1217 z "},"Ë":{"ha":832,"x_min":54,"x_max":792,"o":"m 174 431 l 174 490 q 174 666 174 578 q 171 843 174 754 l 54 856 l 54 921 l 754 921 l 764 678 l 667 678 l 638 847 l 356 847 q 353 673 353 760 q 353 510 353 586 l 532 510 l 550 631 l 622 631 l 622 317 l 550 317 l 533 436 l 353 436 q 353 248 353 336 q 356 74 353 160 l 665 74 l 694 243 l 792 243 l 782 0 l 54 0 l 54 65 l 171 78 q 174 253 174 165 q 174 431 174 340 m 278 1013 q 215 1036 242 1013 q 188 1099 188 1060 q 215 1161 188 1138 q 278 1185 242 1185 q 341 1161 314 1185 q 368 1099 368 1138 q 341 1036 368 1060 q 278 1013 314 1013 m 604 1013 q 542 1036 568 1013 q 515 1099 515 1060 q 542 1161 515 1138 q 604 1185 568 1185 q 669 1161 642 1185 q 696 1099 696 1138 q 669 1036 696 1060 q 604 1013 642 1013 z "},"Ē":{"ha":832,"x_min":54,"x_max":792,"o":"m 174 431 l 174 490 q 174 666 174 578 q 171 843 174 754 l 54 856 l 54 921 l 754 921 l 764 678 l 667 678 l 638 847 l 356 847 q 353 673 353 760 q 353 510 353 586 l 532 510 l 550 631 l 622 631 l 622 317 l 550 317 l 533 436 l 353 436 q 353 248 353 336 q 356 74 353 160 l 665 74 l 694 243 l 792 243 l 782 0 l 54 0 l 54 65 l 171 78 q 174 253 174 165 q 174 431 174 340 m 244 1033 l 244 1139 l 678 1139 l 678 1033 l 244 1033 z "},"Ė":{"ha":832,"x_min":54,"x_max":792,"o":"m 174 431 l 174 490 q 174 666 174 578 q 171 843 174 754 l 54 856 l 54 921 l 754 921 l 764 678 l 667 678 l 638 847 l 356 847 q 353 673 353 760 q 353 510 353 586 l 532 510 l 550 631 l 622 631 l 622 317 l 550 317 l 533 436 l 353 436 q 353 248 353 336 q 356 74 353 160 l 665 74 l 694 243 l 792 243 l 782 0 l 54 0 l 54 65 l 171 78 q 174 253 174 165 q 174 431 174 340 m 453 1004 q 378 1032 408 1004 q 347 1104 347 1060 q 378 1176 347 1149 q 453 1203 408 1203 q 528 1176 497 1203 q 558 1104 558 1149 q 528 1032 558 1060 q 453 1004 497 1004 z "},"Ę":{"ha":832,"x_min":54,"x_max":806,"o":"m 174 431 l 174 490 q 174 666 174 578 q 171 843 174 754 l 54 856 l 54 921 l 754 921 l 764 678 l 667 678 l 638 847 l 356 847 q 353 673 353 760 q 353 510 353 586 l 532 510 l 550 631 l 622 631 l 622 317 l 550 317 l 533 436 l 353 436 q 353 248 353 336 q 356 74 353 160 l 665 74 l 694 243 l 792 243 l 782 0 l 54 0 l 54 65 l 171 78 q 174 253 174 165 q 174 431 174 340 m 501 -181 q 544 -65 501 -115 q 654 15 588 -14 l 701 15 q 638 -47 658 -11 q 617 -121 617 -82 q 644 -190 617 -165 q 713 -214 671 -214 q 788 -196 751 -214 l 806 -243 q 733 -294 778 -278 q 644 -310 689 -310 q 540 -274 578 -310 q 501 -181 501 -239 z "},"Ĕ":{"ha":832,"x_min":54,"x_max":792,"o":"m 174 431 l 174 490 q 174 666 174 578 q 171 843 174 754 l 54 856 l 54 921 l 754 921 l 764 678 l 667 678 l 638 847 l 356 847 q 353 673 353 760 q 353 510 353 586 l 532 510 l 550 631 l 622 631 l 622 317 l 550 317 l 533 436 l 353 436 q 353 248 353 336 q 356 74 353 160 l 665 74 l 694 243 l 792 243 l 782 0 l 54 0 l 54 65 l 171 78 q 174 253 174 165 q 174 431 174 340 m 226 1181 l 279 1201 q 338 1126 299 1154 q 440 1097 378 1097 q 542 1126 503 1097 q 601 1201 581 1154 l 654 1181 q 633 1115 649 1147 q 592 1056 618 1082 q 528 1015 565 1031 q 440 1000 490 1000 q 353 1015 390 1000 q 289 1056 315 1031 q 247 1115 263 1082 q 226 1181 232 1147 z "},"Ế":{"ha":832,"x_min":54,"x_max":800,"o":"m 174 431 l 174 490 q 174 666 174 578 q 171 843 174 754 l 54 856 l 54 921 l 754 921 l 764 678 l 667 678 l 638 847 l 356 847 q 353 673 353 760 q 353 510 353 586 l 532 510 l 550 631 l 622 631 l 622 317 l 550 317 l 533 436 l 353 436 q 353 248 353 336 q 356 74 353 160 l 665 74 l 694 243 l 792 243 l 782 0 l 54 0 l 54 65 l 171 78 q 174 253 174 165 q 174 431 174 340 m 247 975 l 214 1017 l 408 1201 l 478 1201 l 672 1017 l 639 975 l 443 1086 l 247 975 m 642 1104 l 606 1144 l 658 1218 q 703 1270 682 1257 q 744 1283 725 1283 q 784 1267 768 1283 q 800 1228 800 1251 q 784 1184 800 1204 q 724 1143 768 1164 l 642 1104 z "},"Ệ":{"ha":832,"x_min":54,"x_max":792,"o":"m 174 431 l 174 490 q 174 666 174 578 q 171 843 174 754 l 54 856 l 54 921 l 754 921 l 764 678 l 667 678 l 638 847 l 356 847 q 353 673 353 760 q 353 510 353 586 l 532 510 l 550 631 l 622 631 l 622 317 l 550 317 l 533 436 l 353 436 q 353 248 353 336 q 356 74 353 160 l 665 74 l 694 243 l 792 243 l 782 0 l 54 0 l 54 65 l 171 78 q 174 253 174 165 q 174 431 174 340 m 496 1201 l 690 1017 l 657 975 l 461 1086 l 265 975 l 232 1017 l 426 1201 l 496 1201 m 453 -296 q 378 -269 408 -296 q 347 -197 347 -242 q 378 -125 347 -153 q 453 -97 408 -97 q 528 -125 497 -97 q 558 -197 558 -153 q 528 -269 558 -242 q 453 -296 497 -296 z "},"Ề":{"ha":832,"x_min":54,"x_max":792,"o":"m 174 431 l 174 490 q 174 666 174 578 q 171 843 174 754 l 54 856 l 54 921 l 754 921 l 764 678 l 667 678 l 638 847 l 356 847 q 353 673 353 760 q 353 510 353 586 l 532 510 l 550 631 l 622 631 l 622 317 l 550 317 l 533 436 l 353 436 q 353 248 353 336 q 356 74 353 160 l 665 74 l 694 243 l 792 243 l 782 0 l 54 0 l 54 65 l 171 78 q 174 253 174 165 q 174 431 174 340 m 636 975 l 440 1086 l 244 975 l 211 1017 l 406 1201 l 475 1201 l 669 1017 l 636 975 m 233 1106 l 151 1143 q 90 1183 107 1163 q 74 1228 74 1204 q 90 1267 74 1251 q 129 1283 106 1283 q 171 1270 149 1283 q 217 1218 193 1257 l 269 1147 l 233 1106 z "},"Ể":{"ha":832,"x_min":54,"x_max":792,"o":"m 174 431 l 174 490 q 174 666 174 578 q 171 843 174 754 l 54 856 l 54 921 l 754 921 l 764 678 l 667 678 l 638 847 l 356 847 q 353 673 353 760 q 353 510 353 586 l 532 510 l 550 631 l 622 631 l 622 317 l 550 317 l 533 436 l 353 436 q 353 248 353 336 q 356 74 353 160 l 665 74 l 694 243 l 792 243 l 782 0 l 54 0 l 54 65 l 171 78 q 174 253 174 165 q 174 431 174 340 m 244 975 l 211 1017 l 406 1201 l 475 1201 l 669 1017 l 636 975 l 440 1086 l 244 975 m 610 1144 q 668 1165 653 1154 q 683 1189 683 1175 q 657 1217 683 1206 q 569 1233 631 1228 l 582 1349 q 771 1214 771 1332 q 732 1134 771 1165 q 622 1094 693 1103 l 610 1144 z "},"Ễ":{"ha":832,"x_min":54,"x_max":792,"o":"m 174 431 l 174 490 q 174 666 174 578 q 171 843 174 754 l 54 856 l 54 921 l 754 921 l 764 678 l 667 678 l 638 847 l 356 847 q 353 673 353 760 q 353 510 353 586 l 532 510 l 550 631 l 622 631 l 622 317 l 550 317 l 533 436 l 353 436 q 353 248 353 336 q 356 74 353 160 l 665 74 l 694 243 l 792 243 l 782 0 l 54 0 l 54 65 l 171 78 q 174 253 174 165 q 174 431 174 340 m 242 968 l 211 1010 l 406 1161 l 475 1161 l 669 1010 l 639 968 l 440 1058 l 242 968 m 204 1208 q 251 1311 214 1274 q 344 1349 288 1349 q 405 1340 381 1349 q 451 1321 429 1331 q 496 1301 474 1310 q 546 1292 518 1292 q 632 1353 606 1292 l 676 1335 q 630 1232 665 1269 q 539 1194 594 1194 q 476 1203 503 1194 q 429 1224 450 1213 q 385 1243 407 1235 q 335 1251 363 1251 q 249 1192 275 1251 l 204 1208 z "},"Ẹ":{"ha":832,"x_min":54,"x_max":792,"o":"m 174 431 l 174 490 q 174 666 174 578 q 171 843 174 754 l 54 856 l 54 921 l 754 921 l 764 678 l 667 678 l 638 847 l 356 847 q 353 673 353 760 q 353 510 353 586 l 532 510 l 550 631 l 622 631 l 622 317 l 550 317 l 533 436 l 353 436 q 353 248 353 336 q 356 74 353 160 l 665 74 l 694 243 l 792 243 l 782 0 l 54 0 l 54 65 l 171 78 q 174 253 174 165 q 174 431 174 340 m 453 -296 q 378 -269 408 -296 q 347 -197 347 -242 q 378 -125 347 -153 q 453 -97 408 -97 q 528 -125 497 -97 q 558 -197 558 -153 q 528 -269 558 -242 q 453 -296 497 -296 z "},"Ẻ":{"ha":832,"x_min":54,"x_max":792,"o":"m 174 431 l 174 490 q 174 666 174 578 q 171 843 174 754 l 54 856 l 54 921 l 754 921 l 764 678 l 667 678 l 638 847 l 356 847 q 353 673 353 760 q 353 510 353 586 l 532 510 l 550 631 l 622 631 l 622 317 l 550 317 l 533 436 l 353 436 q 353 248 353 336 q 356 74 353 160 l 665 74 l 694 243 l 792 243 l 782 0 l 54 0 l 54 65 l 171 78 q 174 253 174 165 q 174 431 174 340 m 406 990 l 393 1040 q 451 1058 436 1049 q 467 1083 467 1068 q 440 1111 467 1101 q 351 1126 414 1121 l 365 1242 q 553 1108 553 1226 q 515 1029 553 1060 q 406 990 476 999 z "},"Ẽ":{"ha":832,"x_min":54,"x_max":792,"o":"m 174 431 l 174 490 q 174 666 174 578 q 171 843 174 754 l 54 856 l 54 921 l 754 921 l 764 678 l 667 678 l 638 847 l 356 847 q 353 673 353 760 q 353 510 353 586 l 532 510 l 550 631 l 622 631 l 622 317 l 550 317 l 533 436 l 353 436 q 353 248 353 336 q 356 74 353 160 l 665 74 l 694 243 l 792 243 l 782 0 l 54 0 l 54 65 l 171 78 q 174 253 174 165 q 174 431 174 340 m 189 1010 q 240 1147 201 1097 q 342 1196 279 1196 q 402 1183 378 1196 q 450 1153 426 1169 q 497 1116 474 1135 q 550 1097 521 1097 q 605 1124 583 1097 q 642 1194 626 1150 l 692 1176 q 642 1040 679 1090 q 542 990 604 990 q 479 1003 506 990 q 431 1033 453 1017 q 383 1070 407 1051 q 331 1089 360 1089 q 276 1063 299 1089 q 239 992 254 1036 l 189 1010 z "},"Ğ":{"ha":942,"x_min":57,"x_max":921,"o":"m 840 118 l 840 58 q 694 -3 768 18 q 531 -24 621 -24 q 338 11 425 -24 q 188 110 250 46 q 91 263 125 174 q 57 461 57 353 q 91 657 57 568 q 188 810 125 746 q 340 909 250 874 q 542 944 429 944 q 815 879 699 944 l 821 671 l 725 671 l 692 840 q 561 871 629 871 q 440 845 496 871 q 342 768 383 819 q 276 640 300 717 q 253 461 253 563 q 276 283 253 360 q 340 156 299 207 q 438 78 381 104 q 564 51 494 51 q 618 56 593 51 q 667 67 643 60 l 667 121 q 666 244 667 183 q 664 367 665 304 l 529 381 l 529 446 l 921 446 l 921 381 l 843 372 q 841 246 842 308 q 840 118 840 183 m 314 1181 l 367 1201 q 426 1126 386 1154 q 528 1097 465 1097 q 629 1126 590 1097 q 689 1201 668 1154 l 742 1181 q 721 1115 736 1147 q 679 1056 706 1082 q 615 1015 653 1031 q 528 1000 578 1000 q 440 1015 478 1000 q 376 1056 403 1031 q 335 1115 350 1082 q 314 1181 319 1147 z "},"Ġ":{"ha":942,"x_min":57,"x_max":921,"o":"m 840 118 l 840 58 q 694 -3 768 18 q 531 -24 621 -24 q 338 11 425 -24 q 188 110 250 46 q 91 263 125 174 q 57 461 57 353 q 91 657 57 568 q 188 810 125 746 q 340 909 250 874 q 542 944 429 944 q 815 879 699 944 l 821 671 l 725 671 l 692 840 q 561 871 629 871 q 440 845 496 871 q 342 768 383 819 q 276 640 300 717 q 253 461 253 563 q 276 283 253 360 q 340 156 299 207 q 438 78 381 104 q 564 51 494 51 q 618 56 593 51 q 667 67 643 60 l 667 121 q 666 244 667 183 q 664 367 665 304 l 529 381 l 529 446 l 921 446 l 921 381 l 843 372 q 841 246 842 308 q 840 118 840 183 m 533 1004 q 458 1032 489 1004 q 428 1104 428 1060 q 458 1176 428 1149 q 533 1203 489 1203 q 608 1176 578 1203 q 639 1104 639 1149 q 608 1032 639 1060 q 533 1004 578 1004 z "},"Ģ":{"ha":942,"x_min":57,"x_max":921,"o":"m 840 118 l 840 58 q 694 -3 768 18 q 531 -24 621 -24 q 338 11 425 -24 q 188 110 250 46 q 91 263 125 174 q 57 461 57 353 q 91 657 57 568 q 188 810 125 746 q 340 909 250 874 q 542 944 429 944 q 815 879 699 944 l 821 671 l 725 671 l 692 840 q 561 871 629 871 q 440 845 496 871 q 342 768 383 819 q 276 640 300 717 q 253 461 253 563 q 276 283 253 360 q 340 156 299 207 q 438 78 381 104 q 564 51 494 51 q 618 56 593 51 q 667 67 643 60 l 667 121 q 666 244 667 183 q 664 367 665 304 l 529 381 l 529 446 l 921 446 l 921 381 l 843 372 q 841 246 842 308 q 840 118 840 183 m 636 -167 q 620 -232 636 -203 q 578 -285 604 -261 q 515 -328 551 -310 q 440 -358 479 -346 l 422 -312 q 490 -280 463 -297 q 542 -235 518 -262 q 490 -196 510 -219 q 471 -142 471 -172 q 494 -90 471 -110 q 550 -71 518 -71 q 587 -77 569 -71 q 624 -99 604 -83 q 633 -135 631 -119 q 636 -167 636 -151 z "},"Ǧ":{"ha":942,"x_min":57,"x_max":921,"o":"m 840 118 l 840 58 q 694 -3 768 18 q 531 -24 621 -24 q 338 11 425 -24 q 188 110 250 46 q 91 263 125 174 q 57 461 57 353 q 91 657 57 568 q 188 810 125 746 q 340 909 250 874 q 542 944 429 944 q 815 879 699 944 l 821 671 l 725 671 l 692 840 q 561 871 629 871 q 440 845 496 871 q 342 768 383 819 q 276 640 300 717 q 253 461 253 563 q 276 283 253 360 q 340 156 299 207 q 438 78 381 104 q 564 51 494 51 q 618 56 593 51 q 667 67 643 60 l 667 121 q 666 244 667 183 q 664 367 665 304 l 529 381 l 529 446 l 921 446 l 921 381 l 843 372 q 841 246 842 308 q 840 118 840 183 m 361 1217 l 536 1096 l 711 1217 l 751 1181 l 592 997 l 481 997 l 322 1181 l 361 1217 z "},"Ĝ":{"ha":942,"x_min":57,"x_max":921,"o":"m 840 118 l 840 58 q 694 -3 768 18 q 531 -24 621 -24 q 338 11 425 -24 q 188 110 250 46 q 91 263 125 174 q 57 461 57 353 q 91 657 57 568 q 188 810 125 746 q 340 909 250 874 q 542 944 429 944 q 815 879 699 944 l 821 671 l 725 671 l 692 840 q 561 871 629 871 q 440 845 496 871 q 342 768 383 819 q 276 640 300 717 q 253 461 253 563 q 276 283 253 360 q 340 156 299 207 q 438 78 381 104 q 564 51 494 51 q 618 56 593 51 q 667 67 643 60 l 667 121 q 666 244 667 183 q 664 367 665 304 l 529 381 l 529 446 l 921 446 l 921 381 l 843 372 q 841 246 842 308 q 840 118 840 183 m 561 1201 l 756 1017 l 722 975 l 526 1086 l 331 975 l 297 1017 l 492 1201 l 561 1201 z "},"Ḡ":{"ha":942,"x_min":57,"x_max":921,"o":"m 840 118 l 840 58 q 694 -3 768 18 q 531 -24 621 -24 q 338 11 425 -24 q 188 110 250 46 q 91 263 125 174 q 57 461 57 353 q 91 657 57 568 q 188 810 125 746 q 340 909 250 874 q 542 944 429 944 q 815 879 699 944 l 821 671 l 725 671 l 692 840 q 561 871 629 871 q 440 845 496 871 q 342 768 383 819 q 276 640 300 717 q 253 461 253 563 q 276 283 253 360 q 340 156 299 207 q 438 78 381 104 q 564 51 494 51 q 618 56 593 51 q 667 67 643 60 l 667 121 q 666 244 667 183 q 664 367 665 304 l 529 381 l 529 446 l 921 446 l 921 381 l 843 372 q 841 246 842 308 q 840 118 840 183 m 304 1033 l 304 1139 l 738 1139 l 738 1033 l 304 1033 z "},"Ħ":{"ha":1078,"x_min":36,"x_max":1042,"o":"m 351 496 l 351 476 l 726 476 l 726 496 l 726 631 l 351 631 l 351 496 m 172 431 l 172 490 l 172 631 l 36 631 l 36 703 l 172 703 q 171 773 171 739 q 169 843 171 807 l 54 856 l 54 921 l 468 921 l 468 856 l 354 843 q 353 774 353 808 q 351 703 353 739 l 726 703 q 725 773 725 739 q 724 843 725 807 l 610 856 l 610 921 l 1024 921 l 1024 856 l 908 843 q 907 774 907 808 q 906 703 907 739 l 1042 703 l 1042 631 l 906 631 l 906 490 l 906 431 q 906 255 906 343 q 908 78 906 167 l 1024 65 l 1024 0 l 610 0 l 610 65 l 724 78 q 726 235 726 156 q 726 403 726 315 l 351 403 q 351 237 351 317 q 354 78 351 157 l 468 65 l 468 0 l 54 0 l 54 65 l 169 78 q 172 253 172 165 q 172 431 172 340 z "},"Ḫ":{"ha":1081,"x_min":54,"x_max":1026,"o":"m 172 431 l 172 490 q 172 666 172 578 q 169 843 172 754 l 54 856 l 54 921 l 468 921 l 468 856 l 354 843 q 351 670 351 756 q 351 508 351 585 l 728 508 q 728 677 728 594 q 725 843 728 760 l 613 856 l 613 921 l 1026 921 l 1026 856 l 911 843 q 908 668 908 756 q 908 490 908 581 l 908 431 q 908 255 908 343 q 911 78 908 167 l 1026 65 l 1026 0 l 613 0 l 613 65 l 725 78 q 728 255 728 165 q 728 436 728 344 l 351 436 q 351 249 351 336 q 354 78 351 161 l 468 65 l 468 0 l 54 0 l 54 65 l 169 78 q 172 253 172 165 q 172 431 172 340 m 322 -111 l 376 -94 q 435 -183 397 -147 q 539 -219 474 -219 q 642 -183 604 -219 q 701 -94 681 -146 l 756 -111 q 738 -187 751 -149 q 697 -255 724 -225 q 632 -303 671 -285 q 539 -322 593 -322 q 446 -303 485 -322 q 381 -255 407 -285 q 340 -187 354 -225 q 322 -111 326 -149 z "},"Ĥ":{"ha":1081,"x_min":54,"x_max":1026,"o":"m 172 431 l 172 490 q 172 666 172 578 q 169 843 172 754 l 54 856 l 54 921 l 468 921 l 468 856 l 354 843 q 351 670 351 756 q 351 508 351 585 l 728 508 q 728 677 728 594 q 725 843 728 760 l 613 856 l 613 921 l 1026 921 l 1026 856 l 911 843 q 908 668 908 756 q 908 490 908 581 l 908 431 q 908 255 908 343 q 911 78 908 167 l 1026 65 l 1026 0 l 613 0 l 613 65 l 725 78 q 728 255 728 165 q 728 436 728 344 l 351 436 q 351 249 351 336 q 354 78 351 161 l 468 65 l 468 0 l 54 0 l 54 65 l 169 78 q 172 253 172 165 q 172 431 172 340 m 575 1201 l 769 1017 l 736 975 l 540 1086 l 344 975 l 311 1017 l 506 1201 l 575 1201 z "},"Ḥ":{"ha":1081,"x_min":54,"x_max":1026,"o":"m 172 431 l 172 490 q 172 666 172 578 q 169 843 172 754 l 54 856 l 54 921 l 468 921 l 468 856 l 354 843 q 351 670 351 756 q 351 508 351 585 l 728 508 q 728 677 728 594 q 725 843 728 760 l 613 856 l 613 921 l 1026 921 l 1026 856 l 911 843 q 908 668 908 756 q 908 490 908 581 l 908 431 q 908 255 908 343 q 911 78 908 167 l 1026 65 l 1026 0 l 613 0 l 613 65 l 725 78 q 728 255 728 165 q 728 436 728 344 l 351 436 q 351 249 351 336 q 354 78 351 161 l 468 65 l 468 0 l 54 0 l 54 65 l 169 78 q 172 253 172 165 q 172 431 172 340 m 539 -296 q 464 -269 494 -296 q 433 -197 433 -242 q 464 -125 433 -153 q 539 -97 494 -97 q 614 -125 583 -97 q 644 -197 644 -153 q 614 -269 644 -242 q 539 -296 583 -296 z "},"Ì":{"ha":526,"x_min":54,"x_max":472,"o":"m 174 431 l 174 490 q 174 666 174 578 q 171 843 174 754 l 54 856 l 54 921 l 472 921 l 472 856 l 356 843 q 353 668 353 756 q 353 490 353 581 l 353 431 q 353 255 353 343 q 356 78 353 167 l 472 65 l 472 0 l 54 0 l 54 65 l 171 78 q 174 253 174 165 q 174 431 174 340 m 361 1028 l 329 983 q 233 1030 281 1007 q 136 1076 185 1053 q 76 1120 92 1099 q 61 1161 61 1142 q 79 1202 61 1185 q 125 1219 97 1219 q 167 1208 146 1219 q 219 1167 188 1197 q 290 1098 256 1132 q 361 1028 325 1064 z "},"Í":{"ha":526,"x_min":54,"x_max":482,"o":"m 174 431 l 174 490 q 174 666 174 578 q 171 843 174 754 l 54 856 l 54 921 l 472 921 l 472 856 l 356 843 q 353 668 353 756 q 353 490 353 581 l 353 431 q 353 255 353 343 q 356 78 353 167 l 472 65 l 472 0 l 54 0 l 54 65 l 171 78 q 174 253 174 165 q 174 431 174 340 m 182 1028 q 253 1099 218 1064 q 324 1165 288 1133 q 376 1208 356 1197 q 418 1219 397 1219 q 464 1202 446 1219 q 482 1161 482 1185 q 467 1121 482 1142 q 408 1078 453 1100 q 311 1031 360 1054 q 214 983 263 1007 l 182 1028 z "},"Î":{"ha":526,"x_min":33,"x_max":492,"o":"m 174 431 l 174 490 q 174 666 174 578 q 171 843 174 754 l 54 856 l 54 921 l 472 921 l 472 856 l 356 843 q 353 668 353 756 q 353 490 353 581 l 353 431 q 353 255 353 343 q 356 78 353 167 l 472 65 l 472 0 l 54 0 l 54 65 l 171 78 q 174 253 174 165 q 174 431 174 340 m 297 1201 l 492 1017 l 458 975 l 263 1086 l 67 975 l 33 1017 l 228 1201 l 297 1201 z "},"Ï":{"ha":526,"x_min":10,"x_max":518,"o":"m 174 431 l 174 490 q 174 666 174 578 q 171 843 174 754 l 54 856 l 54 921 l 472 921 l 472 856 l 356 843 q 353 668 353 756 q 353 490 353 581 l 353 431 q 353 255 353 343 q 356 78 353 167 l 472 65 l 472 0 l 54 0 l 54 65 l 171 78 q 174 253 174 165 q 174 431 174 340 m 100 1013 q 37 1036 64 1013 q 10 1099 10 1060 q 37 1161 10 1138 q 100 1185 64 1185 q 163 1161 136 1185 q 190 1099 190 1138 q 163 1036 190 1060 q 100 1013 136 1013 m 426 1013 q 364 1036 390 1013 q 338 1099 338 1060 q 364 1161 338 1138 q 426 1185 390 1185 q 491 1161 464 1185 q 518 1099 518 1138 q 491 1036 518 1060 q 426 1013 464 1013 z "},"Ī":{"ha":526,"x_min":47,"x_max":481,"o":"m 174 431 l 174 490 q 174 666 174 578 q 171 843 174 754 l 54 856 l 54 921 l 472 921 l 472 856 l 356 843 q 353 668 353 756 q 353 490 353 581 l 353 431 q 353 255 353 343 q 356 78 353 167 l 472 65 l 472 0 l 54 0 l 54 65 l 171 78 q 174 253 174 165 q 174 431 174 340 m 47 1033 l 47 1139 l 481 1139 l 481 1033 l 47 1033 z "},"İ":{"ha":526,"x_min":54,"x_max":472,"o":"m 174 431 l 174 490 q 174 666 174 578 q 171 843 174 754 l 54 856 l 54 921 l 472 921 l 472 856 l 356 843 q 353 668 353 756 q 353 490 353 581 l 353 431 q 353 255 353 343 q 356 78 353 167 l 472 65 l 472 0 l 54 0 l 54 65 l 171 78 q 174 253 174 165 q 174 431 174 340 m 264 1004 q 189 1032 219 1004 q 158 1104 158 1060 q 189 1176 158 1149 q 264 1203 219 1203 q 339 1176 308 1203 q 369 1104 369 1149 q 339 1032 369 1060 q 264 1004 308 1004 z "},"Į":{"ha":526,"x_min":54,"x_max":472,"o":"m 174 431 l 174 490 q 174 666 174 578 q 171 843 174 754 l 54 856 l 54 921 l 472 921 l 472 856 l 356 843 q 353 668 353 756 q 353 490 353 581 l 353 431 q 353 255 353 343 q 356 78 353 167 l 472 65 l 472 0 l 54 0 l 54 65 l 171 78 q 174 253 174 165 q 174 431 174 340 m 164 -181 q 207 -65 164 -115 q 317 15 250 -14 l 364 15 q 300 -47 321 -11 q 279 -121 279 -82 q 306 -190 279 -165 q 375 -214 333 -214 q 450 -196 414 -214 l 468 -243 q 396 -294 440 -278 q 307 -310 351 -310 q 202 -274 240 -310 q 164 -181 164 -239 z "},"Ǐ":{"ha":526,"x_min":49,"x_max":478,"o":"m 174 431 l 174 490 q 174 666 174 578 q 171 843 174 754 l 54 856 l 54 921 l 472 921 l 472 856 l 356 843 q 353 668 353 756 q 353 490 353 581 l 353 431 q 353 255 353 343 q 356 78 353 167 l 472 65 l 472 0 l 54 0 l 54 65 l 171 78 q 174 253 174 165 q 174 431 174 340 m 88 1217 l 263 1096 l 438 1217 l 478 1181 l 318 997 l 207 997 l 49 1181 l 88 1217 z "},"Ị":{"ha":526,"x_min":54,"x_max":472,"o":"m 174 431 l 174 490 q 174 666 174 578 q 171 843 174 754 l 54 856 l 54 921 l 472 921 l 472 856 l 356 843 q 353 668 353 756 q 353 490 353 581 l 353 431 q 353 255 353 343 q 356 78 353 167 l 472 65 l 472 0 l 54 0 l 54 65 l 171 78 q 174 253 174 165 q 174 431 174 340 m 264 -296 q 189 -269 219 -296 q 158 -197 158 -242 q 189 -125 158 -153 q 264 -97 219 -97 q 339 -125 308 -97 q 369 -197 369 -153 q 339 -269 369 -242 q 264 -296 308 -296 z "},"Ỉ":{"ha":526,"x_min":54,"x_max":472,"o":"m 174 431 l 174 490 q 174 666 174 578 q 171 843 174 754 l 54 856 l 54 921 l 472 921 l 472 856 l 356 843 q 353 668 353 756 q 353 490 353 581 l 353 431 q 353 255 353 343 q 356 78 353 167 l 472 65 l 472 0 l 54 0 l 54 65 l 171 78 q 174 253 174 165 q 174 431 174 340 m 228 990 l 215 1040 q 274 1058 258 1049 q 289 1083 289 1068 q 263 1111 289 1101 q 174 1126 236 1121 l 188 1242 q 375 1108 375 1226 q 337 1029 375 1060 q 228 990 299 999 z "},"Ĩ":{"ha":526,"x_min":11,"x_max":514,"o":"m 174 431 l 174 490 q 174 666 174 578 q 171 843 174 754 l 54 856 l 54 921 l 472 921 l 472 856 l 356 843 q 353 668 353 756 q 353 490 353 581 l 353 431 q 353 255 353 343 q 356 78 353 167 l 472 65 l 472 0 l 54 0 l 54 65 l 171 78 q 174 253 174 165 q 174 431 174 340 m 11 1010 q 63 1147 24 1097 q 164 1196 101 1196 q 224 1183 200 1196 q 272 1153 249 1169 q 319 1116 296 1135 q 372 1097 343 1097 q 427 1124 406 1097 q 464 1194 449 1150 l 514 1176 q 464 1040 501 1090 q 364 990 426 990 q 301 1003 328 990 q 253 1033 275 1017 q 206 1070 229 1051 q 153 1089 182 1089 q 99 1063 121 1089 q 61 992 76 1036 l 11 1010 z "},"Ĵ":{"ha":533,"x_min":-87,"x_max":507,"o":"m 57 856 l 57 921 l 490 921 l 490 856 l 374 843 q 371 671 371 757 q 371 497 371 585 l 371 315 q 369 199 371 250 q 362 105 367 147 q 349 28 357 63 q 331 -36 342 -6 q 288 -122 315 -85 q 223 -183 260 -158 q 144 -221 186 -208 q 56 -233 101 -233 q -32 -216 7 -233 q -87 -156 -71 -199 q -57 -92 -83 -112 q 10 -71 -31 -71 q 67 -85 42 -71 q 125 -129 93 -99 l 156 -161 q 190 -85 181 -131 q 199 29 199 -39 q 198 127 199 68 q 195 280 197 186 q 191 510 193 374 q 188 842 189 646 l 57 856 m 313 1201 l 507 1017 l 474 975 l 278 1086 l 82 975 l 49 1017 l 243 1201 l 313 1201 z "},"Ķ":{"ha":946,"x_min":54,"x_max":939,"o":"m 174 431 l 174 490 q 174 666 174 578 q 171 843 174 754 l 54 856 l 54 921 l 468 921 l 468 856 l 349 842 q 346 667 346 754 q 346 490 346 581 l 346 424 l 682 838 l 586 856 l 586 921 l 907 921 l 907 856 l 774 838 l 565 588 l 842 76 l 939 65 l 939 0 l 561 0 l 561 65 l 651 76 l 454 456 l 346 326 q 346 206 346 268 q 349 78 346 143 l 460 65 l 460 0 l 54 0 l 54 65 l 171 78 q 174 253 174 165 q 174 431 174 340 m 590 -167 q 574 -232 590 -203 q 532 -285 558 -261 q 469 -328 506 -310 q 394 -358 433 -346 l 376 -312 q 444 -280 417 -297 q 496 -235 472 -262 q 444 -196 464 -219 q 425 -142 425 -172 q 449 -90 425 -110 q 504 -71 472 -71 q 541 -77 524 -71 q 578 -99 558 -83 q 588 -135 585 -119 q 590 -167 590 -151 z "},"Ĺ":{"ha":818,"x_min":54,"x_max":772,"o":"m 174 490 q 174 668 174 581 q 171 843 174 756 l 54 856 l 54 921 l 478 921 l 478 856 l 356 842 q 353 667 353 754 q 353 490 353 579 l 353 406 q 353 247 353 331 q 356 75 353 163 l 635 75 l 675 267 l 772 267 l 758 0 l 54 0 l 54 65 l 171 78 q 174 251 174 165 q 174 415 174 336 l 174 490 m 260 1028 q 331 1099 296 1064 q 401 1165 365 1133 q 454 1208 433 1197 q 496 1219 475 1219 q 542 1202 524 1219 q 560 1161 560 1185 q 545 1121 560 1142 q 486 1078 531 1100 q 389 1031 438 1054 q 292 983 340 1007 l 260 1028 z "},"Ľ":{"ha":818,"x_min":54,"x_max":772,"o":"m 174 490 q 174 668 174 581 q 171 843 174 756 l 54 856 l 54 921 l 478 921 l 478 856 l 356 842 q 353 667 353 754 q 353 490 353 579 l 353 406 q 353 247 353 331 q 356 75 353 163 l 635 75 l 675 267 l 772 267 l 758 0 l 54 0 l 54 65 l 171 78 q 174 251 174 165 q 174 415 174 336 l 174 490 m 682 1014 q 728 998 715 1014 q 740 956 740 982 q 726 879 740 925 q 694 789 713 833 l 661 708 l 606 708 l 611 993 q 682 1014 649 1014 z "},"Ļ":{"ha":818,"x_min":54,"x_max":772,"o":"m 174 490 q 174 668 174 581 q 171 843 174 756 l 54 856 l 54 921 l 478 921 l 478 856 l 356 842 q 353 667 353 754 q 353 490 353 579 l 353 406 q 353 247 353 331 q 356 75 353 163 l 635 75 l 675 267 l 772 267 l 758 0 l 54 0 l 54 65 l 171 78 q 174 251 174 165 q 174 415 174 336 l 174 490 m 513 -167 q 497 -232 513 -203 q 454 -285 481 -261 q 392 -328 428 -310 q 317 -358 356 -346 l 299 -312 q 367 -280 339 -297 q 418 -235 394 -262 q 367 -196 386 -219 q 347 -142 347 -172 q 371 -90 347 -110 q 426 -71 394 -71 q 463 -77 446 -71 q 500 -99 481 -83 q 510 -135 507 -119 q 513 -167 513 -151 z "},"Ŀ":{"ha":818,"x_min":54,"x_max":772,"o":"m 174 490 q 174 668 174 581 q 171 843 174 756 l 54 856 l 54 921 l 478 921 l 478 856 l 356 842 q 353 667 353 754 q 353 490 353 579 l 353 406 q 353 247 353 331 q 356 75 353 163 l 635 75 l 675 267 l 772 267 l 758 0 l 54 0 l 54 65 l 171 78 q 174 251 174 165 q 174 415 174 336 l 174 490 m 657 429 q 578 462 610 429 q 546 539 546 494 q 578 619 546 586 q 657 653 610 653 q 736 619 704 653 q 768 539 768 586 q 736 462 768 494 q 657 429 704 429 z "},"Ḷ":{"ha":818,"x_min":54,"x_max":772,"o":"m 174 490 q 174 668 174 581 q 171 843 174 756 l 54 856 l 54 921 l 478 921 l 478 856 l 356 842 q 353 667 353 754 q 353 490 353 579 l 353 406 q 353 247 353 331 q 356 75 353 163 l 635 75 l 675 267 l 772 267 l 758 0 l 54 0 l 54 65 l 171 78 q 174 251 174 165 q 174 415 174 336 l 174 490 m 461 -296 q 386 -269 417 -296 q 356 -197 356 -242 q 386 -125 356 -153 q 461 -97 417 -97 q 536 -125 506 -97 q 567 -197 567 -153 q 536 -269 567 -242 q 461 -296 506 -296 z "},"Ḹ":{"ha":818,"x_min":50,"x_max":772,"o":"m 174 490 q 174 668 174 581 q 171 843 174 756 l 54 856 l 54 921 l 478 921 l 478 856 l 356 842 q 353 667 353 754 q 353 490 353 579 l 353 406 q 353 247 353 331 q 356 75 353 163 l 635 75 l 675 267 l 772 267 l 758 0 l 54 0 l 54 65 l 171 78 q 174 251 174 165 q 174 415 174 336 l 174 490 m 461 -296 q 386 -269 417 -296 q 356 -197 356 -242 q 386 -125 356 -153 q 461 -97 417 -97 q 536 -125 506 -97 q 567 -197 567 -153 q 536 -269 567 -242 q 461 -296 506 -296 m 50 1033 l 50 1139 l 483 1139 l 483 1033 l 50 1033 z "},"Ḻ":{"ha":818,"x_min":54,"x_max":772,"o":"m 174 490 q 174 668 174 581 q 171 843 174 756 l 54 856 l 54 921 l 478 921 l 478 856 l 356 842 q 353 667 353 754 q 353 490 353 579 l 353 406 q 353 247 353 331 q 356 75 353 163 l 635 75 l 675 267 l 772 267 l 758 0 l 54 0 l 54 65 l 171 78 q 174 251 174 165 q 174 415 174 336 l 174 490 m 250 -256 l 250 -151 l 650 -151 l 650 -256 l 250 -256 z "},"Ł":{"ha":818,"x_min":53,"x_max":772,"o":"m 554 643 l 554 546 l 353 435 l 353 406 q 353 247 353 331 q 356 75 353 163 l 635 75 l 675 267 l 772 267 l 758 0 l 54 0 l 54 65 l 171 78 q 174 213 174 146 q 174 344 174 279 l 53 279 l 53 375 l 174 442 l 174 490 q 174 668 174 581 q 171 843 174 756 l 54 856 l 54 921 l 478 921 l 478 856 l 356 842 q 353 688 353 765 q 353 532 353 611 l 554 643 z "},"Ḿ":{"ha":1249,"x_min":40,"x_max":1194,"o":"m 40 0 l 40 65 l 169 83 l 169 840 l 46 856 l 46 921 l 356 921 l 626 231 l 882 921 l 1192 921 l 1192 856 l 1078 843 q 1075 668 1075 756 q 1075 490 1075 581 l 1075 431 q 1075 253 1075 342 q 1078 78 1075 165 l 1194 65 l 1194 0 l 785 0 l 785 65 l 894 79 q 897 251 897 167 q 897 415 897 336 l 899 746 l 624 0 l 535 0 l 244 744 q 247 662 246 704 q 248 583 247 619 q 249 517 249 546 q 250 474 250 488 l 250 83 l 365 65 l 365 0 l 40 0 m 549 1014 q 619 1085 585 1050 q 690 1151 654 1119 q 743 1194 722 1183 q 785 1206 764 1206 q 831 1188 813 1206 q 849 1147 849 1171 q 834 1107 849 1128 q 775 1064 819 1086 q 678 1017 726 1040 q 581 969 629 993 l 549 1014 z "},"Ṃ":{"ha":1249,"x_min":40,"x_max":1194,"o":"m 40 0 l 40 65 l 169 83 l 169 840 l 46 856 l 46 921 l 356 921 l 626 231 l 882 921 l 1192 921 l 1192 856 l 1078 843 q 1075 668 1075 756 q 1075 490 1075 581 l 1075 431 q 1075 253 1075 342 q 1078 78 1075 165 l 1194 65 l 1194 0 l 785 0 l 785 65 l 894 79 q 897 251 897 167 q 897 415 897 336 l 899 746 l 624 0 l 535 0 l 244 744 q 247 662 246 704 q 248 583 247 619 q 249 517 249 546 q 250 474 250 488 l 250 83 l 365 65 l 365 0 l 40 0 m 579 -296 q 504 -269 535 -296 q 474 -197 474 -242 q 504 -125 474 -153 q 579 -97 535 -97 q 654 -125 624 -97 q 685 -197 685 -153 q 654 -269 685 -242 q 579 -296 624 -296 z "},"Ń":{"ha":1015,"x_min":47,"x_max":968,"o":"m 47 0 l 47 65 l 165 82 l 165 824 l 150 846 l 51 856 l 51 921 l 314 921 l 771 292 l 771 838 l 618 856 l 618 921 l 968 921 l 968 856 l 850 838 l 850 -6 l 768 -6 l 244 714 l 244 85 l 397 65 l 397 0 l 47 0 m 418 1015 q 489 1086 454 1051 q 560 1153 524 1121 q 613 1196 592 1185 q 654 1207 633 1207 q 700 1190 682 1207 q 718 1149 718 1172 q 703 1108 718 1129 q 644 1065 689 1088 q 547 1018 596 1042 q 450 971 499 994 l 418 1015 z "},"Ň":{"ha":1015,"x_min":47,"x_max":968,"o":"m 47 0 l 47 65 l 165 82 l 165 824 l 150 846 l 51 856 l 51 921 l 314 921 l 771 292 l 771 838 l 618 856 l 618 921 l 968 921 l 968 856 l 850 838 l 850 -6 l 768 -6 l 244 714 l 244 85 l 397 65 l 397 0 l 47 0 m 338 1208 l 513 1088 l 688 1208 l 728 1172 l 568 989 l 457 989 l 299 1172 l 338 1208 z "},"Ǹ":{"ha":1015,"x_min":47,"x_max":968,"o":"m 47 0 l 47 65 l 165 82 l 165 824 l 150 846 l 51 856 l 51 921 l 314 921 l 771 292 l 771 838 l 618 856 l 618 921 l 968 921 l 968 856 l 850 838 l 850 -6 l 768 -6 l 244 714 l 244 85 l 397 65 l 397 0 l 47 0 m 579 1028 l 547 983 q 451 1030 499 1007 q 354 1076 403 1053 q 294 1120 310 1099 q 279 1161 279 1142 q 297 1202 279 1185 q 343 1219 315 1219 q 385 1208 364 1219 q 438 1167 406 1197 q 508 1098 474 1132 q 579 1028 543 1064 z "},"Ñ":{"ha":1015,"x_min":47,"x_max":968,"o":"m 47 0 l 47 65 l 165 82 l 165 824 l 150 846 l 51 856 l 51 921 l 314 921 l 771 292 l 771 838 l 618 856 l 618 921 l 968 921 l 968 856 l 850 838 l 850 -6 l 768 -6 l 244 714 l 244 85 l 397 65 l 397 0 l 47 0 m 264 1001 q 315 1138 276 1089 q 417 1188 354 1188 q 477 1174 453 1188 q 525 1144 501 1161 q 572 1108 549 1126 q 625 1089 596 1089 q 680 1115 658 1089 q 717 1186 701 1142 l 767 1168 q 717 1032 754 1082 q 617 982 679 982 q 554 995 581 982 q 506 1025 528 1008 q 458 1062 482 1043 q 406 1081 435 1081 q 351 1054 374 1081 q 314 983 329 1028 l 264 1001 z "},"Ņ":{"ha":1015,"x_min":47,"x_max":968,"o":"m 47 0 l 47 65 l 165 82 l 165 824 l 150 846 l 51 856 l 51 921 l 314 921 l 771 292 l 771 838 l 618 856 l 618 921 l 968 921 l 968 856 l 850 838 l 850 -6 l 768 -6 l 244 714 l 244 85 l 397 65 l 397 0 l 47 0 m 622 -158 q 606 -224 622 -194 q 564 -277 590 -253 q 501 -319 538 -301 q 426 -350 465 -337 l 408 -304 q 476 -272 449 -289 q 528 -226 504 -254 q 476 -187 496 -211 q 457 -133 457 -164 q 481 -82 457 -101 q 536 -62 504 -62 q 573 -69 556 -62 q 610 -90 590 -75 q 619 -127 617 -111 q 622 -158 622 -143 z "},"Ṅ":{"ha":1015,"x_min":47,"x_max":968,"o":"m 47 0 l 47 65 l 165 82 l 165 824 l 150 846 l 51 856 l 51 921 l 314 921 l 771 292 l 771 838 l 618 856 l 618 921 l 968 921 l 968 856 l 850 838 l 850 -6 l 768 -6 l 244 714 l 244 85 l 397 65 l 397 0 l 47 0 m 507 986 q 432 1014 463 986 q 401 1086 401 1042 q 432 1158 401 1131 q 507 1185 463 1185 q 582 1158 551 1185 q 613 1086 613 1131 q 582 1014 613 1042 q 507 986 551 986 z "},"Ṇ":{"ha":1015,"x_min":47,"x_max":968,"o":"m 47 0 l 47 65 l 165 82 l 165 824 l 150 846 l 51 856 l 51 921 l 314 921 l 771 292 l 771 838 l 618 856 l 618 921 l 968 921 l 968 856 l 850 838 l 850 -6 l 768 -6 l 244 714 l 244 85 l 397 65 l 397 0 l 47 0 m 528 -296 q 453 -269 483 -296 q 422 -197 422 -242 q 453 -125 422 -153 q 528 -97 483 -97 q 603 -125 572 -97 q 633 -197 633 -153 q 603 -269 633 -242 q 528 -296 572 -296 z "},"Ṉ":{"ha":1015,"x_min":47,"x_max":968,"o":"m 47 0 l 47 65 l 165 82 l 165 824 l 150 846 l 51 856 l 51 921 l 314 921 l 771 292 l 771 838 l 618 856 l 618 921 l 968 921 l 968 856 l 850 838 l 850 -6 l 768 -6 l 244 714 l 244 85 l 397 65 l 397 0 l 47 0 m 311 -256 l 311 -151 l 711 -151 l 711 -256 l 311 -256 z "},"Ò":{"ha":978,"x_min":57,"x_max":922,"o":"m 253 461 q 266 305 253 379 q 308 174 279 231 q 383 85 338 118 q 490 51 428 51 q 597 85 553 51 q 670 174 642 118 q 712 305 699 231 q 725 461 725 379 q 712 617 725 543 q 670 748 699 692 q 597 838 642 804 q 490 871 553 871 q 383 838 428 871 q 308 748 338 804 q 266 617 279 692 q 253 461 253 543 m 490 944 q 651 914 574 944 q 790 823 729 883 q 886 672 850 763 q 922 461 922 581 q 886 253 922 344 q 790 101 850 163 q 651 8 729 40 q 490 -24 574 -24 q 328 7 407 -24 q 190 99 250 38 q 93 250 129 160 q 57 461 57 340 q 93 668 57 578 q 190 820 129 758 q 328 913 250 882 q 490 944 407 944 m 588 1029 l 556 985 q 459 1031 507 1008 q 363 1078 411 1054 q 303 1122 318 1100 q 288 1163 288 1143 q 306 1203 288 1186 q 351 1221 324 1221 q 393 1210 372 1221 q 446 1168 414 1199 q 517 1099 482 1133 q 588 1029 551 1065 z "},"Ó":{"ha":978,"x_min":57,"x_max":922,"o":"m 253 461 q 266 305 253 379 q 308 174 279 231 q 383 85 338 118 q 490 51 428 51 q 597 85 553 51 q 670 174 642 118 q 712 305 699 231 q 725 461 725 379 q 712 617 725 543 q 670 748 699 692 q 597 838 642 804 q 490 871 553 871 q 383 838 428 871 q 308 748 338 804 q 266 617 279 692 q 253 461 253 543 m 490 944 q 651 914 574 944 q 790 823 729 883 q 886 672 850 763 q 922 461 922 581 q 886 253 922 344 q 790 101 850 163 q 651 8 729 40 q 490 -24 574 -24 q 328 7 407 -24 q 190 99 250 38 q 93 250 129 160 q 57 461 57 340 q 93 668 57 578 q 190 820 129 758 q 328 913 250 882 q 490 944 407 944 m 410 1029 q 481 1100 446 1065 q 551 1167 515 1135 q 604 1210 583 1199 q 646 1221 625 1221 q 692 1203 674 1221 q 710 1163 710 1186 q 695 1122 710 1143 q 636 1079 681 1101 q 539 1032 588 1056 q 442 985 490 1008 l 410 1029 z "},"Ŏ":{"ha":978,"x_min":57,"x_max":922,"o":"m 253 461 q 266 305 253 379 q 308 174 279 231 q 383 85 338 118 q 490 51 428 51 q 597 85 553 51 q 670 174 642 118 q 712 305 699 231 q 725 461 725 379 q 712 617 725 543 q 670 748 699 692 q 597 838 642 804 q 490 871 553 871 q 383 838 428 871 q 308 748 338 804 q 266 617 279 692 q 253 461 253 543 m 490 944 q 651 914 574 944 q 790 823 729 883 q 886 672 850 763 q 922 461 922 581 q 886 253 922 344 q 790 101 850 163 q 651 8 729 40 q 490 -24 574 -24 q 328 7 407 -24 q 190 99 250 38 q 93 250 129 160 q 57 461 57 340 q 93 668 57 578 q 190 820 129 758 q 328 913 250 882 q 490 944 407 944 m 276 1194 l 329 1215 q 388 1140 349 1168 q 490 1111 428 1111 q 592 1140 553 1111 q 651 1215 631 1168 l 704 1194 q 683 1128 699 1161 q 642 1070 668 1096 q 578 1029 615 1044 q 490 1014 540 1014 q 403 1029 440 1014 q 339 1070 365 1044 q 297 1128 313 1096 q 276 1194 282 1161 z "},"Ô":{"ha":978,"x_min":57,"x_max":922,"o":"m 253 461 q 266 305 253 379 q 308 174 279 231 q 383 85 338 118 q 490 51 428 51 q 597 85 553 51 q 670 174 642 118 q 712 305 699 231 q 725 461 725 379 q 712 617 725 543 q 670 748 699 692 q 597 838 642 804 q 490 871 553 871 q 383 838 428 871 q 308 748 338 804 q 266 617 279 692 q 253 461 253 543 m 490 944 q 651 914 574 944 q 790 823 729 883 q 886 672 850 763 q 922 461 922 581 q 886 253 922 344 q 790 101 850 163 q 651 8 729 40 q 490 -24 574 -24 q 328 7 407 -24 q 190 99 250 38 q 93 250 129 160 q 57 461 57 340 q 93 668 57 578 q 190 820 129 758 q 328 913 250 882 q 490 944 407 944 m 525 1201 l 719 1017 l 686 975 l 490 1086 l 294 975 l 261 1017 l 456 1201 l 525 1201 z "},"Õ":{"ha":978,"x_min":57,"x_max":922,"o":"m 253 461 q 266 305 253 379 q 308 174 279 231 q 383 85 338 118 q 490 51 428 51 q 597 85 553 51 q 670 174 642 118 q 712 305 699 231 q 725 461 725 379 q 712 617 725 543 q 670 748 699 692 q 597 838 642 804 q 490 871 553 871 q 383 838 428 871 q 308 748 338 804 q 266 617 279 692 q 253 461 253 543 m 490 944 q 651 914 574 944 q 790 823 729 883 q 886 672 850 763 q 922 461 922 581 q 886 253 922 344 q 790 101 850 163 q 651 8 729 40 q 490 -24 574 -24 q 328 7 407 -24 q 190 99 250 38 q 93 250 129 160 q 57 461 57 340 q 93 668 57 578 q 190 820 129 758 q 328 913 250 882 q 490 944 407 944 m 239 1015 q 290 1152 251 1103 q 392 1201 329 1201 q 452 1188 428 1201 q 500 1158 476 1175 q 547 1122 524 1140 q 600 1103 571 1103 q 655 1129 633 1103 q 692 1200 676 1156 l 742 1182 q 692 1046 729 1096 q 592 996 654 996 q 529 1009 556 996 q 481 1039 503 1022 q 433 1076 457 1057 q 381 1094 410 1094 q 326 1068 349 1094 q 289 997 304 1042 l 239 1015 z "},"Ö":{"ha":978,"x_min":57,"x_max":922,"o":"m 253 461 q 266 305 253 379 q 308 174 279 231 q 383 85 338 118 q 490 51 428 51 q 597 85 553 51 q 670 174 642 118 q 712 305 699 231 q 725 461 725 379 q 712 617 725 543 q 670 748 699 692 q 597 838 642 804 q 490 871 553 871 q 383 838 428 871 q 308 748 338 804 q 266 617 279 692 q 253 461 253 543 m 490 944 q 651 914 574 944 q 790 823 729 883 q 886 672 850 763 q 922 461 922 581 q 886 253 922 344 q 790 101 850 163 q 651 8 729 40 q 490 -24 574 -24 q 328 7 407 -24 q 190 99 250 38 q 93 250 129 160 q 57 461 57 340 q 93 668 57 578 q 190 820 129 758 q 328 913 250 882 q 490 944 407 944 m 326 1013 q 263 1036 290 1013 q 236 1099 236 1060 q 263 1161 236 1138 q 326 1185 290 1185 q 390 1161 363 1185 q 417 1099 417 1138 q 390 1036 417 1060 q 326 1013 363 1013 m 653 1013 q 590 1036 617 1013 q 564 1099 564 1060 q 590 1161 564 1138 q 653 1185 617 1185 q 717 1161 690 1185 q 744 1099 744 1138 q 717 1036 744 1060 q 653 1013 690 1013 z "},"Ō":{"ha":978,"x_min":57,"x_max":922,"o":"m 253 461 q 266 305 253 379 q 308 174 279 231 q 383 85 338 118 q 490 51 428 51 q 597 85 553 51 q 670 174 642 118 q 712 305 699 231 q 725 461 725 379 q 712 617 725 543 q 670 748 699 692 q 597 838 642 804 q 490 871 553 871 q 383 838 428 871 q 308 748 338 804 q 266 617 279 692 q 253 461 253 543 m 490 944 q 651 914 574 944 q 790 823 729 883 q 886 672 850 763 q 922 461 922 581 q 886 253 922 344 q 790 101 850 163 q 651 8 729 40 q 490 -24 574 -24 q 328 7 407 -24 q 190 99 250 38 q 93 250 129 160 q 57 461 57 340 q 93 668 57 578 q 190 820 129 758 q 328 913 250 882 q 490 944 407 944 m 274 1033 l 274 1139 l 707 1139 l 707 1033 l 274 1033 z "},"Ő":{"ha":978,"x_min":57,"x_max":922,"o":"m 253 461 q 266 305 253 379 q 308 174 279 231 q 383 85 338 118 q 490 51 428 51 q 597 85 553 51 q 670 174 642 118 q 712 305 699 231 q 725 461 725 379 q 712 617 725 543 q 670 748 699 692 q 597 838 642 804 q 490 871 553 871 q 383 838 428 871 q 308 748 338 804 q 266 617 279 692 q 253 461 253 543 m 490 944 q 651 914 574 944 q 790 823 729 883 q 886 672 850 763 q 922 461 922 581 q 886 253 922 344 q 790 101 850 163 q 651 8 729 40 q 490 -24 574 -24 q 328 7 407 -24 q 190 99 250 38 q 93 250 129 160 q 57 461 57 340 q 93 668 57 578 q 190 820 129 758 q 328 913 250 882 q 490 944 407 944 m 339 1006 l 417 1178 q 451 1225 432 1211 q 493 1239 471 1239 q 534 1225 517 1239 q 551 1188 551 1211 q 521 1124 551 1160 l 385 976 l 339 1006 m 556 1006 l 633 1178 q 668 1225 649 1211 q 710 1239 688 1239 q 750 1225 733 1239 q 767 1188 767 1211 q 760 1158 767 1172 q 736 1124 753 1143 l 601 976 l 556 1006 z "},"Ǒ":{"ha":978,"x_min":57,"x_max":922,"o":"m 253 461 q 266 305 253 379 q 308 174 279 231 q 383 85 338 118 q 490 51 428 51 q 597 85 553 51 q 670 174 642 118 q 712 305 699 231 q 725 461 725 379 q 712 617 725 543 q 670 748 699 692 q 597 838 642 804 q 490 871 553 871 q 383 838 428 871 q 308 748 338 804 q 266 617 279 692 q 253 461 253 543 m 490 944 q 651 914 574 944 q 790 823 729 883 q 886 672 850 763 q 922 461 922 581 q 886 253 922 344 q 790 101 850 163 q 651 8 729 40 q 490 -24 574 -24 q 328 7 407 -24 q 190 99 250 38 q 93 250 129 160 q 57 461 57 340 q 93 668 57 578 q 190 820 129 758 q 328 913 250 882 q 490 944 407 944 m 315 1217 l 490 1096 l 665 1217 l 706 1181 l 546 997 l 435 997 l 276 1181 l 315 1217 z "},"Ố":{"ha":978,"x_min":57,"x_max":922,"o":"m 253 461 q 266 305 253 379 q 308 174 279 231 q 383 85 338 118 q 490 51 428 51 q 597 85 553 51 q 670 174 642 118 q 712 305 699 231 q 725 461 725 379 q 712 617 725 543 q 670 748 699 692 q 597 838 642 804 q 490 871 553 871 q 383 838 428 871 q 308 748 338 804 q 266 617 279 692 q 253 461 253 543 m 490 944 q 651 914 574 944 q 790 823 729 883 q 886 672 850 763 q 922 461 922 581 q 886 253 922 344 q 790 101 850 163 q 651 8 729 40 q 490 -24 574 -24 q 328 7 407 -24 q 190 99 250 38 q 93 250 129 160 q 57 461 57 340 q 93 668 57 578 q 190 820 129 758 q 328 913 250 882 q 490 944 407 944 m 301 975 l 268 1017 l 463 1201 l 532 1201 l 726 1017 l 693 975 l 497 1086 l 301 975 m 696 1104 l 660 1144 l 713 1218 q 758 1270 736 1257 q 799 1283 779 1283 q 838 1267 822 1283 q 854 1228 854 1251 q 838 1184 854 1204 q 778 1143 822 1164 l 696 1104 z "},"Ộ":{"ha":978,"x_min":57,"x_max":922,"o":"m 253 461 q 266 305 253 379 q 308 174 279 231 q 383 85 338 118 q 490 51 428 51 q 597 85 553 51 q 670 174 642 118 q 712 305 699 231 q 725 461 725 379 q 712 617 725 543 q 670 748 699 692 q 597 838 642 804 q 490 871 553 871 q 383 838 428 871 q 308 748 338 804 q 266 617 279 692 q 253 461 253 543 m 490 944 q 651 914 574 944 q 790 823 729 883 q 886 672 850 763 q 922 461 922 581 q 886 253 922 344 q 790 101 850 163 q 651 8 729 40 q 490 -24 574 -24 q 328 7 407 -24 q 190 99 250 38 q 93 250 129 160 q 57 461 57 340 q 93 668 57 578 q 190 820 129 758 q 328 913 250 882 q 490 944 407 944 m 525 1201 l 719 1017 l 686 975 l 490 1086 l 294 975 l 261 1017 l 456 1201 l 525 1201 m 489 -296 q 414 -269 444 -296 q 383 -197 383 -242 q 414 -125 383 -153 q 489 -97 444 -97 q 564 -125 533 -97 q 594 -197 594 -153 q 564 -269 594 -242 q 489 -296 533 -296 z "},"Ồ":{"ha":978,"x_min":57,"x_max":922,"o":"m 253 461 q 266 305 253 379 q 308 174 279 231 q 383 85 338 118 q 490 51 428 51 q 597 85 553 51 q 670 174 642 118 q 712 305 699 231 q 725 461 725 379 q 712 617 725 543 q 670 748 699 692 q 597 838 642 804 q 490 871 553 871 q 383 838 428 871 q 308 748 338 804 q 266 617 279 692 q 253 461 253 543 m 490 944 q 651 914 574 944 q 790 823 729 883 q 886 672 850 763 q 922 461 922 581 q 886 253 922 344 q 790 101 850 163 q 651 8 729 40 q 490 -24 574 -24 q 328 7 407 -24 q 190 99 250 38 q 93 250 129 160 q 57 461 57 340 q 93 668 57 578 q 190 820 129 758 q 328 913 250 882 q 490 944 407 944 m 685 975 l 489 1086 l 293 975 l 260 1017 l 454 1201 l 524 1201 l 718 1017 l 685 975 m 282 1106 l 200 1143 q 139 1183 156 1163 q 122 1228 122 1204 q 138 1267 122 1251 q 178 1283 154 1283 q 219 1270 197 1283 q 265 1218 242 1257 l 318 1147 l 282 1106 z "},"Ổ":{"ha":978,"x_min":57,"x_max":922,"o":"m 253 461 q 266 305 253 379 q 308 174 279 231 q 383 85 338 118 q 490 51 428 51 q 597 85 553 51 q 670 174 642 118 q 712 305 699 231 q 725 461 725 379 q 712 617 725 543 q 670 748 699 692 q 597 838 642 804 q 490 871 553 871 q 383 838 428 871 q 308 748 338 804 q 266 617 279 692 q 253 461 253 543 m 490 944 q 651 914 574 944 q 790 823 729 883 q 886 672 850 763 q 922 461 922 581 q 886 253 922 344 q 790 101 850 163 q 651 8 729 40 q 490 -24 574 -24 q 328 7 407 -24 q 190 99 250 38 q 93 250 129 160 q 57 461 57 340 q 93 668 57 578 q 190 820 129 758 q 328 913 250 882 q 490 944 407 944 m 293 975 l 260 1017 l 454 1201 l 524 1201 l 718 1017 l 685 975 l 489 1086 l 293 975 m 658 1144 q 717 1165 701 1154 q 732 1189 732 1175 q 706 1217 732 1206 q 618 1233 679 1228 l 631 1349 q 819 1214 819 1332 q 781 1134 819 1165 q 671 1094 742 1103 l 658 1144 z "},"Ỗ":{"ha":978,"x_min":57,"x_max":922,"o":"m 253 461 q 266 305 253 379 q 308 174 279 231 q 383 85 338 118 q 490 51 428 51 q 597 85 553 51 q 670 174 642 118 q 712 305 699 231 q 725 461 725 379 q 712 617 725 543 q 670 748 699 692 q 597 838 642 804 q 490 871 553 871 q 383 838 428 871 q 308 748 338 804 q 266 617 279 692 q 253 461 253 543 m 490 944 q 651 914 574 944 q 790 823 729 883 q 886 672 850 763 q 922 461 922 581 q 886 253 922 344 q 790 101 850 163 q 651 8 729 40 q 490 -24 574 -24 q 328 7 407 -24 q 190 99 250 38 q 93 250 129 160 q 57 461 57 340 q 93 668 57 578 q 190 820 129 758 q 328 913 250 882 q 490 944 407 944 m 290 968 l 260 1010 l 454 1161 l 524 1161 l 718 1010 l 688 968 l 489 1058 l 290 968 m 253 1208 q 299 1311 263 1274 q 393 1349 336 1349 q 453 1340 429 1349 q 500 1321 478 1331 q 544 1301 522 1310 q 594 1292 567 1292 q 681 1353 654 1292 l 725 1335 q 678 1232 714 1269 q 588 1194 643 1194 q 525 1203 551 1194 q 478 1224 499 1213 q 433 1243 456 1235 q 383 1251 411 1251 q 297 1192 324 1251 l 253 1208 z "},"Ọ":{"ha":978,"x_min":57,"x_max":922,"o":"m 253 461 q 266 305 253 379 q 308 174 279 231 q 383 85 338 118 q 490 51 428 51 q 597 85 553 51 q 670 174 642 118 q 712 305 699 231 q 725 461 725 379 q 712 617 725 543 q 670 748 699 692 q 597 838 642 804 q 490 871 553 871 q 383 838 428 871 q 308 748 338 804 q 266 617 279 692 q 253 461 253 543 m 490 944 q 651 914 574 944 q 790 823 729 883 q 886 672 850 763 q 922 461 922 581 q 886 253 922 344 q 790 101 850 163 q 651 8 729 40 q 490 -24 574 -24 q 328 7 407 -24 q 190 99 250 38 q 93 250 129 160 q 57 461 57 340 q 93 668 57 578 q 190 820 129 758 q 328 913 250 882 q 490 944 407 944 m 489 -296 q 414 -269 444 -296 q 383 -197 383 -242 q 414 -125 383 -153 q 489 -97 444 -97 q 564 -125 533 -97 q 594 -197 594 -153 q 564 -269 594 -242 q 489 -296 533 -296 z "},"Ỏ":{"ha":978,"x_min":57,"x_max":922,"o":"m 253 461 q 266 305 253 379 q 308 174 279 231 q 383 85 338 118 q 490 51 428 51 q 597 85 553 51 q 670 174 642 118 q 712 305 699 231 q 725 461 725 379 q 712 617 725 543 q 670 748 699 692 q 597 838 642 804 q 490 871 553 871 q 383 838 428 871 q 308 748 338 804 q 266 617 279 692 q 253 461 253 543 m 490 944 q 651 914 574 944 q 790 823 729 883 q 886 672 850 763 q 922 461 922 581 q 886 253 922 344 q 790 101 850 163 q 651 8 729 40 q 490 -24 574 -24 q 328 7 407 -24 q 190 99 250 38 q 93 250 129 160 q 57 461 57 340 q 93 668 57 578 q 190 820 129 758 q 328 913 250 882 q 490 944 407 944 m 460 990 l 447 1040 q 506 1058 490 1049 q 521 1083 521 1068 q 494 1111 521 1101 q 406 1126 468 1121 l 419 1242 q 607 1108 607 1226 q 569 1029 607 1060 q 460 990 531 999 z "},"Ơ":{"ha":978,"x_min":57,"x_max":922,"o":"m 253 461 q 266 305 253 379 q 308 174 279 231 q 383 85 338 118 q 490 51 428 51 q 597 85 553 51 q 670 174 642 118 q 712 305 699 231 q 725 461 725 379 q 712 617 725 543 q 670 748 699 692 q 597 838 642 804 q 490 871 553 871 q 383 838 428 871 q 308 748 338 804 q 266 617 279 692 q 253 461 253 543 m 490 944 q 651 914 574 944 q 790 823 729 883 q 886 672 850 763 q 922 461 922 581 q 886 253 922 344 q 790 101 850 163 q 651 8 729 40 q 490 -24 574 -24 q 328 7 407 -24 q 190 99 250 38 q 93 250 129 160 q 57 461 57 340 q 93 668 57 578 q 190 820 129 758 q 328 913 250 882 q 490 944 407 944 m 699 783 l 692 832 q 788 866 754 842 q 822 933 822 890 q 816 963 822 950 q 802 990 810 976 q 788 1017 794 1003 q 782 1049 782 1031 q 800 1090 782 1071 q 847 1108 818 1108 q 876 1105 863 1108 q 904 1089 890 1101 q 919 1049 915 1068 q 922 1008 922 1029 q 904 920 922 960 q 856 851 886 881 q 785 805 826 822 q 699 783 744 788 z "},"Ớ":{"ha":978,"x_min":57,"x_max":922,"o":"m 253 461 q 266 305 253 379 q 308 174 279 231 q 383 85 338 118 q 490 51 428 51 q 597 85 553 51 q 670 174 642 118 q 712 305 699 231 q 725 461 725 379 q 712 617 725 543 q 670 748 699 692 q 597 838 642 804 q 490 871 553 871 q 383 838 428 871 q 308 748 338 804 q 266 617 279 692 q 253 461 253 543 m 490 944 q 651 914 574 944 q 790 823 729 883 q 886 672 850 763 q 922 461 922 581 q 886 253 922 344 q 790 101 850 163 q 651 8 729 40 q 490 -24 574 -24 q 328 7 407 -24 q 190 99 250 38 q 93 250 129 160 q 57 461 57 340 q 93 668 57 578 q 190 820 129 758 q 328 913 250 882 q 490 944 407 944 m 699 783 l 692 832 q 788 866 754 842 q 822 933 822 890 q 816 963 822 950 q 802 990 810 976 q 788 1017 794 1003 q 782 1049 782 1031 q 800 1090 782 1071 q 847 1108 818 1108 q 876 1105 863 1108 q 904 1089 890 1101 q 919 1049 915 1068 q 922 1008 922 1029 q 904 920 922 960 q 856 851 886 881 q 785 805 826 822 q 699 783 744 788 m 386 1029 q 457 1100 422 1065 q 528 1167 492 1135 q 581 1210 560 1199 q 622 1221 601 1221 q 668 1203 650 1221 q 686 1163 686 1186 q 672 1122 686 1143 q 613 1079 657 1101 q 515 1032 564 1056 q 418 985 467 1008 l 386 1029 z "},"Ợ":{"ha":978,"x_min":57,"x_max":922,"o":"m 253 461 q 266 305 253 379 q 308 174 279 231 q 383 85 338 118 q 490 51 428 51 q 597 85 553 51 q 670 174 642 118 q 712 305 699 231 q 725 461 725 379 q 712 617 725 543 q 670 748 699 692 q 597 838 642 804 q 490 871 553 871 q 383 838 428 871 q 308 748 338 804 q 266 617 279 692 q 253 461 253 543 m 490 944 q 651 914 574 944 q 790 823 729 883 q 886 672 850 763 q 922 461 922 581 q 886 253 922 344 q 790 101 850 163 q 651 8 729 40 q 490 -24 574 -24 q 328 7 407 -24 q 190 99 250 38 q 93 250 129 160 q 57 461 57 340 q 93 668 57 578 q 190 820 129 758 q 328 913 250 882 q 490 944 407 944 m 699 783 l 692 832 q 788 866 754 842 q 822 933 822 890 q 816 963 822 950 q 802 990 810 976 q 788 1017 794 1003 q 782 1049 782 1031 q 800 1090 782 1071 q 847 1108 818 1108 q 876 1105 863 1108 q 904 1089 890 1101 q 919 1049 915 1068 q 922 1008 922 1029 q 904 920 922 960 q 856 851 886 881 q 785 805 826 822 q 699 783 744 788 m 489 -296 q 414 -269 444 -296 q 383 -197 383 -242 q 414 -125 383 -153 q 489 -97 444 -97 q 564 -125 533 -97 q 594 -197 594 -153 q 564 -269 594 -242 q 489 -296 533 -296 z "},"Ờ":{"ha":978,"x_min":57,"x_max":922,"o":"m 253 461 q 266 305 253 379 q 308 174 279 231 q 383 85 338 118 q 490 51 428 51 q 597 85 553 51 q 670 174 642 118 q 712 305 699 231 q 725 461 725 379 q 712 617 725 543 q 670 748 699 692 q 597 838 642 804 q 490 871 553 871 q 383 838 428 871 q 308 748 338 804 q 266 617 279 692 q 253 461 253 543 m 490 944 q 651 914 574 944 q 790 823 729 883 q 886 672 850 763 q 922 461 922 581 q 886 253 922 344 q 790 101 850 163 q 651 8 729 40 q 490 -24 574 -24 q 328 7 407 -24 q 190 99 250 38 q 93 250 129 160 q 57 461 57 340 q 93 668 57 578 q 190 820 129 758 q 328 913 250 882 q 490 944 407 944 m 699 783 l 692 832 q 788 866 754 842 q 822 933 822 890 q 816 963 822 950 q 802 990 810 976 q 788 1017 794 1003 q 782 1049 782 1031 q 800 1090 782 1071 q 847 1108 818 1108 q 876 1105 863 1108 q 904 1089 890 1101 q 919 1049 915 1068 q 922 1008 922 1029 q 904 920 922 960 q 856 851 886 881 q 785 805 826 822 q 699 783 744 788 m 603 1029 l 571 985 q 474 1031 522 1008 q 378 1078 426 1054 q 318 1122 333 1100 q 303 1163 303 1143 q 321 1203 303 1186 q 367 1221 339 1221 q 408 1210 388 1221 q 461 1168 429 1199 q 532 1099 497 1133 q 603 1029 567 1065 z "},"Ở":{"ha":978,"x_min":57,"x_max":922,"o":"m 253 461 q 266 305 253 379 q 308 174 279 231 q 383 85 338 118 q 490 51 428 51 q 597 85 553 51 q 670 174 642 118 q 712 305 699 231 q 725 461 725 379 q 712 617 725 543 q 670 748 699 692 q 597 838 642 804 q 490 871 553 871 q 383 838 428 871 q 308 748 338 804 q 266 617 279 692 q 253 461 253 543 m 490 944 q 651 914 574 944 q 790 823 729 883 q 886 672 850 763 q 922 461 922 581 q 886 253 922 344 q 790 101 850 163 q 651 8 729 40 q 490 -24 574 -24 q 328 7 407 -24 q 190 99 250 38 q 93 250 129 160 q 57 461 57 340 q 93 668 57 578 q 190 820 129 758 q 328 913 250 882 q 490 944 407 944 m 699 783 l 692 832 q 788 866 754 842 q 822 933 822 890 q 816 963 822 950 q 802 990 810 976 q 788 1017 794 1003 q 782 1049 782 1031 q 800 1090 782 1071 q 847 1108 818 1108 q 876 1105 863 1108 q 904 1089 890 1101 q 919 1049 915 1068 q 922 1008 922 1029 q 904 920 922 960 q 856 851 886 881 q 785 805 826 822 q 699 783 744 788 m 454 990 l 442 1040 q 500 1058 485 1049 q 515 1083 515 1068 q 489 1111 515 1101 q 400 1126 463 1121 l 414 1242 q 601 1108 601 1226 q 563 1029 601 1060 q 454 990 525 999 z "},"Ỡ":{"ha":978,"x_min":57,"x_max":922,"o":"m 253 461 q 266 305 253 379 q 308 174 279 231 q 383 85 338 118 q 490 51 428 51 q 597 85 553 51 q 670 174 642 118 q 712 305 699 231 q 725 461 725 379 q 712 617 725 543 q 670 748 699 692 q 597 838 642 804 q 490 871 553 871 q 383 838 428 871 q 308 748 338 804 q 266 617 279 692 q 253 461 253 543 m 490 944 q 651 914 574 944 q 790 823 729 883 q 886 672 850 763 q 922 461 922 581 q 886 253 922 344 q 790 101 850 163 q 651 8 729 40 q 490 -24 574 -24 q 328 7 407 -24 q 190 99 250 38 q 93 250 129 160 q 57 461 57 340 q 93 668 57 578 q 190 820 129 758 q 328 913 250 882 q 490 944 407 944 m 699 783 l 692 832 q 788 866 754 842 q 822 933 822 890 q 816 963 822 950 q 802 990 810 976 q 788 1017 794 1003 q 782 1049 782 1031 q 800 1090 782 1071 q 847 1108 818 1108 q 876 1105 863 1108 q 904 1089 890 1101 q 919 1049 915 1068 q 922 1008 922 1029 q 904 920 922 960 q 856 851 886 881 q 785 805 826 822 q 699 783 744 788 m 231 1010 q 282 1147 243 1097 q 383 1196 321 1196 q 444 1183 419 1196 q 492 1153 468 1169 q 539 1116 515 1135 q 592 1097 563 1097 q 647 1124 625 1097 q 683 1194 668 1150 l 733 1176 q 683 1040 721 1090 q 583 990 646 990 q 521 1003 547 990 q 472 1033 494 1017 q 425 1070 449 1051 q 372 1089 401 1089 q 318 1063 340 1089 q 281 992 296 1036 l 231 1010 z "},"Ø":{"ha":978,"x_min":57,"x_max":922,"o":"m 901 904 l 814 796 q 893 652 864 735 q 922 461 922 569 q 886 253 922 344 q 790 101 850 163 q 651 8 729 40 q 490 -24 574 -24 q 349 -1 417 -24 q 224 68 281 22 l 138 -37 l 69 18 l 161 131 q 85 274 113 192 q 57 461 57 356 q 93 668 57 578 q 190 820 129 758 q 328 913 250 882 q 490 944 407 944 q 627 923 561 944 q 750 857 693 901 l 833 960 l 901 904 m 253 461 q 274 269 253 357 l 667 754 q 595 840 639 808 q 490 871 551 871 q 383 838 428 871 q 308 748 338 804 q 266 617 279 692 q 253 461 253 543 m 490 51 q 597 85 553 51 q 670 174 642 118 q 712 305 699 231 q 725 461 725 379 q 719 565 725 514 q 703 660 714 615 l 308 174 q 383 84 338 117 q 490 51 428 51 z "},"Œ":{"ha":1297,"x_min":57,"x_max":1256,"o":"m 253 461 q 270 301 253 376 q 324 171 288 226 q 416 83 360 115 q 550 51 472 51 q 594 53 574 51 q 635 58 615 54 q 638 243 638 150 q 638 431 638 336 l 638 490 q 638 676 638 583 q 635 863 638 769 q 551 871 594 871 q 417 839 474 871 q 324 751 360 807 q 270 621 288 696 q 253 461 253 546 m 1160 243 l 1256 243 l 1246 0 l 721 0 q 626 -17 672 -11 q 536 -24 579 -24 q 351 7 438 -24 q 199 99 264 38 q 95 251 133 160 q 57 461 57 342 q 95 671 57 581 q 199 822 133 761 q 351 914 264 883 q 536 944 438 944 q 721 921 618 944 l 1218 921 l 1228 678 l 1132 678 l 1101 847 l 821 847 q 818 673 818 760 q 818 510 818 586 l 996 510 l 1014 631 l 1086 631 l 1086 317 l 1014 317 l 997 436 l 818 436 q 818 248 818 336 q 821 74 818 160 l 1129 74 l 1160 243 z "},"Ŕ":{"ha":925,"x_min":54,"x_max":913,"o":"m 174 431 l 174 490 q 174 666 174 578 q 171 843 174 754 l 54 856 l 54 921 l 472 921 q 724 859 636 921 q 811 685 811 797 q 798 610 811 647 q 756 543 785 574 q 681 490 726 513 q 571 457 635 467 q 701 395 658 442 q 763 258 743 349 l 806 76 l 913 65 l 913 0 q 852 -13 878 -10 q 786 -17 826 -17 q 667 8 708 -17 q 614 97 625 32 l 574 290 q 522 397 558 368 q 411 425 485 425 l 351 425 q 351 246 351 331 q 354 78 351 161 l 472 65 l 472 0 l 54 0 l 54 65 l 171 78 q 174 253 174 165 q 174 431 174 340 m 443 850 l 354 850 q 351 672 351 761 q 351 494 351 583 l 432 494 q 524 508 486 494 q 587 547 563 522 q 622 606 611 572 q 633 676 633 639 q 443 850 633 850 m 382 1028 q 453 1099 418 1064 q 524 1165 488 1133 q 576 1208 556 1197 q 618 1219 597 1219 q 664 1202 646 1219 q 682 1161 682 1185 q 667 1121 682 1142 q 608 1078 653 1100 q 511 1031 560 1054 q 414 983 463 1007 l 382 1028 z "},"Ř":{"ha":925,"x_min":54,"x_max":913,"o":"m 174 431 l 174 490 q 174 666 174 578 q 171 843 174 754 l 54 856 l 54 921 l 472 921 q 724 859 636 921 q 811 685 811 797 q 798 610 811 647 q 756 543 785 574 q 681 490 726 513 q 571 457 635 467 q 701 395 658 442 q 763 258 743 349 l 806 76 l 913 65 l 913 0 q 852 -13 878 -10 q 786 -17 826 -17 q 667 8 708 -17 q 614 97 625 32 l 574 290 q 522 397 558 368 q 411 425 485 425 l 351 425 q 351 246 351 331 q 354 78 351 161 l 472 65 l 472 0 l 54 0 l 54 65 l 171 78 q 174 253 174 165 q 174 431 174 340 m 443 850 l 354 850 q 351 672 351 761 q 351 494 351 583 l 432 494 q 524 508 486 494 q 587 547 563 522 q 622 606 611 572 q 633 676 633 639 q 443 850 633 850 m 279 1217 l 454 1096 l 629 1217 l 669 1181 l 510 997 l 399 997 l 240 1181 l 279 1217 z "},"Ŗ":{"ha":925,"x_min":54,"x_max":913,"o":"m 174 431 l 174 490 q 174 666 174 578 q 171 843 174 754 l 54 856 l 54 921 l 472 921 q 724 859 636 921 q 811 685 811 797 q 798 610 811 647 q 756 543 785 574 q 681 490 726 513 q 571 457 635 467 q 701 395 658 442 q 763 258 743 349 l 806 76 l 913 65 l 913 0 q 852 -13 878 -10 q 786 -17 826 -17 q 667 8 708 -17 q 614 97 625 32 l 574 290 q 522 397 558 368 q 411 425 485 425 l 351 425 q 351 246 351 331 q 354 78 351 161 l 472 65 l 472 0 l 54 0 l 54 65 l 171 78 q 174 253 174 165 q 174 431 174 340 m 443 850 l 354 850 q 351 672 351 761 q 351 494 351 583 l 432 494 q 524 508 486 494 q 587 547 563 522 q 622 606 611 572 q 633 676 633 639 q 443 850 633 850 m 586 -158 q 570 -224 586 -194 q 528 -277 554 -253 q 465 -319 501 -301 q 390 -350 429 -337 l 372 -304 q 440 -272 413 -289 q 492 -226 468 -254 q 440 -187 460 -211 q 421 -133 421 -164 q 444 -82 421 -101 q 500 -62 468 -62 q 537 -69 519 -62 q 574 -90 554 -75 q 583 -127 581 -111 q 586 -158 586 -143 z "},"Ṛ":{"ha":925,"x_min":54,"x_max":913,"o":"m 174 431 l 174 490 q 174 666 174 578 q 171 843 174 754 l 54 856 l 54 921 l 472 921 q 724 859 636 921 q 811 685 811 797 q 798 610 811 647 q 756 543 785 574 q 681 490 726 513 q 571 457 635 467 q 701 395 658 442 q 763 258 743 349 l 806 76 l 913 65 l 913 0 q 852 -13 878 -10 q 786 -17 826 -17 q 667 8 708 -17 q 614 97 625 32 l 574 290 q 522 397 558 368 q 411 425 485 425 l 351 425 q 351 246 351 331 q 354 78 351 161 l 472 65 l 472 0 l 54 0 l 54 65 l 171 78 q 174 253 174 165 q 174 431 174 340 m 443 850 l 354 850 q 351 672 351 761 q 351 494 351 583 l 432 494 q 524 508 486 494 q 587 547 563 522 q 622 606 611 572 q 633 676 633 639 q 443 850 633 850 m 504 -296 q 429 -269 460 -296 q 399 -197 399 -242 q 429 -125 399 -153 q 504 -97 460 -97 q 579 -125 549 -97 q 610 -197 610 -153 q 579 -269 610 -242 q 504 -296 549 -296 z "},"Ṝ":{"ha":925,"x_min":54,"x_max":913,"o":"m 174 431 l 174 490 q 174 666 174 578 q 171 843 174 754 l 54 856 l 54 921 l 472 921 q 724 859 636 921 q 811 685 811 797 q 798 610 811 647 q 756 543 785 574 q 681 490 726 513 q 571 457 635 467 q 701 395 658 442 q 763 258 743 349 l 806 76 l 913 65 l 913 0 q 852 -13 878 -10 q 786 -17 826 -17 q 667 8 708 -17 q 614 97 625 32 l 574 290 q 522 397 558 368 q 411 425 485 425 l 351 425 q 351 246 351 331 q 354 78 351 161 l 472 65 l 472 0 l 54 0 l 54 65 l 171 78 q 174 253 174 165 q 174 431 174 340 m 443 850 l 354 850 q 351 672 351 761 q 351 494 351 583 l 432 494 q 524 508 486 494 q 587 547 563 522 q 622 606 611 572 q 633 676 633 639 q 443 850 633 850 m 504 -296 q 429 -269 460 -296 q 399 -197 399 -242 q 429 -125 399 -153 q 504 -97 460 -97 q 579 -125 549 -97 q 610 -197 610 -153 q 579 -269 610 -242 q 504 -296 549 -296 m 250 1033 l 250 1139 l 683 1139 l 683 1033 l 250 1033 z "},"Ṟ":{"ha":925,"x_min":54,"x_max":913,"o":"m 174 431 l 174 490 q 174 666 174 578 q 171 843 174 754 l 54 856 l 54 921 l 472 921 q 724 859 636 921 q 811 685 811 797 q 798 610 811 647 q 756 543 785 574 q 681 490 726 513 q 571 457 635 467 q 701 395 658 442 q 763 258 743 349 l 806 76 l 913 65 l 913 0 q 852 -13 878 -10 q 786 -17 826 -17 q 667 8 708 -17 q 614 97 625 32 l 574 290 q 522 397 558 368 q 411 425 485 425 l 351 425 q 351 246 351 331 q 354 78 351 161 l 472 65 l 472 0 l 54 0 l 54 65 l 171 78 q 174 253 174 165 q 174 431 174 340 m 443 850 l 354 850 q 351 672 351 761 q 351 494 351 583 l 432 494 q 524 508 486 494 q 587 547 563 522 q 622 606 611 572 q 633 676 633 639 q 443 850 633 850 m 289 -256 l 289 -151 l 689 -151 l 689 -256 l 289 -256 z "},"Ś":{"ha":731,"x_min":51,"x_max":682,"o":"m 335 53 q 471 93 422 53 q 519 203 519 133 q 511 256 519 233 q 485 298 503 279 q 439 333 467 317 q 374 364 411 349 l 317 388 q 213 440 260 413 q 135 503 167 468 q 85 583 103 539 q 68 682 68 626 q 92 792 68 743 q 160 874 117 840 q 263 926 203 908 q 397 944 324 944 q 531 925 469 944 q 642 872 593 906 l 632 685 l 526 685 l 499 846 q 394 868 450 868 q 276 831 324 868 q 228 726 228 794 q 265 628 228 665 q 371 564 301 592 l 431 539 q 624 416 565 482 q 682 249 682 350 q 658 137 682 188 q 590 51 635 86 q 481 -4 544 15 q 336 -24 417 -24 q 181 -4 257 -24 q 51 50 106 15 l 60 250 l 167 250 l 194 82 q 260 60 226 67 q 335 53 293 53 m 308 1029 q 379 1100 344 1065 q 450 1167 414 1135 q 503 1210 482 1199 q 544 1221 524 1221 q 590 1203 572 1221 q 608 1163 608 1186 q 594 1122 608 1143 q 535 1079 579 1101 q 438 1032 486 1056 q 340 985 389 1008 l 308 1029 z "},"Š":{"ha":731,"x_min":51,"x_max":682,"o":"m 335 53 q 471 93 422 53 q 519 203 519 133 q 511 256 519 233 q 485 298 503 279 q 439 333 467 317 q 374 364 411 349 l 317 388 q 213 440 260 413 q 135 503 167 468 q 85 583 103 539 q 68 682 68 626 q 92 792 68 743 q 160 874 117 840 q 263 926 203 908 q 397 944 324 944 q 531 925 469 944 q 642 872 593 906 l 632 685 l 526 685 l 499 846 q 394 868 450 868 q 276 831 324 868 q 228 726 228 794 q 265 628 228 665 q 371 564 301 592 l 431 539 q 624 416 565 482 q 682 249 682 350 q 658 137 682 188 q 590 51 635 86 q 481 -4 544 15 q 336 -24 417 -24 q 181 -4 257 -24 q 51 50 106 15 l 60 250 l 167 250 l 194 82 q 260 60 226 67 q 335 53 293 53 m 218 1222 l 393 1101 l 568 1222 l 608 1186 l 449 1003 l 338 1003 l 179 1186 l 218 1222 z "},"Ş":{"ha":731,"x_min":51,"x_max":682,"o":"m 335 53 q 471 93 422 53 q 519 203 519 133 q 511 256 519 233 q 485 298 503 279 q 439 333 467 317 q 374 364 411 349 l 317 388 q 213 440 260 413 q 135 503 167 468 q 85 583 103 539 q 68 682 68 626 q 92 792 68 743 q 160 874 117 840 q 263 926 203 908 q 397 944 324 944 q 531 925 469 944 q 642 872 593 906 l 632 685 l 526 685 l 499 846 q 394 868 450 868 q 276 831 324 868 q 228 726 228 794 q 265 628 228 665 q 371 564 301 592 l 431 539 q 624 416 565 482 q 682 249 682 350 q 658 137 682 188 q 590 51 635 86 q 481 -4 544 15 q 336 -24 417 -24 q 181 -4 257 -24 q 51 50 106 15 l 60 250 l 167 250 l 194 82 q 260 60 226 67 q 335 53 293 53 m 319 -121 l 338 6 l 400 6 l 390 -76 q 488 -117 453 -87 q 522 -192 522 -146 q 479 -276 522 -243 q 351 -310 436 -310 q 297 -305 319 -310 q 254 -293 274 -300 l 267 -240 q 336 -249 301 -249 q 394 -233 376 -249 q 413 -190 413 -217 q 390 -143 413 -158 q 319 -121 367 -128 z "},"Ș":{"ha":731,"x_min":51,"x_max":682,"o":"m 335 53 q 471 93 422 53 q 519 203 519 133 q 511 256 519 233 q 485 298 503 279 q 439 333 467 317 q 374 364 411 349 l 317 388 q 213 440 260 413 q 135 503 167 468 q 85 583 103 539 q 68 682 68 626 q 92 792 68 743 q 160 874 117 840 q 263 926 203 908 q 397 944 324 944 q 531 925 469 944 q 642 872 593 906 l 632 685 l 526 685 l 499 846 q 394 868 450 868 q 276 831 324 868 q 228 726 228 794 q 265 628 228 665 q 371 564 301 592 l 431 539 q 624 416 565 482 q 682 249 682 350 q 658 137 682 188 q 590 51 635 86 q 481 -4 544 15 q 336 -24 417 -24 q 181 -4 257 -24 q 51 50 106 15 l 60 250 l 167 250 l 194 82 q 260 60 226 67 q 335 53 293 53 m 454 -167 q 438 -232 454 -203 q 396 -285 422 -261 q 333 -328 369 -310 q 258 -358 297 -346 l 240 -312 q 308 -280 281 -297 q 360 -235 336 -262 q 308 -196 328 -219 q 289 -142 289 -172 q 313 -90 289 -110 q 368 -71 336 -71 q 405 -77 388 -71 q 442 -99 422 -83 q 451 -135 449 -119 q 454 -167 454 -151 z "},"Ŝ":{"ha":731,"x_min":51,"x_max":682,"o":"m 335 53 q 471 93 422 53 q 519 203 519 133 q 511 256 519 233 q 485 298 503 279 q 439 333 467 317 q 374 364 411 349 l 317 388 q 213 440 260 413 q 135 503 167 468 q 85 583 103 539 q 68 682 68 626 q 92 792 68 743 q 160 874 117 840 q 263 926 203 908 q 397 944 324 944 q 531 925 469 944 q 642 872 593 906 l 632 685 l 526 685 l 499 846 q 394 868 450 868 q 276 831 324 868 q 228 726 228 794 q 265 628 228 665 q 371 564 301 592 l 431 539 q 624 416 565 482 q 682 249 682 350 q 658 137 682 188 q 590 51 635 86 q 481 -4 544 15 q 336 -24 417 -24 q 181 -4 257 -24 q 51 50 106 15 l 60 250 l 167 250 l 194 82 q 260 60 226 67 q 335 53 293 53 m 417 1201 l 611 1017 l 578 975 l 382 1086 l 186 975 l 153 1017 l 347 1201 l 417 1201 z "},"Ṡ":{"ha":731,"x_min":51,"x_max":682,"o":"m 335 53 q 471 93 422 53 q 519 203 519 133 q 511 256 519 233 q 485 298 503 279 q 439 333 467 317 q 374 364 411 349 l 317 388 q 213 440 260 413 q 135 503 167 468 q 85 583 103 539 q 68 682 68 626 q 92 792 68 743 q 160 874 117 840 q 263 926 203 908 q 397 944 324 944 q 531 925 469 944 q 642 872 593 906 l 632 685 l 526 685 l 499 846 q 394 868 450 868 q 276 831 324 868 q 228 726 228 794 q 265 628 228 665 q 371 564 301 592 l 431 539 q 624 416 565 482 q 682 249 682 350 q 658 137 682 188 q 590 51 635 86 q 481 -4 544 15 q 336 -24 417 -24 q 181 -4 257 -24 q 51 50 106 15 l 60 250 l 167 250 l 194 82 q 260 60 226 67 q 335 53 293 53 m 388 1004 q 313 1032 343 1004 q 282 1104 282 1060 q 313 1176 282 1149 q 388 1203 343 1203 q 463 1176 432 1203 q 493 1104 493 1149 q 463 1032 493 1060 q 388 1004 432 1004 z "},"Ṣ":{"ha":731,"x_min":51,"x_max":682,"o":"m 335 53 q 471 93 422 53 q 519 203 519 133 q 511 256 519 233 q 485 298 503 279 q 439 333 467 317 q 374 364 411 349 l 317 388 q 213 440 260 413 q 135 503 167 468 q 85 583 103 539 q 68 682 68 626 q 92 792 68 743 q 160 874 117 840 q 263 926 203 908 q 397 944 324 944 q 531 925 469 944 q 642 872 593 906 l 632 685 l 526 685 l 499 846 q 394 868 450 868 q 276 831 324 868 q 228 726 228 794 q 265 628 228 665 q 371 564 301 592 l 431 539 q 624 416 565 482 q 682 249 682 350 q 658 137 682 188 q 590 51 635 86 q 481 -4 544 15 q 336 -24 417 -24 q 181 -4 257 -24 q 51 50 106 15 l 60 250 l 167 250 l 194 82 q 260 60 226 67 q 335 53 293 53 m 371 -296 q 296 -269 326 -296 q 265 -197 265 -242 q 296 -125 265 -153 q 371 -97 326 -97 q 446 -125 415 -97 q 476 -197 476 -153 q 446 -269 476 -242 q 371 -296 415 -296 z "},"ẞ":{"ha":992,"x_min":54,"x_max":963,"o":"m 54 0 l 54 64 l 171 76 q 174 256 174 165 q 174 436 174 347 l 174 571 q 269 856 174 768 q 572 944 364 944 q 710 928 643 944 q 832 881 778 911 l 832 836 q 741 765 771 808 q 711 658 711 721 q 731 567 711 600 q 788 504 751 535 l 831 468 q 931 354 899 410 q 963 229 963 299 q 946 138 963 183 q 895 57 929 93 q 809 -1 861 21 q 688 -24 757 -24 q 578 -8 632 -24 q 486 40 525 8 l 494 235 l 586 235 l 617 58 q 667 49 642 49 q 763 87 728 49 q 797 183 797 125 q 778 262 797 228 q 714 335 758 296 l 671 371 q 580 475 610 424 q 550 599 550 526 q 600 747 550 679 q 742 851 650 814 q 669 864 706 860 q 588 868 632 868 q 477 853 522 868 q 404 804 432 838 q 365 718 376 771 q 353 589 353 665 l 353 415 q 353 213 353 318 q 357 0 354 107 l 54 0 z "},"Ť":{"ha":858,"x_min":28,"x_max":831,"o":"m 339 431 l 339 490 q 339 668 339 579 q 336 847 339 757 l 154 847 l 125 668 l 28 668 l 36 921 l 824 921 l 831 668 l 735 668 l 706 847 l 522 847 q 519 671 519 760 q 519 490 519 582 l 519 431 q 519 255 519 343 q 522 79 519 167 l 653 65 l 653 0 l 206 0 l 206 65 l 336 79 q 339 254 339 167 q 339 431 339 342 m 254 1217 l 429 1096 l 604 1217 l 644 1181 l 485 997 l 374 997 l 215 1181 l 254 1217 z "},"Ţ":{"ha":858,"x_min":28,"x_max":831,"o":"m 339 431 l 339 490 q 339 668 339 579 q 336 847 339 757 l 154 847 l 125 668 l 28 668 l 36 921 l 824 921 l 831 668 l 735 668 l 706 847 l 522 847 q 519 671 519 760 q 519 490 519 582 l 519 431 q 519 255 519 343 q 522 79 519 167 l 653 65 l 653 0 l 206 0 l 206 65 l 336 79 q 339 254 339 167 q 339 431 339 342 m 379 -121 l 397 6 l 460 6 l 450 -76 q 547 -117 513 -87 q 582 -192 582 -146 q 539 -276 582 -243 q 411 -310 496 -310 q 356 -305 379 -310 q 314 -293 333 -300 l 326 -240 q 396 -249 361 -249 q 454 -233 436 -249 q 472 -190 472 -217 q 449 -143 472 -158 q 379 -121 426 -128 z "},"Ț":{"ha":858,"x_min":28,"x_max":831,"o":"m 339 431 l 339 490 q 339 668 339 579 q 336 847 339 757 l 154 847 l 125 668 l 28 668 l 36 921 l 824 921 l 831 668 l 735 668 l 706 847 l 522 847 q 519 671 519 760 q 519 490 519 582 l 519 431 q 519 255 519 343 q 522 79 519 167 l 653 65 l 653 0 l 206 0 l 206 65 l 336 79 q 339 254 339 167 q 339 431 339 342 m 524 -167 q 508 -232 524 -203 q 465 -285 492 -261 q 403 -328 439 -310 q 328 -358 367 -346 l 310 -312 q 378 -280 350 -297 q 429 -235 406 -262 q 378 -196 397 -219 q 358 -142 358 -172 q 382 -90 358 -110 q 438 -71 406 -71 q 474 -77 457 -71 q 511 -99 492 -83 q 521 -135 518 -119 q 524 -167 524 -151 z "},"Ṭ":{"ha":858,"x_min":28,"x_max":831,"o":"m 339 431 l 339 490 q 339 668 339 579 q 336 847 339 757 l 154 847 l 125 668 l 28 668 l 36 921 l 824 921 l 831 668 l 735 668 l 706 847 l 522 847 q 519 671 519 760 q 519 490 519 582 l 519 431 q 519 255 519 343 q 522 79 519 167 l 653 65 l 653 0 l 206 0 l 206 65 l 336 79 q 339 254 339 167 q 339 431 339 342 m 431 -296 q 356 -269 386 -296 q 325 -197 325 -242 q 356 -125 325 -153 q 431 -97 386 -97 q 506 -125 475 -97 q 536 -197 536 -153 q 506 -269 536 -242 q 431 -296 475 -296 z "},"Ṯ":{"ha":858,"x_min":28,"x_max":831,"o":"m 339 431 l 339 490 q 339 668 339 579 q 336 847 339 757 l 154 847 l 125 668 l 28 668 l 36 921 l 824 921 l 831 668 l 735 668 l 706 847 l 522 847 q 519 671 519 760 q 519 490 519 582 l 519 431 q 519 255 519 343 q 522 79 519 167 l 653 65 l 653 0 l 206 0 l 206 65 l 336 79 q 339 254 339 167 q 339 431 339 342 m 231 -256 l 231 -151 l 631 -151 l 631 -256 l 231 -256 z "},"Ù":{"ha":1013,"x_min":47,"x_max":971,"o":"m 339 390 q 353 248 339 306 q 395 155 368 190 q 462 104 422 119 q 553 89 501 89 q 647 106 606 89 q 715 161 688 124 q 758 258 743 199 q 772 404 772 318 l 772 840 l 638 856 l 638 921 l 971 921 l 971 856 l 853 842 l 853 386 q 828 199 853 276 q 757 72 803 121 q 647 -1 711 22 q 504 -24 583 -24 q 365 -3 428 -24 q 256 63 301 18 q 184 178 210 107 q 158 347 158 249 l 158 499 q 158 671 158 585 q 156 844 158 757 l 47 856 l 47 921 l 469 921 l 469 856 l 342 842 q 339 672 339 757 q 339 499 339 586 l 339 390 m 624 1019 l 592 975 q 495 1022 543 999 q 399 1068 447 1044 q 339 1112 354 1090 q 324 1153 324 1133 q 342 1194 324 1176 q 388 1211 360 1211 q 429 1200 408 1211 q 482 1158 450 1189 q 553 1090 518 1124 q 624 1019 588 1056 z "},"Ú":{"ha":1013,"x_min":47,"x_max":971,"o":"m 339 390 q 353 248 339 306 q 395 155 368 190 q 462 104 422 119 q 553 89 501 89 q 647 106 606 89 q 715 161 688 124 q 758 258 743 199 q 772 404 772 318 l 772 840 l 638 856 l 638 921 l 971 921 l 971 856 l 853 842 l 853 386 q 828 199 853 276 q 757 72 803 121 q 647 -1 711 22 q 504 -24 583 -24 q 365 -3 428 -24 q 256 63 301 18 q 184 178 210 107 q 158 347 158 249 l 158 499 q 158 671 158 585 q 156 844 158 757 l 47 856 l 47 921 l 469 921 l 469 856 l 342 842 q 339 672 339 757 q 339 499 339 586 l 339 390 m 449 1019 q 519 1090 485 1056 q 590 1157 554 1125 q 643 1200 622 1189 q 685 1211 664 1211 q 731 1194 713 1211 q 749 1153 749 1176 q 734 1113 749 1133 q 675 1069 719 1092 q 578 1022 626 1046 q 481 975 529 999 l 449 1019 z "},"Û":{"ha":1013,"x_min":47,"x_max":971,"o":"m 339 390 q 353 248 339 306 q 395 155 368 190 q 462 104 422 119 q 553 89 501 89 q 647 106 606 89 q 715 161 688 124 q 758 258 743 199 q 772 404 772 318 l 772 840 l 638 856 l 638 921 l 971 921 l 971 856 l 853 842 l 853 386 q 828 199 853 276 q 757 72 803 121 q 647 -1 711 22 q 504 -24 583 -24 q 365 -3 428 -24 q 256 63 301 18 q 184 178 210 107 q 158 347 158 249 l 158 499 q 158 671 158 585 q 156 844 158 757 l 47 856 l 47 921 l 469 921 l 469 856 l 342 842 q 339 672 339 757 q 339 499 339 586 l 339 390 m 582 1193 l 776 1008 l 743 967 l 547 1078 l 351 967 l 318 1008 l 513 1193 l 582 1193 z "},"Ü":{"ha":1013,"x_min":47,"x_max":971,"o":"m 339 390 q 353 248 339 306 q 395 155 368 190 q 462 104 422 119 q 553 89 501 89 q 647 106 606 89 q 715 161 688 124 q 758 258 743 199 q 772 404 772 318 l 772 840 l 638 856 l 638 921 l 971 921 l 971 856 l 853 842 l 853 386 q 828 199 853 276 q 757 72 803 121 q 647 -1 711 22 q 504 -24 583 -24 q 365 -3 428 -24 q 256 63 301 18 q 184 178 210 107 q 158 347 158 249 l 158 499 q 158 671 158 585 q 156 844 158 757 l 47 856 l 47 921 l 469 921 l 469 856 l 342 842 q 339 672 339 757 q 339 499 339 586 l 339 390 m 394 1013 q 331 1036 358 1013 q 304 1099 304 1060 q 331 1161 304 1138 q 394 1185 358 1185 q 458 1161 431 1185 q 485 1099 485 1138 q 458 1036 485 1060 q 394 1013 431 1013 m 721 1013 q 658 1036 685 1013 q 632 1099 632 1060 q 658 1161 632 1138 q 721 1185 685 1185 q 785 1161 758 1185 q 813 1099 813 1138 q 785 1036 813 1060 q 721 1013 758 1013 z "},"Ū":{"ha":1013,"x_min":47,"x_max":971,"o":"m 339 390 q 353 248 339 306 q 395 155 368 190 q 462 104 422 119 q 553 89 501 89 q 647 106 606 89 q 715 161 688 124 q 758 258 743 199 q 772 404 772 318 l 772 840 l 638 856 l 638 921 l 971 921 l 971 856 l 853 842 l 853 386 q 828 199 853 276 q 757 72 803 121 q 647 -1 711 22 q 504 -24 583 -24 q 365 -3 428 -24 q 256 63 301 18 q 184 178 210 107 q 158 347 158 249 l 158 499 q 158 671 158 585 q 156 844 158 757 l 47 856 l 47 921 l 469 921 l 469 856 l 342 842 q 339 672 339 757 q 339 499 339 586 l 339 390 m 329 1033 l 329 1139 l 763 1139 l 763 1033 l 329 1033 z "},"Ů":{"ha":1013,"x_min":47,"x_max":971,"o":"m 339 390 q 353 248 339 306 q 395 155 368 190 q 462 104 422 119 q 553 89 501 89 q 647 106 606 89 q 715 161 688 124 q 758 258 743 199 q 772 404 772 318 l 772 840 l 638 856 l 638 921 l 971 921 l 971 856 l 853 842 l 853 386 q 828 199 853 276 q 757 72 803 121 q 647 -1 711 22 q 504 -24 583 -24 q 365 -3 428 -24 q 256 63 301 18 q 184 178 210 107 q 158 347 158 249 l 158 499 q 158 671 158 585 q 156 844 158 757 l 47 856 l 47 921 l 469 921 l 469 856 l 342 842 q 339 672 339 757 q 339 499 339 586 l 339 390 m 551 989 q 454 1024 496 989 q 413 1121 413 1058 q 454 1219 413 1183 q 551 1254 496 1254 q 649 1219 607 1254 q 690 1121 690 1185 q 649 1024 690 1058 q 551 989 607 989 m 551 1044 q 603 1067 585 1044 q 622 1121 622 1090 q 604 1174 622 1153 q 551 1196 586 1196 q 499 1174 518 1196 q 481 1121 481 1153 q 499 1067 481 1090 q 551 1044 517 1044 z "},"Ű":{"ha":1013,"x_min":47,"x_max":971,"o":"m 339 390 q 353 248 339 306 q 395 155 368 190 q 462 104 422 119 q 553 89 501 89 q 647 106 606 89 q 715 161 688 124 q 758 258 743 199 q 772 404 772 318 l 772 840 l 638 856 l 638 921 l 971 921 l 971 856 l 853 842 l 853 386 q 828 199 853 276 q 757 72 803 121 q 647 -1 711 22 q 504 -24 583 -24 q 365 -3 428 -24 q 256 63 301 18 q 184 178 210 107 q 158 347 158 249 l 158 499 q 158 671 158 585 q 156 844 158 757 l 47 856 l 47 921 l 469 921 l 469 856 l 342 842 q 339 672 339 757 q 339 499 339 586 l 339 390 m 399 1006 l 476 1178 q 511 1225 492 1211 q 553 1239 531 1239 q 594 1225 576 1239 q 611 1188 611 1211 q 581 1124 611 1160 l 444 976 l 399 1006 m 615 1006 l 693 1178 q 728 1225 708 1211 q 769 1239 747 1239 q 810 1225 793 1239 q 826 1188 826 1211 q 819 1158 826 1172 q 796 1124 813 1143 l 661 976 l 615 1006 z "},"Ų":{"ha":1013,"x_min":47,"x_max":971,"o":"m 47 856 l 47 921 l 469 921 l 469 856 l 342 842 q 339 671 339 756 q 339 499 339 586 l 339 390 q 353 248 339 306 q 394 155 367 190 q 460 104 421 119 q 550 89 500 89 q 646 106 604 89 q 715 161 688 124 q 758 258 743 199 q 772 404 772 318 l 772 842 l 638 856 l 638 921 l 971 921 l 971 856 l 853 842 l 853 386 q 841 254 853 313 q 808 151 829 196 q 757 74 788 107 q 689 19 726 42 q 619 -47 640 -11 q 597 -121 597 -82 q 624 -190 597 -165 q 693 -214 650 -214 q 767 -196 731 -214 l 785 -242 q 715 -293 757 -276 q 625 -310 672 -310 q 519 -274 557 -310 q 482 -181 482 -239 q 507 -90 482 -132 q 576 -19 532 -49 q 511 -24 544 -24 q 367 -3 432 -24 q 256 63 303 18 q 184 178 210 107 q 158 347 158 249 l 158 499 q 158 672 158 586 q 156 844 158 757 l 47 856 z "},"Ŭ":{"ha":1013,"x_min":47,"x_max":971,"o":"m 339 390 q 353 248 339 306 q 395 155 368 190 q 462 104 422 119 q 553 89 501 89 q 647 106 606 89 q 715 161 688 124 q 758 258 743 199 q 772 404 772 318 l 772 840 l 638 856 l 638 921 l 971 921 l 971 856 l 853 842 l 853 386 q 828 199 853 276 q 757 72 803 121 q 647 -1 711 22 q 504 -24 583 -24 q 365 -3 428 -24 q 256 63 301 18 q 184 178 210 107 q 158 347 158 249 l 158 499 q 158 671 158 585 q 156 844 158 757 l 47 856 l 47 921 l 469 921 l 469 856 l 342 842 q 339 672 339 757 q 339 499 339 586 l 339 390 m 336 1181 l 389 1201 q 448 1126 408 1154 q 550 1097 488 1097 q 651 1126 613 1097 q 711 1201 690 1154 l 764 1181 q 743 1115 758 1147 q 701 1056 728 1082 q 638 1015 675 1031 q 550 1000 600 1000 q 463 1015 500 1000 q 399 1056 425 1031 q 357 1115 372 1082 q 336 1181 342 1147 z "},"Ǔ":{"ha":1013,"x_min":47,"x_max":971,"o":"m 339 390 q 353 248 339 306 q 395 155 368 190 q 462 104 422 119 q 553 89 501 89 q 647 106 606 89 q 715 161 688 124 q 758 258 743 199 q 772 404 772 318 l 772 840 l 638 856 l 638 921 l 971 921 l 971 856 l 853 842 l 853 386 q 828 199 853 276 q 757 72 803 121 q 647 -1 711 22 q 504 -24 583 -24 q 365 -3 428 -24 q 256 63 301 18 q 184 178 210 107 q 158 347 158 249 l 158 499 q 158 671 158 585 q 156 844 158 757 l 47 856 l 47 921 l 469 921 l 469 856 l 342 842 q 339 672 339 757 q 339 499 339 586 l 339 390 m 385 1217 l 560 1096 l 735 1217 l 775 1181 l 615 997 l 504 997 l 346 1181 l 385 1217 z "},"Ǘ":{"ha":1013,"x_min":47,"x_max":971,"o":"m 339 390 q 353 248 339 306 q 395 155 368 190 q 462 104 422 119 q 553 89 501 89 q 647 106 606 89 q 715 161 688 124 q 758 258 743 199 q 772 404 772 318 l 772 840 l 638 856 l 638 921 l 971 921 l 971 856 l 853 842 l 853 386 q 828 199 853 276 q 757 72 803 121 q 647 -1 711 22 q 504 -24 583 -24 q 365 -3 428 -24 q 256 63 301 18 q 184 178 210 107 q 158 347 158 249 l 158 499 q 158 671 158 585 q 156 844 158 757 l 47 856 l 47 921 l 469 921 l 469 856 l 342 842 q 339 672 339 757 q 339 499 339 586 l 339 390 m 304 1099 q 331 1161 304 1138 q 394 1185 358 1185 q 458 1161 431 1185 q 485 1099 485 1138 q 458 1036 485 1060 q 394 1013 431 1013 q 331 1036 358 1013 q 304 1099 304 1060 m 540 1174 l 504 1218 l 601 1342 q 642 1379 622 1368 q 681 1390 661 1390 q 724 1373 707 1390 q 740 1331 740 1356 q 728 1293 740 1313 q 681 1254 715 1274 l 540 1174 m 632 1099 q 658 1161 632 1138 q 721 1185 685 1185 q 785 1161 758 1185 q 813 1099 813 1138 q 785 1036 813 1060 q 721 1013 758 1013 q 658 1036 685 1013 q 632 1099 632 1060 z "},"Ǚ":{"ha":1013,"x_min":47,"x_max":971,"o":"m 339 390 q 353 248 339 306 q 395 155 368 190 q 462 104 422 119 q 553 89 501 89 q 647 106 606 89 q 715 161 688 124 q 758 258 743 199 q 772 404 772 318 l 772 840 l 638 856 l 638 921 l 971 921 l 971 856 l 853 842 l 853 386 q 828 199 853 276 q 757 72 803 121 q 647 -1 711 22 q 504 -24 583 -24 q 365 -3 428 -24 q 256 63 301 18 q 184 178 210 107 q 158 347 158 249 l 158 499 q 158 671 158 585 q 156 844 158 757 l 47 856 l 47 921 l 469 921 l 469 856 l 342 842 q 339 672 339 757 q 339 499 339 586 l 339 390 m 394 1013 q 331 1036 358 1013 q 304 1099 304 1060 q 331 1161 304 1138 q 394 1185 358 1185 q 458 1161 431 1185 q 485 1099 485 1138 q 458 1036 485 1060 q 394 1013 431 1013 m 721 1013 q 658 1036 685 1013 q 632 1099 632 1060 q 658 1161 632 1138 q 721 1185 685 1185 q 785 1161 758 1185 q 813 1099 813 1138 q 785 1036 813 1060 q 721 1013 758 1013 m 383 1408 l 558 1288 l 733 1408 l 774 1372 l 614 1189 l 503 1189 l 344 1372 l 383 1408 z "},"Ǜ":{"ha":1013,"x_min":47,"x_max":971,"o":"m 339 390 q 353 248 339 306 q 395 155 368 190 q 462 104 422 119 q 553 89 501 89 q 647 106 606 89 q 715 161 688 124 q 758 258 743 199 q 772 404 772 318 l 772 840 l 638 856 l 638 921 l 971 921 l 971 856 l 853 842 l 853 386 q 828 199 853 276 q 757 72 803 121 q 647 -1 711 22 q 504 -24 583 -24 q 365 -3 428 -24 q 256 63 301 18 q 184 178 210 107 q 158 347 158 249 l 158 499 q 158 671 158 585 q 156 844 158 757 l 47 856 l 47 921 l 469 921 l 469 856 l 342 842 q 339 672 339 757 q 339 499 339 586 l 339 390 m 304 1099 q 331 1161 304 1138 q 394 1185 358 1185 q 458 1161 431 1185 q 485 1099 485 1138 q 458 1036 485 1060 q 394 1013 431 1013 q 331 1036 358 1013 q 304 1099 304 1060 m 439 1254 q 391 1292 404 1274 q 378 1329 378 1311 q 395 1372 378 1354 q 439 1390 413 1390 q 478 1379 458 1390 q 518 1342 497 1368 l 615 1218 l 581 1175 l 439 1254 m 632 1099 q 658 1161 632 1138 q 721 1185 685 1185 q 785 1161 757 1185 q 813 1099 813 1138 q 785 1036 813 1060 q 721 1013 757 1013 q 658 1036 685 1013 q 632 1099 632 1060 z "},"Ǖ":{"ha":1013,"x_min":47,"x_max":971,"o":"m 339 390 q 353 248 339 306 q 395 155 368 190 q 462 104 422 119 q 553 89 501 89 q 647 106 606 89 q 715 161 688 124 q 758 258 743 199 q 772 404 772 318 l 772 840 l 638 856 l 638 921 l 971 921 l 971 856 l 853 842 l 853 386 q 828 199 853 276 q 757 72 803 121 q 647 -1 711 22 q 504 -24 583 -24 q 365 -3 428 -24 q 256 63 301 18 q 184 178 210 107 q 158 347 158 249 l 158 499 q 158 671 158 585 q 156 844 158 757 l 47 856 l 47 921 l 469 921 l 469 856 l 342 842 q 339 672 339 757 q 339 499 339 586 l 339 390 m 394 1013 q 331 1036 358 1013 q 304 1099 304 1060 q 331 1161 304 1138 q 394 1185 358 1185 q 458 1161 431 1185 q 485 1099 485 1138 q 458 1036 485 1060 q 394 1013 431 1013 m 721 1013 q 658 1036 685 1013 q 632 1099 632 1060 q 658 1161 632 1138 q 721 1185 685 1185 q 785 1161 758 1185 q 813 1099 813 1138 q 785 1036 813 1060 q 721 1013 758 1013 m 342 1253 l 342 1358 l 775 1358 l 775 1253 l 342 1253 z "},"Ụ":{"ha":1013,"x_min":47,"x_max":971,"o":"m 339 390 q 353 248 339 306 q 395 155 368 190 q 462 104 422 119 q 553 89 501 89 q 647 106 606 89 q 715 161 688 124 q 758 258 743 199 q 772 404 772 318 l 772 840 l 638 856 l 638 921 l 971 921 l 971 856 l 853 842 l 853 386 q 828 199 853 276 q 757 72 803 121 q 647 -1 711 22 q 504 -24 583 -24 q 365 -3 428 -24 q 256 63 301 18 q 184 178 210 107 q 158 347 158 249 l 158 499 q 158 671 158 585 q 156 844 158 757 l 47 856 l 47 921 l 469 921 l 469 856 l 342 842 q 339 672 339 757 q 339 499 339 586 l 339 390 m 518 -296 q 443 -269 474 -296 q 413 -197 413 -242 q 443 -125 413 -153 q 518 -97 474 -97 q 593 -125 563 -97 q 624 -197 624 -153 q 593 -269 624 -242 q 518 -296 563 -296 z "},"Ủ":{"ha":1013,"x_min":47,"x_max":971,"o":"m 339 390 q 353 248 339 306 q 395 155 368 190 q 462 104 422 119 q 553 89 501 89 q 647 106 606 89 q 715 161 688 124 q 758 258 743 199 q 772 404 772 318 l 772 840 l 638 856 l 638 921 l 971 921 l 971 856 l 853 842 l 853 386 q 828 199 853 276 q 757 72 803 121 q 647 -1 711 22 q 504 -24 583 -24 q 365 -3 428 -24 q 256 63 301 18 q 184 178 210 107 q 158 347 158 249 l 158 499 q 158 671 158 585 q 156 844 158 757 l 47 856 l 47 921 l 469 921 l 469 856 l 342 842 q 339 672 339 757 q 339 499 339 586 l 339 390 m 519 990 l 507 1040 q 565 1058 550 1049 q 581 1083 581 1068 q 554 1111 581 1101 q 465 1126 528 1121 l 479 1242 q 667 1108 667 1226 q 628 1029 667 1060 q 519 990 590 999 z "},"Ư":{"ha":1013,"x_min":47,"x_max":1042,"o":"m 339 390 q 353 248 339 306 q 395 155 368 190 q 462 104 422 119 q 553 89 501 89 q 647 106 606 89 q 715 161 688 124 q 758 258 743 199 q 772 404 772 318 l 772 840 l 638 856 l 638 921 l 853 921 l 853 835 q 942 933 942 863 q 935 963 942 950 q 922 990 929 976 q 908 1017 914 1003 q 901 1047 901 1031 q 919 1090 901 1071 q 968 1108 938 1108 q 996 1105 982 1108 q 1024 1089 1010 1101 q 1042 1013 1042 1051 q 1027 928 1042 967 q 987 861 1013 890 q 926 812 961 832 q 853 783 892 792 l 853 386 q 828 199 853 276 q 757 72 803 121 q 647 -1 711 22 q 504 -24 583 -24 q 365 -3 428 -24 q 256 63 301 18 q 184 178 210 107 q 158 347 158 249 l 158 499 q 158 671 158 585 q 156 844 158 757 l 47 856 l 47 921 l 469 921 l 469 856 l 342 842 q 339 672 339 757 q 339 499 339 586 l 339 390 z "},"Ứ":{"ha":1013,"x_min":47,"x_max":1042,"o":"m 339 390 q 353 248 339 306 q 395 155 368 190 q 462 104 422 119 q 553 89 501 89 q 647 106 606 89 q 715 161 688 124 q 758 258 743 199 q 772 404 772 318 l 772 840 l 638 856 l 638 921 l 853 921 l 853 835 q 942 933 942 863 q 935 963 942 950 q 922 990 929 976 q 908 1017 914 1003 q 901 1047 901 1031 q 919 1090 901 1071 q 968 1108 938 1108 q 996 1105 982 1108 q 1024 1089 1010 1101 q 1042 1013 1042 1051 q 1027 928 1042 967 q 987 861 1013 890 q 926 812 961 832 q 853 783 892 792 l 853 386 q 828 199 853 276 q 757 72 803 121 q 647 -1 711 22 q 504 -24 583 -24 q 365 -3 428 -24 q 256 63 301 18 q 184 178 210 107 q 158 347 158 249 l 158 499 q 158 671 158 585 q 156 844 158 757 l 47 856 l 47 921 l 469 921 l 469 856 l 342 842 q 339 672 339 757 q 339 499 339 586 l 339 390 m 467 1028 q 538 1099 503 1064 q 608 1165 572 1133 q 661 1208 640 1197 q 703 1219 682 1219 q 749 1202 731 1219 q 767 1161 767 1185 q 752 1121 767 1142 q 693 1078 738 1100 q 596 1031 644 1054 q 499 983 547 1007 l 467 1028 z "},"Ự":{"ha":1013,"x_min":47,"x_max":1042,"o":"m 339 390 q 353 248 339 306 q 395 155 368 190 q 462 104 422 119 q 553 89 501 89 q 647 106 606 89 q 715 161 688 124 q 758 258 743 199 q 772 404 772 318 l 772 840 l 638 856 l 638 921 l 853 921 l 853 835 q 942 933 942 863 q 935 963 942 950 q 922 990 929 976 q 908 1017 914 1003 q 901 1047 901 1031 q 919 1090 901 1071 q 968 1108 938 1108 q 996 1105 982 1108 q 1024 1089 1010 1101 q 1042 1013 1042 1051 q 1027 928 1042 967 q 987 861 1013 890 q 926 812 961 832 q 853 783 892 792 l 853 386 q 828 199 853 276 q 757 72 803 121 q 647 -1 711 22 q 504 -24 583 -24 q 365 -3 428 -24 q 256 63 301 18 q 184 178 210 107 q 158 347 158 249 l 158 499 q 158 671 158 585 q 156 844 158 757 l 47 856 l 47 921 l 469 921 l 469 856 l 342 842 q 339 672 339 757 q 339 499 339 586 l 339 390 m 513 -296 q 438 -269 468 -296 q 407 -197 407 -242 q 438 -125 407 -153 q 513 -97 468 -97 q 588 -125 557 -97 q 618 -197 618 -153 q 588 -269 618 -242 q 513 -296 557 -296 z "},"Ừ":{"ha":1013,"x_min":47,"x_max":1042,"o":"m 339 390 q 353 248 339 306 q 395 155 368 190 q 462 104 422 119 q 553 89 501 89 q 647 106 606 89 q 715 161 688 124 q 758 258 743 199 q 772 404 772 318 l 772 840 l 638 856 l 638 921 l 853 921 l 853 835 q 942 933 942 863 q 935 963 942 950 q 922 990 929 976 q 908 1017 914 1003 q 901 1047 901 1031 q 919 1090 901 1071 q 968 1108 938 1108 q 996 1105 982 1108 q 1024 1089 1010 1101 q 1042 1013 1042 1051 q 1027 928 1042 967 q 987 861 1013 890 q 926 812 961 832 q 853 783 892 792 l 853 386 q 828 199 853 276 q 757 72 803 121 q 647 -1 711 22 q 504 -24 583 -24 q 365 -3 428 -24 q 256 63 301 18 q 184 178 210 107 q 158 347 158 249 l 158 499 q 158 671 158 585 q 156 844 158 757 l 47 856 l 47 921 l 469 921 l 469 856 l 342 842 q 339 672 339 757 q 339 499 339 586 l 339 390 m 603 1028 l 571 983 q 474 1030 522 1007 q 378 1076 426 1053 q 318 1120 333 1099 q 303 1161 303 1142 q 321 1202 303 1185 q 367 1219 339 1219 q 408 1208 388 1219 q 461 1167 429 1197 q 532 1098 497 1132 q 603 1028 567 1064 z "},"Ử":{"ha":1013,"x_min":47,"x_max":1042,"o":"m 339 390 q 353 248 339 306 q 395 155 368 190 q 462 104 422 119 q 553 89 501 89 q 647 106 606 89 q 715 161 688 124 q 758 258 743 199 q 772 404 772 318 l 772 840 l 638 856 l 638 921 l 853 921 l 853 835 q 942 933 942 863 q 935 963 942 950 q 922 990 929 976 q 908 1017 914 1003 q 901 1047 901 1031 q 919 1090 901 1071 q 968 1108 938 1108 q 996 1105 982 1108 q 1024 1089 1010 1101 q 1042 1013 1042 1051 q 1027 928 1042 967 q 987 861 1013 890 q 926 812 961 832 q 853 783 892 792 l 853 386 q 828 199 853 276 q 757 72 803 121 q 647 -1 711 22 q 504 -24 583 -24 q 365 -3 428 -24 q 256 63 301 18 q 184 178 210 107 q 158 347 158 249 l 158 499 q 158 671 158 585 q 156 844 158 757 l 47 856 l 47 921 l 469 921 l 469 856 l 342 842 q 339 672 339 757 q 339 499 339 586 l 339 390 m 524 990 l 511 1040 q 569 1058 554 1049 q 585 1083 585 1068 q 558 1111 585 1101 q 469 1126 532 1121 l 483 1242 q 671 1108 671 1226 q 633 1029 671 1060 q 524 990 594 999 z "},"Ữ":{"ha":1013,"x_min":47,"x_max":1042,"o":"m 339 390 q 353 248 339 306 q 395 155 368 190 q 462 104 422 119 q 553 89 501 89 q 647 106 606 89 q 715 161 688 124 q 758 258 743 199 q 772 404 772 318 l 772 840 l 638 856 l 638 921 l 853 921 l 853 835 q 942 933 942 863 q 935 963 942 950 q 922 990 929 976 q 908 1017 914 1003 q 901 1047 901 1031 q 919 1090 901 1071 q 968 1108 938 1108 q 996 1105 982 1108 q 1024 1089 1010 1101 q 1042 1013 1042 1051 q 1027 928 1042 967 q 987 861 1013 890 q 926 812 961 832 q 853 783 892 792 l 853 386 q 828 199 853 276 q 757 72 803 121 q 647 -1 711 22 q 504 -24 583 -24 q 365 -3 428 -24 q 256 63 301 18 q 184 178 210 107 q 158 347 158 249 l 158 499 q 158 671 158 585 q 156 844 158 757 l 47 856 l 47 921 l 469 921 l 469 856 l 342 842 q 339 672 339 757 q 339 499 339 586 l 339 390 m 292 1010 q 343 1147 304 1097 q 444 1196 382 1196 q 505 1183 481 1196 q 553 1153 529 1169 q 600 1116 576 1135 q 653 1097 624 1097 q 708 1124 686 1097 q 744 1194 729 1150 l 794 1176 q 744 1040 782 1090 q 644 990 707 990 q 582 1003 608 990 q 533 1033 556 1017 q 486 1070 510 1051 q 433 1089 463 1089 q 379 1063 401 1089 q 342 992 357 1036 l 292 1010 z "},"Ũ":{"ha":1013,"x_min":47,"x_max":971,"o":"m 339 390 q 353 248 339 306 q 395 155 368 190 q 462 104 422 119 q 553 89 501 89 q 647 106 606 89 q 715 161 688 124 q 758 258 743 199 q 772 404 772 318 l 772 840 l 638 856 l 638 921 l 971 921 l 971 856 l 853 842 l 853 386 q 828 199 853 276 q 757 72 803 121 q 647 -1 711 22 q 504 -24 583 -24 q 365 -3 428 -24 q 256 63 301 18 q 184 178 210 107 q 158 347 158 249 l 158 499 q 158 671 158 585 q 156 844 158 757 l 47 856 l 47 921 l 469 921 l 469 856 l 342 842 q 339 672 339 757 q 339 499 339 586 l 339 390 m 292 1010 q 343 1147 304 1097 q 444 1196 382 1196 q 505 1183 481 1196 q 553 1153 529 1169 q 600 1116 576 1135 q 653 1097 624 1097 q 708 1124 686 1097 q 744 1194 729 1150 l 794 1176 q 744 1040 782 1090 q 644 990 707 990 q 582 1003 608 990 q 533 1033 556 1017 q 486 1070 510 1051 q 433 1089 463 1089 q 379 1063 401 1089 q 342 992 357 1036 l 292 1010 z "},"Ẃ":{"ha":1349,"x_min":15,"x_max":1340,"o":"m 892 -6 l 672 671 l 463 -6 l 367 -6 l 117 844 l 15 856 l 15 921 l 419 921 l 419 856 l 304 842 l 463 239 l 651 842 l 531 856 l 531 921 l 926 921 l 926 856 l 794 839 l 979 235 l 1149 839 l 1035 856 l 1035 921 l 1340 921 l 1340 856 l 1228 838 l 988 -6 l 892 -6 m 651 1028 q 722 1099 688 1064 q 793 1165 757 1133 q 846 1208 825 1197 q 888 1219 867 1219 q 933 1202 915 1219 q 951 1161 951 1185 q 937 1121 951 1142 q 878 1078 922 1100 q 781 1031 829 1054 q 683 983 732 1007 l 651 1028 z "},"Ŵ":{"ha":1349,"x_min":15,"x_max":1340,"o":"m 892 -6 l 672 671 l 463 -6 l 367 -6 l 117 844 l 15 856 l 15 921 l 419 921 l 419 856 l 304 842 l 463 239 l 651 842 l 531 856 l 531 921 l 926 921 l 926 856 l 794 839 l 979 235 l 1149 839 l 1035 856 l 1035 921 l 1340 921 l 1340 856 l 1228 838 l 988 -6 l 892 -6 m 756 1201 l 950 1017 l 917 975 l 721 1086 l 525 975 l 492 1017 l 686 1201 l 756 1201 z "},"Ẅ":{"ha":1349,"x_min":15,"x_max":1340,"o":"m 892 -6 l 672 671 l 463 -6 l 367 -6 l 117 844 l 15 856 l 15 921 l 419 921 l 419 856 l 304 842 l 463 239 l 651 842 l 531 856 l 531 921 l 926 921 l 926 856 l 794 839 l 979 235 l 1149 839 l 1035 856 l 1035 921 l 1340 921 l 1340 856 l 1228 838 l 988 -6 l 892 -6 m 563 1013 q 499 1036 526 1013 q 472 1099 472 1060 q 499 1161 472 1138 q 563 1185 526 1185 q 626 1161 599 1185 q 653 1099 653 1138 q 626 1036 653 1060 q 563 1013 599 1013 m 889 1013 q 826 1036 853 1013 q 800 1099 800 1060 q 826 1161 800 1138 q 889 1185 853 1185 q 953 1161 926 1185 q 981 1099 981 1138 q 953 1036 981 1060 q 889 1013 926 1013 z "},"Ẁ":{"ha":1349,"x_min":15,"x_max":1340,"o":"m 892 -6 l 672 671 l 463 -6 l 367 -6 l 117 844 l 15 856 l 15 921 l 419 921 l 419 856 l 304 842 l 463 239 l 651 842 l 531 856 l 531 921 l 926 921 l 926 856 l 794 839 l 979 235 l 1149 839 l 1035 856 l 1035 921 l 1340 921 l 1340 856 l 1228 838 l 988 -6 l 892 -6 m 796 1028 l 764 983 q 667 1030 715 1007 q 571 1076 619 1053 q 511 1120 526 1099 q 496 1161 496 1142 q 514 1202 496 1185 q 560 1219 532 1219 q 601 1208 581 1219 q 654 1167 622 1197 q 725 1098 690 1132 q 796 1028 760 1064 z "},"Ý":{"ha":874,"x_min":15,"x_max":864,"o":"m 663 0 l 217 0 l 217 65 l 347 79 q 349 207 349 140 q 349 360 349 274 l 111 846 l 15 856 l 15 921 l 435 921 l 435 856 l 315 842 l 492 456 l 672 839 l 561 856 l 561 921 l 864 921 l 864 856 l 753 838 l 529 379 q 529 217 529 288 q 531 79 529 146 l 663 65 l 663 0 m 418 1019 q 489 1090 454 1056 q 560 1157 524 1125 q 613 1200 592 1189 q 654 1211 633 1211 q 700 1194 682 1211 q 718 1153 718 1176 q 703 1113 718 1133 q 644 1069 689 1092 q 547 1022 596 1046 q 450 975 499 999 l 418 1019 z "},"Ÿ":{"ha":874,"x_min":15,"x_max":864,"o":"m 663 0 l 217 0 l 217 65 l 347 79 q 349 207 349 140 q 349 360 349 274 l 111 846 l 15 856 l 15 921 l 435 921 l 435 856 l 315 842 l 492 456 l 672 839 l 561 856 l 561 921 l 864 921 l 864 856 l 753 838 l 529 379 q 529 217 529 288 q 531 79 529 146 l 663 65 l 663 0 m 332 1013 q 269 1036 296 1013 q 242 1099 242 1060 q 269 1161 242 1138 q 332 1185 296 1185 q 395 1161 368 1185 q 422 1099 422 1138 q 395 1036 422 1060 q 332 1013 368 1013 m 658 1013 q 596 1036 622 1013 q 569 1099 569 1060 q 596 1161 569 1138 q 658 1185 622 1185 q 723 1161 696 1185 q 750 1099 750 1138 q 723 1036 750 1060 q 658 1013 696 1013 z "},"Ŷ":{"ha":874,"x_min":15,"x_max":864,"o":"m 663 0 l 217 0 l 217 65 l 347 79 q 349 207 349 140 q 349 360 349 274 l 111 846 l 15 856 l 15 921 l 435 921 l 435 856 l 315 842 l 492 456 l 672 839 l 561 856 l 561 921 l 864 921 l 864 856 l 753 838 l 529 379 q 529 217 529 288 q 531 79 529 146 l 663 65 l 663 0 m 522 1201 l 717 1017 l 683 975 l 488 1086 l 292 975 l 258 1017 l 453 1201 l 522 1201 z "},"Ẏ":{"ha":874,"x_min":15,"x_max":864,"o":"m 663 0 l 217 0 l 217 65 l 347 79 q 349 207 349 140 q 349 360 349 274 l 111 846 l 15 856 l 15 921 l 435 921 l 435 856 l 315 842 l 492 456 l 672 839 l 561 856 l 561 921 l 864 921 l 864 856 l 753 838 l 529 379 q 529 217 529 288 q 531 79 529 146 l 663 65 l 663 0 m 497 1004 q 422 1032 453 1004 q 392 1104 392 1060 q 422 1176 392 1149 q 497 1203 453 1203 q 572 1176 542 1203 q 603 1104 603 1149 q 572 1032 603 1060 q 497 1004 542 1004 z "},"Ỵ":{"ha":874,"x_min":15,"x_max":864,"o":"m 663 0 l 217 0 l 217 65 l 347 79 q 349 207 349 140 q 349 360 349 274 l 111 846 l 15 856 l 15 921 l 435 921 l 435 856 l 315 842 l 492 456 l 672 839 l 561 856 l 561 921 l 864 921 l 864 856 l 753 838 l 529 379 q 529 217 529 288 q 531 79 529 146 l 663 65 l 663 0 m 439 -296 q 364 -269 394 -296 q 333 -197 333 -242 q 364 -125 333 -153 q 439 -97 394 -97 q 514 -125 483 -97 q 544 -197 544 -153 q 514 -269 544 -242 q 439 -296 483 -296 z "},"Ỳ":{"ha":874,"x_min":15,"x_max":864,"o":"m 663 0 l 217 0 l 217 65 l 347 79 q 349 207 349 140 q 349 360 349 274 l 111 846 l 15 856 l 15 921 l 435 921 l 435 856 l 315 842 l 492 456 l 672 839 l 561 856 l 561 921 l 864 921 l 864 856 l 753 838 l 529 379 q 529 217 529 288 q 531 79 529 146 l 663 65 l 663 0 m 544 1028 l 513 983 q 416 1030 464 1007 q 319 1076 368 1053 q 260 1120 275 1099 q 244 1161 244 1142 q 263 1202 244 1185 q 308 1219 281 1219 q 350 1208 329 1219 q 403 1167 371 1197 q 474 1098 439 1132 q 544 1028 508 1064 z "},"Ỷ":{"ha":874,"x_min":15,"x_max":864,"o":"m 663 0 l 217 0 l 217 65 l 347 79 q 349 207 349 140 q 349 360 349 274 l 111 846 l 15 856 l 15 921 l 435 921 l 435 856 l 315 842 l 492 456 l 672 839 l 561 856 l 561 921 l 864 921 l 864 856 l 753 838 l 529 379 q 529 217 529 288 q 531 79 529 146 l 663 65 l 663 0 m 458 985 l 446 1035 q 504 1053 489 1043 q 519 1078 519 1063 q 493 1106 519 1096 q 404 1121 467 1115 l 418 1236 q 606 1103 606 1221 q 567 1024 606 1054 q 458 985 529 993 z "},"Ỹ":{"ha":874,"x_min":15,"x_max":864,"o":"m 663 0 l 217 0 l 217 65 l 347 79 q 349 207 349 140 q 349 360 349 274 l 111 846 l 15 856 l 15 921 l 435 921 l 435 856 l 315 842 l 492 456 l 672 839 l 561 856 l 561 921 l 864 921 l 864 856 l 753 838 l 529 379 q 529 217 529 288 q 531 79 529 146 l 663 65 l 663 0 m 231 1010 q 282 1147 243 1097 q 383 1196 321 1196 q 444 1183 419 1196 q 492 1153 468 1169 q 539 1116 515 1135 q 592 1097 563 1097 q 647 1124 625 1097 q 683 1194 668 1150 l 733 1176 q 683 1040 721 1090 q 583 990 646 990 q 521 1003 547 990 q 472 1033 494 1017 q 425 1070 449 1051 q 372 1089 401 1089 q 318 1063 340 1089 q 281 992 296 1036 l 231 1010 z "},"Ź":{"ha":774,"x_min":28,"x_max":746,"o":"m 647 253 l 746 253 l 735 0 l 28 0 l 28 57 l 515 847 l 176 847 l 139 668 l 42 668 l 53 921 l 722 921 l 722 865 l 236 75 l 611 75 l 647 253 m 340 1028 q 411 1099 376 1064 q 482 1165 446 1133 q 535 1208 514 1197 q 576 1219 556 1219 q 622 1202 604 1219 q 640 1161 640 1185 q 626 1121 640 1142 q 567 1078 611 1100 q 469 1031 518 1054 q 372 983 421 1007 l 340 1028 z "},"Ž":{"ha":774,"x_min":28,"x_max":746,"o":"m 647 253 l 746 253 l 735 0 l 28 0 l 28 57 l 515 847 l 176 847 l 139 668 l 42 668 l 53 921 l 722 921 l 722 865 l 236 75 l 611 75 l 647 253 m 229 1217 l 404 1096 l 579 1217 l 619 1181 l 460 997 l 349 997 l 190 1181 l 229 1217 z "},"Ż":{"ha":774,"x_min":28,"x_max":746,"o":"m 647 253 l 746 253 l 735 0 l 28 0 l 28 57 l 515 847 l 176 847 l 139 668 l 42 668 l 53 921 l 722 921 l 722 865 l 236 75 l 611 75 l 647 253 m 413 1004 q 338 1032 368 1004 q 307 1104 307 1060 q 338 1176 307 1149 q 413 1203 368 1203 q 488 1176 457 1203 q 518 1104 518 1149 q 488 1032 518 1060 q 413 1004 457 1004 z "},"Ẓ":{"ha":774,"x_min":28,"x_max":746,"o":"m 647 253 l 746 253 l 735 0 l 28 0 l 28 57 l 515 847 l 176 847 l 139 668 l 42 668 l 53 921 l 722 921 l 722 865 l 236 75 l 611 75 l 647 253 m 403 -296 q 328 -269 358 -296 q 297 -197 297 -242 q 328 -125 297 -153 q 403 -97 358 -97 q 478 -125 447 -97 q 508 -197 508 -153 q 478 -269 508 -242 q 403 -296 447 -296 z "},"Ð":{"ha":982,"x_min":54,"x_max":926,"o":"m 542 436 l 353 436 q 353 247 353 336 q 356 72 353 158 l 435 72 q 655 173 578 72 q 732 460 732 274 q 656 751 732 651 q 443 850 579 850 l 356 850 q 353 674 353 761 q 353 508 353 586 l 542 508 l 542 436 m 54 0 l 54 65 l 171 78 q 174 255 174 165 q 174 436 174 344 l 54 436 l 54 508 l 174 508 q 174 677 174 594 q 171 843 174 760 l 54 856 l 54 921 l 465 921 q 656 890 571 921 q 801 801 740 860 q 894 656 861 742 q 926 461 926 571 q 890 265 926 350 q 790 120 854 179 q 635 31 725 61 q 439 0 546 0 l 54 0 z "},"Þ":{"ha":856,"x_min":54,"x_max":826,"o":"m 174 431 l 174 490 q 174 666 174 578 q 171 843 174 754 l 54 856 l 54 921 l 479 921 l 479 856 l 353 842 q 352 793 353 818 q 351 743 351 768 l 443 743 q 735 672 643 743 q 826 479 826 600 q 808 374 826 424 q 743 286 789 324 q 618 226 697 249 q 418 204 539 204 l 351 204 q 352 142 351 172 q 353 79 353 111 l 479 65 l 479 0 l 54 0 l 54 65 l 171 78 q 174 253 174 165 q 174 431 174 340 m 350 431 l 350 278 l 432 278 q 595 333 540 278 q 650 478 650 388 q 597 621 650 571 q 431 671 544 671 l 351 671 q 350 582 350 626 q 350 493 350 538 l 350 431 z "},"Ə":{"ha":917,"x_min":57,"x_max":861,"o":"m 57 385 q 59 451 57 418 q 65 507 61 483 l 667 507 q 583 770 656 686 q 401 854 510 854 q 265 826 328 854 q 156 749 203 797 l 115 796 q 251 906 169 867 q 433 944 333 944 q 603 913 525 944 q 738 819 681 881 q 828 669 796 758 q 861 467 861 581 q 828 258 861 350 q 740 104 796 167 q 611 9 685 42 q 457 -24 538 -24 q 288 6 363 -24 q 163 88 214 35 q 84 217 111 142 q 57 385 57 292 m 460 51 q 610 144 556 51 q 668 435 665 236 l 253 435 q 247 381 249 407 q 244 322 244 356 q 260 212 244 261 q 305 126 276 163 q 373 71 333 90 q 460 51 413 51 z "},"à":{"ha":722,"x_min":53,"x_max":719,"o":"m 314 82 q 366 94 342 82 q 435 138 390 106 l 435 358 q 380 340 406 349 q 336 325 354 332 q 241 260 267 297 q 215 185 215 224 q 244 106 215 131 q 314 82 272 82 m 576 -17 q 486 11 521 -17 q 439 88 451 39 q 392 41 414 61 q 347 8 369 21 q 297 -12 324 -6 q 238 -19 271 -19 q 165 -8 199 -19 q 106 25 131 3 q 67 80 81 47 q 53 156 53 113 q 63 218 53 189 q 102 274 74 247 q 178 326 131 301 q 301 375 226 351 q 364 394 329 385 q 435 414 399 404 l 435 453 q 428 533 435 501 q 408 584 422 565 q 369 610 393 603 q 313 618 346 618 q 285 617 300 618 q 256 613 271 615 l 239 536 q 209 463 232 486 q 151 439 186 439 q 74 501 85 439 q 163 635 86 585 q 367 685 239 685 q 544 627 489 685 q 599 433 599 569 l 599 131 q 609 83 599 97 q 639 68 619 68 q 688 99 665 68 l 719 71 q 660 3 694 22 q 576 -17 626 -17 m 440 806 l 396 771 q 323 831 360 800 q 235 906 286 863 q 168 1000 168 960 q 188 1049 168 1032 q 232 1065 208 1065 q 279 1049 258 1065 q 324 994 300 1033 q 389 890 363 933 q 440 806 415 846 z "},"á":{"ha":722,"x_min":53,"x_max":719,"o":"m 314 82 q 366 94 342 82 q 435 138 390 106 l 435 358 q 380 340 406 349 q 336 325 354 332 q 241 260 267 297 q 215 185 215 224 q 244 106 215 131 q 314 82 272 82 m 576 -17 q 486 11 521 -17 q 439 88 451 39 q 392 41 414 61 q 347 8 369 21 q 297 -12 324 -6 q 238 -19 271 -19 q 165 -8 199 -19 q 106 25 131 3 q 67 80 81 47 q 53 156 53 113 q 63 218 53 189 q 102 274 74 247 q 178 326 131 301 q 301 375 226 351 q 364 394 329 385 q 435 414 399 404 l 435 453 q 428 533 435 501 q 408 584 422 565 q 369 610 393 603 q 313 618 346 618 q 285 617 300 618 q 256 613 271 615 l 239 536 q 209 463 232 486 q 151 439 186 439 q 74 501 85 439 q 163 635 86 585 q 367 685 239 685 q 544 627 489 685 q 599 433 599 569 l 599 131 q 609 83 599 97 q 639 68 619 68 q 688 99 665 68 l 719 71 q 660 3 694 22 q 576 -17 626 -17 m 296 806 q 347 889 319 846 q 413 993 374 932 q 457 1049 436 1033 q 504 1065 478 1065 q 548 1049 528 1065 q 568 1000 568 1032 q 501 906 568 960 q 413 831 449 863 q 340 771 376 800 l 296 806 z "},"â":{"ha":722,"x_min":53,"x_max":719,"o":"m 314 82 q 366 94 342 82 q 435 138 390 106 l 435 358 q 380 340 406 349 q 336 325 354 332 q 241 260 267 297 q 215 185 215 224 q 244 106 215 131 q 314 82 272 82 m 576 -17 q 486 11 521 -17 q 439 88 451 39 q 392 41 414 61 q 347 8 369 21 q 297 -12 324 -6 q 238 -19 271 -19 q 165 -8 199 -19 q 106 25 131 3 q 67 80 81 47 q 53 156 53 113 q 63 218 53 189 q 102 274 74 247 q 178 326 131 301 q 301 375 226 351 q 364 394 329 385 q 435 414 399 404 l 435 453 q 428 533 435 501 q 408 584 422 565 q 369 610 393 603 q 313 618 346 618 q 285 617 300 618 q 256 613 271 615 l 239 536 q 209 463 232 486 q 151 439 186 439 q 74 501 85 439 q 163 635 86 585 q 367 685 239 685 q 544 627 489 685 q 599 433 599 569 l 599 131 q 609 83 599 97 q 639 68 619 68 q 688 99 665 68 l 719 71 q 660 3 694 22 q 576 -17 626 -17 m 544 757 l 364 908 l 183 757 l 143 796 l 331 1039 l 397 1039 l 585 796 l 544 757 z "},"ã":{"ha":722,"x_min":53,"x_max":719,"o":"m 314 82 q 366 94 342 82 q 435 138 390 106 l 435 358 q 380 340 406 349 q 336 325 354 332 q 241 260 267 297 q 215 185 215 224 q 244 106 215 131 q 314 82 272 82 m 576 -17 q 486 11 521 -17 q 439 88 451 39 q 392 41 414 61 q 347 8 369 21 q 297 -12 324 -6 q 238 -19 271 -19 q 165 -8 199 -19 q 106 25 131 3 q 67 80 81 47 q 53 156 53 113 q 63 218 53 189 q 102 274 74 247 q 178 326 131 301 q 301 375 226 351 q 364 394 329 385 q 435 414 399 404 l 435 453 q 428 533 435 501 q 408 584 422 565 q 369 610 393 603 q 313 618 346 618 q 285 617 300 618 q 256 613 271 615 l 239 536 q 209 463 232 486 q 151 439 186 439 q 74 501 85 439 q 163 635 86 585 q 367 685 239 685 q 544 627 489 685 q 599 433 599 569 l 599 131 q 609 83 599 97 q 639 68 619 68 q 688 99 665 68 l 719 71 q 660 3 694 22 q 576 -17 626 -17 m 114 815 q 162 952 125 903 q 257 1001 199 1001 q 314 988 290 1001 q 360 958 338 975 q 403 922 382 940 q 453 903 425 903 q 504 929 483 903 q 539 1000 525 956 l 586 982 q 538 846 574 896 q 444 796 503 796 q 387 809 413 796 q 340 838 361 822 q 297 876 318 857 q 247 894 275 894 q 195 868 215 894 q 161 797 175 842 l 114 815 z "},"ä":{"ha":722,"x_min":53,"x_max":719,"o":"m 314 82 q 366 94 342 82 q 435 138 390 106 l 435 358 q 380 340 406 349 q 336 325 354 332 q 241 260 267 297 q 215 185 215 224 q 244 106 215 131 q 314 82 272 82 m 576 -17 q 486 11 521 -17 q 439 88 451 39 q 392 41 414 61 q 347 8 369 21 q 297 -12 324 -6 q 238 -19 271 -19 q 165 -8 199 -19 q 106 25 131 3 q 67 80 81 47 q 53 156 53 113 q 63 218 53 189 q 102 274 74 247 q 178 326 131 301 q 301 375 226 351 q 364 394 329 385 q 435 414 399 404 l 435 453 q 428 533 435 501 q 408 584 422 565 q 369 610 393 603 q 313 618 346 618 q 285 617 300 618 q 256 613 271 615 l 239 536 q 209 463 232 486 q 151 439 186 439 q 74 501 85 439 q 163 635 86 585 q 367 685 239 685 q 544 627 489 685 q 599 433 599 569 l 599 131 q 609 83 599 97 q 639 68 619 68 q 688 99 665 68 l 719 71 q 660 3 694 22 q 576 -17 626 -17 m 513 814 q 447 838 475 814 q 418 903 418 863 q 447 968 418 943 q 513 993 475 993 q 579 968 551 993 q 607 903 607 943 q 579 838 607 863 q 513 814 551 814 m 201 814 q 135 838 164 814 q 107 903 107 863 q 135 968 107 943 q 201 993 164 993 q 268 968 240 993 q 296 903 296 943 q 268 838 296 863 q 201 814 240 814 z "},"ā":{"ha":722,"x_min":53,"x_max":719,"o":"m 314 82 q 366 94 342 82 q 435 138 390 106 l 435 358 q 380 340 406 349 q 336 325 354 332 q 241 260 267 297 q 215 185 215 224 q 244 106 215 131 q 314 82 272 82 m 576 -17 q 486 11 521 -17 q 439 88 451 39 q 392 41 414 61 q 347 8 369 21 q 297 -12 324 -6 q 238 -19 271 -19 q 165 -8 199 -19 q 106 25 131 3 q 67 80 81 47 q 53 156 53 113 q 63 218 53 189 q 102 274 74 247 q 178 326 131 301 q 301 375 226 351 q 364 394 329 385 q 435 414 399 404 l 435 453 q 428 533 435 501 q 408 584 422 565 q 369 610 393 603 q 313 618 346 618 q 285 617 300 618 q 256 613 271 615 l 239 536 q 209 463 232 486 q 151 439 186 439 q 74 501 85 439 q 163 635 86 585 q 367 685 239 685 q 544 627 489 685 q 599 433 599 569 l 599 131 q 609 83 599 97 q 639 68 619 68 q 688 99 665 68 l 719 71 q 660 3 694 22 q 576 -17 626 -17 m 163 822 l 163 926 l 563 926 l 563 822 l 163 822 z "},"ă":{"ha":722,"x_min":53,"x_max":719,"o":"m 314 82 q 366 94 342 82 q 435 138 390 106 l 435 358 q 380 340 406 349 q 336 325 354 332 q 241 260 267 297 q 215 185 215 224 q 244 106 215 131 q 314 82 272 82 m 576 -17 q 486 11 521 -17 q 439 88 451 39 q 392 41 414 61 q 347 8 369 21 q 297 -12 324 -6 q 238 -19 271 -19 q 165 -8 199 -19 q 106 25 131 3 q 67 80 81 47 q 53 156 53 113 q 63 218 53 189 q 102 274 74 247 q 178 326 131 301 q 301 375 226 351 q 364 394 329 385 q 435 414 399 404 l 435 453 q 428 533 435 501 q 408 584 422 565 q 369 610 393 603 q 313 618 346 618 q 285 617 300 618 q 256 613 271 615 l 239 536 q 209 463 232 486 q 151 439 186 439 q 74 501 85 439 q 163 635 86 585 q 367 685 239 685 q 544 627 489 685 q 599 433 599 569 l 599 131 q 609 83 599 97 q 639 68 619 68 q 688 99 665 68 l 719 71 q 660 3 694 22 q 576 -17 626 -17 m 146 1004 l 200 1021 q 259 932 221 968 q 363 896 297 896 q 466 933 428 896 q 525 1021 504 969 l 579 1004 q 561 928 575 967 q 521 860 547 890 q 456 812 494 831 q 363 793 417 793 q 269 812 308 793 q 204 860 231 831 q 164 928 178 890 q 146 1004 150 967 z "},"ắ":{"ha":722,"x_min":53,"x_max":719,"o":"m 314 82 q 366 94 342 82 q 435 138 390 106 l 435 358 q 380 340 406 349 q 336 325 354 332 q 241 260 267 297 q 215 185 215 224 q 244 106 215 131 q 314 82 272 82 m 576 -17 q 486 11 521 -17 q 439 88 451 39 q 392 41 414 61 q 347 8 369 21 q 297 -12 324 -6 q 238 -19 271 -19 q 165 -8 199 -19 q 106 25 131 3 q 67 80 81 47 q 53 156 53 113 q 63 218 53 189 q 102 274 74 247 q 178 326 131 301 q 301 375 226 351 q 364 394 329 385 q 435 414 399 404 l 435 453 q 428 533 435 501 q 408 584 422 565 q 369 610 393 603 q 313 618 346 618 q 285 617 300 618 q 256 613 271 615 l 239 536 q 209 463 232 486 q 151 439 186 439 q 74 501 85 439 q 163 635 86 585 q 367 685 239 685 q 544 627 489 685 q 599 433 599 569 l 599 131 q 609 83 599 97 q 639 68 619 68 q 688 99 665 68 l 719 71 q 660 3 694 22 q 576 -17 626 -17 m 369 788 q 281 803 319 788 q 217 844 243 818 q 176 902 192 869 q 156 969 161 935 l 208 989 q 268 913 229 942 q 369 885 307 885 q 472 913 432 885 q 532 989 513 942 l 583 969 q 563 902 578 935 q 521 844 547 869 q 457 803 494 818 q 369 788 419 788 m 318 971 l 371 1088 q 419 1171 397 1149 q 469 1193 442 1193 q 510 1177 490 1193 q 529 1133 529 1161 q 513 1087 529 1111 q 450 1022 497 1063 l 364 938 l 318 971 z "},"ặ":{"ha":722,"x_min":53,"x_max":719,"o":"m 314 82 q 366 94 342 82 q 435 138 390 106 l 435 358 q 380 340 406 349 q 336 325 354 332 q 241 260 267 297 q 215 185 215 224 q 244 106 215 131 q 314 82 272 82 m 576 -17 q 486 11 521 -17 q 439 88 451 39 q 392 41 414 61 q 347 8 369 21 q 297 -12 324 -6 q 238 -19 271 -19 q 165 -8 199 -19 q 106 25 131 3 q 67 80 81 47 q 53 156 53 113 q 63 218 53 189 q 102 274 74 247 q 178 326 131 301 q 301 375 226 351 q 364 394 329 385 q 435 414 399 404 l 435 453 q 428 533 435 501 q 408 584 422 565 q 369 610 393 603 q 313 618 346 618 q 285 617 300 618 q 256 613 271 615 l 239 536 q 209 463 232 486 q 151 439 186 439 q 74 501 85 439 q 163 635 86 585 q 367 685 239 685 q 544 627 489 685 q 599 433 599 569 l 599 131 q 609 83 599 97 q 639 68 619 68 q 688 99 665 68 l 719 71 q 660 3 694 22 q 576 -17 626 -17 m 146 1004 l 200 1021 q 259 932 221 968 q 363 896 297 896 q 466 933 428 896 q 525 1021 504 969 l 579 1004 q 561 928 575 967 q 521 860 547 890 q 456 812 494 831 q 363 793 417 793 q 269 812 308 793 q 204 860 231 831 q 164 928 178 890 q 146 1004 150 967 m 354 -296 q 279 -269 310 -296 q 249 -197 249 -242 q 279 -125 249 -153 q 354 -97 310 -97 q 429 -125 399 -97 q 460 -197 460 -153 q 429 -269 460 -242 q 354 -296 399 -296 z "},"ằ":{"ha":722,"x_min":53,"x_max":719,"o":"m 314 82 q 366 94 342 82 q 435 138 390 106 l 435 358 q 380 340 406 349 q 336 325 354 332 q 241 260 267 297 q 215 185 215 224 q 244 106 215 131 q 314 82 272 82 m 576 -17 q 486 11 521 -17 q 439 88 451 39 q 392 41 414 61 q 347 8 369 21 q 297 -12 324 -6 q 238 -19 271 -19 q 165 -8 199 -19 q 106 25 131 3 q 67 80 81 47 q 53 156 53 113 q 63 218 53 189 q 102 274 74 247 q 178 326 131 301 q 301 375 226 351 q 364 394 329 385 q 435 414 399 404 l 435 453 q 428 533 435 501 q 408 584 422 565 q 369 610 393 603 q 313 618 346 618 q 285 617 300 618 q 256 613 271 615 l 239 536 q 209 463 232 486 q 151 439 186 439 q 74 501 85 439 q 163 635 86 585 q 367 685 239 685 q 544 627 489 685 q 599 433 599 569 l 599 131 q 609 83 599 97 q 639 68 619 68 q 688 99 665 68 l 719 71 q 660 3 694 22 q 576 -17 626 -17 m 149 969 l 201 989 q 261 913 222 942 q 363 885 300 885 q 465 913 425 885 q 525 989 506 942 l 576 969 q 556 902 571 935 q 514 844 540 869 q 450 803 488 818 q 363 788 413 788 q 274 803 313 788 q 210 844 236 818 q 169 902 185 869 q 149 969 154 935 m 282 1022 q 219 1087 235 1063 q 203 1133 203 1111 q 222 1177 203 1161 q 263 1193 242 1193 q 311 1171 289 1193 q 361 1088 333 1149 l 414 971 l 368 938 l 282 1022 z "},"ẳ":{"ha":722,"x_min":53,"x_max":719,"o":"m 314 82 q 366 94 342 82 q 435 138 390 106 l 435 358 q 380 340 406 349 q 336 325 354 332 q 241 260 267 297 q 215 185 215 224 q 244 106 215 131 q 314 82 272 82 m 576 -17 q 486 11 521 -17 q 439 88 451 39 q 392 41 414 61 q 347 8 369 21 q 297 -12 324 -6 q 238 -19 271 -19 q 165 -8 199 -19 q 106 25 131 3 q 67 80 81 47 q 53 156 53 113 q 63 218 53 189 q 102 274 74 247 q 178 326 131 301 q 301 375 226 351 q 364 394 329 385 q 435 414 399 404 l 435 453 q 428 533 435 501 q 408 584 422 565 q 369 610 393 603 q 313 618 346 618 q 285 617 300 618 q 256 613 271 615 l 239 536 q 209 463 232 486 q 151 439 186 439 q 74 501 85 439 q 163 635 86 585 q 367 685 239 685 q 544 627 489 685 q 599 433 599 569 l 599 131 q 609 83 599 97 q 639 68 619 68 q 688 99 665 68 l 719 71 q 660 3 694 22 q 576 -17 626 -17 m 328 957 l 315 1007 q 374 1025 358 1015 q 389 1050 389 1035 q 363 1078 389 1068 q 274 1093 336 1088 l 288 1208 q 475 1075 475 1193 q 437 996 475 1026 q 328 957 399 965 m 149 968 l 201 989 q 260 913 221 942 q 363 885 300 885 q 464 913 425 885 q 524 989 503 942 l 576 968 q 556 902 571 935 q 514 844 540 869 q 450 803 488 818 q 363 788 413 788 q 275 803 313 788 q 211 844 238 818 q 169 902 185 869 q 149 968 154 935 z "},"ẵ":{"ha":722,"x_min":53,"x_max":719,"o":"m 314 82 q 366 94 342 82 q 435 138 390 106 l 435 358 q 380 340 406 349 q 336 325 354 332 q 241 260 267 297 q 215 185 215 224 q 244 106 215 131 q 314 82 272 82 m 576 -17 q 486 11 521 -17 q 439 88 451 39 q 392 41 414 61 q 347 8 369 21 q 297 -12 324 -6 q 238 -19 271 -19 q 165 -8 199 -19 q 106 25 131 3 q 67 80 81 47 q 53 156 53 113 q 63 218 53 189 q 102 274 74 247 q 178 326 131 301 q 301 375 226 351 q 364 394 329 385 q 435 414 399 404 l 435 453 q 428 533 435 501 q 408 584 422 565 q 369 610 393 603 q 313 618 346 618 q 285 617 300 618 q 256 613 271 615 l 239 536 q 209 463 232 486 q 151 439 186 439 q 74 501 85 439 q 163 635 86 585 q 367 685 239 685 q 544 627 489 685 q 599 433 599 569 l 599 131 q 609 83 599 97 q 639 68 619 68 q 688 99 665 68 l 719 71 q 660 3 694 22 q 576 -17 626 -17 m 363 788 q 274 803 313 788 q 210 844 236 818 q 169 902 185 869 q 149 969 154 935 l 201 989 q 261 913 222 942 q 363 885 300 885 q 465 913 425 885 q 525 989 506 942 l 576 969 q 556 902 571 935 q 514 844 540 869 q 450 803 488 818 q 363 788 413 788 m 126 1028 q 172 1131 136 1093 q 267 1168 207 1168 q 327 1159 303 1168 q 374 1140 351 1150 q 418 1120 396 1129 q 468 1111 440 1111 q 554 1172 528 1111 l 599 1154 q 553 1051 588 1089 q 461 1014 519 1014 q 399 1023 425 1014 q 351 1043 372 1032 q 307 1063 329 1054 q 257 1071 285 1071 q 171 1011 197 1071 l 126 1028 z "},"ǎ":{"ha":722,"x_min":53,"x_max":719,"o":"m 314 82 q 366 94 342 82 q 435 138 390 106 l 435 358 q 380 340 406 349 q 336 325 354 332 q 241 260 267 297 q 215 185 215 224 q 244 106 215 131 q 314 82 272 82 m 576 -17 q 486 11 521 -17 q 439 88 451 39 q 392 41 414 61 q 347 8 369 21 q 297 -12 324 -6 q 238 -19 271 -19 q 165 -8 199 -19 q 106 25 131 3 q 67 80 81 47 q 53 156 53 113 q 63 218 53 189 q 102 274 74 247 q 178 326 131 301 q 301 375 226 351 q 364 394 329 385 q 435 414 399 404 l 435 453 q 428 533 435 501 q 408 584 422 565 q 369 610 393 603 q 313 618 346 618 q 285 617 300 618 q 256 613 271 615 l 239 536 q 209 463 232 486 q 151 439 186 439 q 74 501 85 439 q 163 635 86 585 q 367 685 239 685 q 544 627 489 685 q 599 433 599 569 l 599 131 q 609 83 599 97 q 639 68 619 68 q 688 99 665 68 l 719 71 q 660 3 694 22 q 576 -17 626 -17 m 192 1044 l 357 900 l 522 1044 l 565 1010 l 413 789 l 301 789 l 149 1010 l 192 1044 z "},"ấ":{"ha":722,"x_min":53,"x_max":719,"o":"m 314 82 q 366 94 342 82 q 435 138 390 106 l 435 358 q 380 340 406 349 q 336 325 354 332 q 241 260 267 297 q 215 185 215 224 q 244 106 215 131 q 314 82 272 82 m 576 -17 q 486 11 521 -17 q 439 88 451 39 q 392 41 414 61 q 347 8 369 21 q 297 -12 324 -6 q 238 -19 271 -19 q 165 -8 199 -19 q 106 25 131 3 q 67 80 81 47 q 53 156 53 113 q 63 218 53 189 q 102 274 74 247 q 178 326 131 301 q 301 375 226 351 q 364 394 329 385 q 435 414 399 404 l 435 453 q 428 533 435 501 q 408 584 422 565 q 369 610 393 603 q 313 618 346 618 q 285 617 300 618 q 256 613 271 615 l 239 536 q 209 463 232 486 q 151 439 186 439 q 74 501 85 439 q 163 635 86 585 q 367 685 239 685 q 544 627 489 685 q 599 433 599 569 l 599 131 q 609 83 599 97 q 639 68 619 68 q 688 99 665 68 l 719 71 q 660 3 694 22 q 576 -17 626 -17 m 172 749 l 139 790 l 333 975 l 403 975 l 597 790 l 564 749 l 368 858 l 172 749 m 560 892 l 518 932 l 571 1032 q 613 1092 590 1075 q 654 1108 635 1108 q 695 1093 676 1108 q 714 1047 714 1078 q 701 1008 714 1029 q 654 965 688 988 l 560 892 z "},"ậ":{"ha":722,"x_min":53,"x_max":719,"o":"m 314 82 q 366 94 342 82 q 435 138 390 106 l 435 358 q 380 340 406 349 q 336 325 354 332 q 241 260 267 297 q 215 185 215 224 q 244 106 215 131 q 314 82 272 82 m 576 -17 q 486 11 521 -17 q 439 88 451 39 q 392 41 414 61 q 347 8 369 21 q 297 -12 324 -6 q 238 -19 271 -19 q 165 -8 199 -19 q 106 25 131 3 q 67 80 81 47 q 53 156 53 113 q 63 218 53 189 q 102 274 74 247 q 178 326 131 301 q 301 375 226 351 q 364 394 329 385 q 435 414 399 404 l 435 453 q 428 533 435 501 q 408 584 422 565 q 369 610 393 603 q 313 618 346 618 q 285 617 300 618 q 256 613 271 615 l 239 536 q 209 463 232 486 q 151 439 186 439 q 74 501 85 439 q 163 635 86 585 q 367 685 239 685 q 544 627 489 685 q 599 433 599 569 l 599 131 q 609 83 599 97 q 639 68 619 68 q 688 99 665 68 l 719 71 q 660 3 694 22 q 576 -17 626 -17 m 544 757 l 364 908 l 183 757 l 143 796 l 331 1039 l 397 1039 l 585 796 l 544 757 m 354 -296 q 279 -269 310 -296 q 249 -197 249 -242 q 279 -125 249 -153 q 354 -97 310 -97 q 429 -125 399 -97 q 460 -197 460 -153 q 429 -269 460 -242 q 354 -296 399 -296 z "},"ầ":{"ha":722,"x_min":32,"x_max":719,"o":"m 314 82 q 366 94 342 82 q 435 138 390 106 l 435 358 q 380 340 406 349 q 336 325 354 332 q 241 260 267 297 q 215 185 215 224 q 244 106 215 131 q 314 82 272 82 m 576 -17 q 486 11 521 -17 q 439 88 451 39 q 392 41 414 61 q 347 8 369 21 q 297 -12 324 -6 q 238 -19 271 -19 q 165 -8 199 -19 q 106 25 131 3 q 67 80 81 47 q 53 156 53 113 q 63 218 53 189 q 102 274 74 247 q 178 326 131 301 q 301 375 226 351 q 364 394 329 385 q 435 414 399 404 l 435 453 q 428 533 435 501 q 408 584 422 565 q 369 610 393 603 q 313 618 346 618 q 285 617 300 618 q 256 613 271 615 l 239 536 q 209 463 232 486 q 151 439 186 439 q 74 501 85 439 q 163 635 86 585 q 367 685 239 685 q 544 627 489 685 q 599 433 599 569 l 599 131 q 609 83 599 97 q 639 68 619 68 q 688 99 665 68 l 719 71 q 660 3 694 22 q 576 -17 626 -17 m 92 965 q 45 1008 58 988 q 32 1047 32 1029 q 51 1093 32 1078 q 92 1108 69 1108 q 134 1092 113 1108 q 175 1032 156 1075 l 228 932 l 188 892 l 92 965 m 174 749 l 140 790 l 335 975 l 404 975 l 599 790 l 565 749 l 369 858 l 174 749 z "},"ẩ":{"ha":722,"x_min":53,"x_max":719,"o":"m 314 82 q 366 94 342 82 q 435 138 390 106 l 435 358 q 380 340 406 349 q 336 325 354 332 q 241 260 267 297 q 215 185 215 224 q 244 106 215 131 q 314 82 272 82 m 576 -17 q 486 11 521 -17 q 439 88 451 39 q 392 41 414 61 q 347 8 369 21 q 297 -12 324 -6 q 238 -19 271 -19 q 165 -8 199 -19 q 106 25 131 3 q 67 80 81 47 q 53 156 53 113 q 63 218 53 189 q 102 274 74 247 q 178 326 131 301 q 301 375 226 351 q 364 394 329 385 q 435 414 399 404 l 435 453 q 428 533 435 501 q 408 584 422 565 q 369 610 393 603 q 313 618 346 618 q 285 617 300 618 q 256 613 271 615 l 239 536 q 209 463 232 486 q 151 439 186 439 q 74 501 85 439 q 163 635 86 585 q 367 685 239 685 q 544 627 489 685 q 599 433 599 569 l 599 131 q 609 83 599 97 q 639 68 619 68 q 688 99 665 68 l 719 71 q 660 3 694 22 q 576 -17 626 -17 m 172 749 l 139 790 l 333 975 l 403 975 l 597 790 l 564 749 l 368 858 l 172 749 m 547 931 q 608 958 590 942 q 625 994 625 974 q 599 1033 625 1021 q 510 1054 572 1044 l 524 1169 q 665 1122 618 1161 q 711 1015 711 1082 q 673 921 711 957 q 564 876 635 885 l 547 931 z "},"ẫ":{"ha":722,"x_min":53,"x_max":719,"o":"m 314 82 q 366 94 342 82 q 435 138 390 106 l 435 358 q 380 340 406 349 q 336 325 354 332 q 241 260 267 297 q 215 185 215 224 q 244 106 215 131 q 314 82 272 82 m 576 -17 q 486 11 521 -17 q 439 88 451 39 q 392 41 414 61 q 347 8 369 21 q 297 -12 324 -6 q 238 -19 271 -19 q 165 -8 199 -19 q 106 25 131 3 q 67 80 81 47 q 53 156 53 113 q 63 218 53 189 q 102 274 74 247 q 178 326 131 301 q 301 375 226 351 q 364 394 329 385 q 435 414 399 404 l 435 453 q 428 533 435 501 q 408 584 422 565 q 369 610 393 603 q 313 618 346 618 q 285 617 300 618 q 256 613 271 615 l 239 536 q 209 463 232 486 q 151 439 186 439 q 74 501 85 439 q 163 635 86 585 q 367 685 239 685 q 544 627 489 685 q 599 433 599 569 l 599 131 q 609 83 599 97 q 639 68 619 68 q 688 99 665 68 l 719 71 q 660 3 694 22 q 576 -17 626 -17 m 172 749 l 139 790 l 333 960 l 403 960 l 597 790 l 564 749 l 368 851 l 172 749 m 132 1001 q 178 1104 142 1067 q 272 1142 215 1142 q 333 1133 308 1142 q 379 1114 357 1124 q 424 1094 401 1103 q 474 1085 446 1085 q 560 1146 533 1085 l 604 1128 q 558 1025 593 1063 q 467 988 522 988 q 404 997 431 988 q 357 1017 378 1006 q 313 1036 335 1028 q 263 1044 290 1044 q 176 985 203 1044 l 132 1001 z "},"ạ":{"ha":722,"x_min":53,"x_max":719,"o":"m 314 82 q 366 94 342 82 q 435 138 390 106 l 435 358 q 380 340 406 349 q 336 325 354 332 q 241 260 267 297 q 215 185 215 224 q 244 106 215 131 q 314 82 272 82 m 576 -17 q 486 11 521 -17 q 439 88 451 39 q 392 41 414 61 q 347 8 369 21 q 297 -12 324 -6 q 238 -19 271 -19 q 165 -8 199 -19 q 106 25 131 3 q 67 80 81 47 q 53 156 53 113 q 63 218 53 189 q 102 274 74 247 q 178 326 131 301 q 301 375 226 351 q 364 394 329 385 q 435 414 399 404 l 435 453 q 428 533 435 501 q 408 584 422 565 q 369 610 393 603 q 313 618 346 618 q 285 617 300 618 q 256 613 271 615 l 239 536 q 209 463 232 486 q 151 439 186 439 q 74 501 85 439 q 163 635 86 585 q 367 685 239 685 q 544 627 489 685 q 599 433 599 569 l 599 131 q 609 83 599 97 q 639 68 619 68 q 688 99 665 68 l 719 71 q 660 3 694 22 q 576 -17 626 -17 m 354 -296 q 279 -269 310 -296 q 249 -197 249 -242 q 279 -125 249 -153 q 354 -97 310 -97 q 429 -125 399 -97 q 460 -197 460 -153 q 429 -269 460 -242 q 354 -296 399 -296 z "},"ả":{"ha":722,"x_min":53,"x_max":719,"o":"m 314 82 q 366 94 342 82 q 435 138 390 106 l 435 358 q 380 340 406 349 q 336 325 354 332 q 241 260 267 297 q 215 185 215 224 q 244 106 215 131 q 314 82 272 82 m 576 -17 q 486 11 521 -17 q 439 88 451 39 q 392 41 414 61 q 347 8 369 21 q 297 -12 324 -6 q 238 -19 271 -19 q 165 -8 199 -19 q 106 25 131 3 q 67 80 81 47 q 53 156 53 113 q 63 218 53 189 q 102 274 74 247 q 178 326 131 301 q 301 375 226 351 q 364 394 329 385 q 435 414 399 404 l 435 453 q 428 533 435 501 q 408 584 422 565 q 369 610 393 603 q 313 618 346 618 q 285 617 300 618 q 256 613 271 615 l 239 536 q 209 463 232 486 q 151 439 186 439 q 74 501 85 439 q 163 635 86 585 q 367 685 239 685 q 544 627 489 685 q 599 433 599 569 l 599 131 q 609 83 599 97 q 639 68 619 68 q 688 99 665 68 l 719 71 q 660 3 694 22 q 576 -17 626 -17 m 343 769 l 326 824 q 388 851 371 835 q 404 888 404 867 q 378 926 404 914 q 289 947 351 938 l 304 1063 q 444 1015 399 1054 q 490 908 490 975 q 452 815 490 850 q 343 769 414 779 z "},"å":{"ha":722,"x_min":53,"x_max":719,"o":"m 314 82 q 366 94 342 82 q 435 138 390 106 l 435 358 q 380 340 406 349 q 336 325 354 332 q 241 260 267 297 q 215 185 215 224 q 244 106 215 131 q 314 82 272 82 m 576 -17 q 486 11 521 -17 q 439 88 451 39 q 392 41 414 61 q 347 8 369 21 q 297 -12 324 -6 q 238 -19 271 -19 q 165 -8 199 -19 q 106 25 131 3 q 67 80 81 47 q 53 156 53 113 q 63 218 53 189 q 102 274 74 247 q 178 326 131 301 q 301 375 226 351 q 364 394 329 385 q 435 414 399 404 l 435 453 q 428 533 435 501 q 408 584 422 565 q 369 610 393 603 q 313 618 346 618 q 285 617 300 618 q 256 613 271 615 l 239 536 q 209 463 232 486 q 151 439 186 439 q 74 501 85 439 q 163 635 86 585 q 367 685 239 685 q 544 627 489 685 q 599 433 599 569 l 599 131 q 609 83 599 97 q 639 68 619 68 q 688 99 665 68 l 719 71 q 660 3 694 22 q 576 -17 626 -17 m 363 829 q 422 856 401 829 q 443 915 443 883 q 423 976 443 949 q 363 1003 403 1003 q 303 976 324 1003 q 282 915 282 949 q 302 856 282 883 q 363 829 322 829 m 363 765 q 303 776 331 765 q 253 806 275 786 q 219 853 232 825 q 207 915 207 881 q 219 978 207 950 q 253 1025 232 1006 q 303 1055 275 1044 q 363 1065 331 1065 q 422 1056 393 1065 q 472 1026 450 1046 q 506 979 493 1007 q 518 915 518 951 q 506 853 518 881 q 472 806 493 825 q 422 776 450 786 q 363 765 393 765 z "},"ą":{"ha":722,"x_min":53,"x_max":754,"o":"m 53 156 q 63 218 53 189 q 102 274 74 247 q 178 326 131 301 q 301 375 226 351 q 364 394 329 385 q 435 414 399 404 l 435 453 q 428 533 435 501 q 408 584 422 565 q 369 610 393 603 q 313 618 346 618 q 257 614 288 618 l 240 532 q 210 458 233 482 q 151 435 186 435 q 99 452 119 435 q 74 500 79 469 q 163 634 86 583 q 367 685 239 685 q 544 627 489 685 q 599 433 599 569 l 599 132 q 636 68 599 68 q 663 76 651 68 q 688 99 674 83 l 719 69 q 689 28 704 44 q 650 -4 674 13 q 590 -59 614 -31 q 567 -122 567 -87 q 593 -190 567 -165 q 663 -214 619 -214 q 699 -210 682 -214 q 736 -197 717 -207 l 754 -242 q 683 -293 725 -276 q 590 -310 640 -310 q 489 -274 526 -310 q 451 -181 451 -239 q 486 -87 451 -128 q 574 -18 521 -46 q 483 13 515 -15 q 440 88 451 40 q 392 41 414 61 q 347 8 369 21 q 297 -12 324 -6 q 238 -19 271 -19 q 165 -8 199 -19 q 106 25 131 3 q 67 80 81 47 q 53 156 53 113 m 314 82 q 366 94 342 82 q 435 138 390 106 l 435 358 q 380 340 406 349 q 336 325 354 332 q 241 260 267 297 q 215 185 215 224 q 244 106 215 131 q 314 82 272 82 z "},"æ":{"ha":1092,"x_min":53,"x_max":1039,"o":"m 215 186 q 245 106 215 131 q 315 82 275 82 q 348 85 333 82 q 379 96 363 88 q 416 119 396 104 q 464 157 436 133 q 429 329 429 233 q 429 342 429 336 q 431 356 429 349 q 378 338 403 347 q 336 322 354 329 q 241 260 267 294 q 215 186 215 225 m 756 -19 q 600 14 668 -19 q 489 111 532 47 q 422 47 453 72 q 363 6 392 21 q 305 -14 333 -8 q 243 -19 276 -19 q 106 26 160 -19 q 53 158 53 71 q 63 220 53 192 q 102 274 74 249 q 178 324 131 300 q 301 374 226 349 q 364 393 329 383 q 435 413 399 403 l 435 453 q 428 533 435 501 q 408 584 422 565 q 370 610 393 603 q 315 618 347 618 q 257 614 290 618 l 240 532 q 210 458 233 482 q 151 435 186 435 q 99 452 119 435 q 74 500 79 469 q 163 634 86 583 q 367 685 239 685 q 480 663 432 685 q 556 594 528 642 q 653 662 599 639 q 765 685 707 685 q 878 665 828 685 q 964 608 928 644 q 1019 519 1000 571 q 1039 404 1039 468 q 1031 329 1039 360 l 606 329 q 667 150 610 210 q 813 90 725 90 q 917 115 875 90 q 994 178 960 139 l 1035 142 q 924 22 994 64 q 756 -19 854 -19 m 754 618 q 705 606 729 618 q 660 568 681 594 q 626 499 640 542 q 607 394 611 457 l 797 394 q 863 415 846 394 q 879 474 879 435 q 843 578 879 538 q 754 618 807 618 z "},"ç":{"ha":694,"x_min":49,"x_max":649,"o":"m 411 618 q 340 602 374 618 q 280 553 306 586 q 239 469 254 519 q 224 350 224 418 q 281 157 224 224 q 432 90 339 90 q 531 115 488 90 q 607 183 575 139 l 649 153 q 545 24 614 67 q 378 -19 476 -19 q 247 3 307 -19 q 142 72 186 26 q 74 182 99 117 q 49 331 49 247 q 76 480 49 414 q 152 592 104 546 q 263 661 200 638 q 396 685 326 685 q 491 670 447 685 q 568 629 535 656 q 622 568 601 603 q 649 493 643 533 q 569 432 632 432 q 479 529 492 432 l 461 613 q 411 618 439 618 m 326 -121 l 344 6 l 407 6 l 397 -76 q 494 -117 460 -87 q 529 -192 529 -146 q 486 -276 529 -243 q 358 -310 443 -310 q 303 -305 326 -310 q 261 -293 281 -300 l 274 -240 q 343 -249 308 -249 q 401 -233 383 -249 q 419 -190 419 -217 q 397 -143 419 -158 q 326 -121 374 -128 z "},"ć":{"ha":694,"x_min":49,"x_max":649,"o":"m 411 618 q 340 602 374 618 q 280 553 306 586 q 239 469 254 519 q 224 350 224 418 q 281 157 224 224 q 432 90 339 90 q 531 115 488 90 q 607 183 575 139 l 649 153 q 545 24 614 67 q 378 -19 476 -19 q 247 3 307 -19 q 142 72 186 26 q 74 182 99 117 q 49 331 49 247 q 76 480 49 414 q 152 592 104 546 q 263 661 200 638 q 396 685 326 685 q 491 670 447 685 q 568 629 535 656 q 622 568 601 603 q 649 493 643 533 q 569 432 632 432 q 479 529 492 432 l 461 613 q 411 618 439 618 m 314 806 q 365 889 338 846 q 431 993 392 932 q 475 1049 454 1033 q 522 1065 496 1065 q 566 1049 546 1065 q 586 1000 586 1032 q 519 906 586 960 q 431 831 467 863 q 358 771 394 800 l 314 806 z "},"č":{"ha":694,"x_min":49,"x_max":649,"o":"m 411 618 q 340 602 374 618 q 280 553 306 586 q 239 469 254 519 q 224 350 224 418 q 281 157 224 224 q 432 90 339 90 q 531 115 488 90 q 607 183 575 139 l 649 153 q 545 24 614 67 q 378 -19 476 -19 q 247 3 307 -19 q 142 72 186 26 q 74 182 99 117 q 49 331 49 247 q 76 480 49 414 q 152 592 104 546 q 263 661 200 638 q 396 685 326 685 q 491 670 447 685 q 568 629 535 656 q 622 568 601 603 q 649 493 643 533 q 569 432 632 432 q 479 529 492 432 l 461 613 q 411 618 439 618 m 228 1044 l 393 900 l 558 1044 l 601 1010 l 449 789 l 338 789 l 185 1010 l 228 1044 z "},"ĉ":{"ha":694,"x_min":49,"x_max":649,"o":"m 411 618 q 340 602 374 618 q 280 553 306 586 q 239 469 254 519 q 224 350 224 418 q 281 157 224 224 q 432 90 339 90 q 531 115 488 90 q 607 183 575 139 l 649 153 q 545 24 614 67 q 378 -19 476 -19 q 247 3 307 -19 q 142 72 186 26 q 74 182 99 117 q 49 331 49 247 q 76 480 49 414 q 152 592 104 546 q 263 661 200 638 q 396 685 326 685 q 491 670 447 685 q 568 629 535 656 q 622 568 601 603 q 649 493 643 533 q 569 432 632 432 q 479 529 492 432 l 461 613 q 411 618 439 618 m 567 757 l 386 908 l 206 757 l 165 796 l 353 1039 l 419 1039 l 607 796 l 567 757 z "},"ċ":{"ha":694,"x_min":49,"x_max":649,"o":"m 411 618 q 340 602 374 618 q 280 553 306 586 q 239 469 254 519 q 224 350 224 418 q 281 157 224 224 q 432 90 339 90 q 531 115 488 90 q 607 183 575 139 l 649 153 q 545 24 614 67 q 378 -19 476 -19 q 247 3 307 -19 q 142 72 186 26 q 74 182 99 117 q 49 331 49 247 q 76 480 49 414 q 152 592 104 546 q 263 661 200 638 q 396 685 326 685 q 491 670 447 685 q 568 629 535 656 q 622 568 601 603 q 649 493 643 533 q 569 432 632 432 q 479 529 492 432 l 461 613 q 411 618 439 618 m 403 806 q 328 833 358 806 q 297 904 297 860 q 328 976 297 949 q 403 1004 358 1004 q 478 976 447 1004 q 508 904 508 949 q 478 833 508 860 q 403 806 447 806 z "},"ď":{"ha":840,"x_min":51,"x_max":928,"o":"m 229 329 q 276 141 229 203 q 399 79 324 79 q 464 94 435 79 q 521 136 493 108 l 521 535 q 460 575 489 563 q 400 588 432 588 q 334 572 365 588 q 280 525 303 557 q 243 444 257 493 q 229 329 229 396 m 538 -15 l 526 74 q 441 4 488 28 q 332 -19 394 -19 q 219 4 271 -19 q 131 73 168 28 q 72 182 93 118 q 51 326 51 246 q 76 475 51 408 q 141 588 100 542 q 237 660 182 635 q 353 685 292 685 q 449 665 407 685 q 528 600 490 644 l 528 888 l 419 901 l 419 956 l 674 1018 l 694 1006 l 689 810 l 689 75 l 779 57 l 779 0 l 538 -15 m 869 1024 q 915 1008 903 1024 q 928 965 928 992 q 914 889 928 935 q 882 799 900 843 l 849 718 l 793 718 l 799 1003 q 869 1024 836 1024 z "},"đ":{"ha":806,"x_min":51,"x_max":779,"o":"m 283 738 l 283 810 l 528 810 l 528 888 l 419 901 l 419 956 l 674 1018 l 694 1006 l 689 810 l 779 810 l 779 738 l 689 738 l 689 75 l 779 57 l 779 0 l 538 -15 l 526 75 q 439 3 486 26 q 332 -19 392 -19 q 219 3 271 -19 q 131 70 168 26 q 72 176 93 114 q 51 315 51 238 q 76 459 51 394 q 140 569 100 524 q 235 640 181 615 q 349 665 289 665 q 449 645 407 665 q 528 581 492 625 l 528 738 l 283 738 m 229 318 q 276 138 229 197 q 399 79 324 79 q 464 94 435 79 q 521 136 493 108 l 521 515 q 460 556 489 543 q 403 568 432 568 q 280 506 331 568 q 229 318 229 443 z "},"ḍ":{"ha":806,"x_min":51,"x_max":779,"o":"m 229 329 q 276 141 229 203 q 399 79 324 79 q 464 94 435 79 q 521 136 493 108 l 521 535 q 460 575 489 563 q 400 588 432 588 q 334 572 365 588 q 280 525 303 557 q 243 444 257 493 q 229 329 229 396 m 538 -15 l 526 74 q 441 4 488 28 q 332 -19 394 -19 q 219 4 271 -19 q 131 73 168 28 q 72 182 93 118 q 51 326 51 246 q 76 475 51 408 q 141 588 100 542 q 237 660 182 635 q 353 685 292 685 q 449 665 407 685 q 528 600 490 644 l 528 888 l 419 901 l 419 956 l 674 1018 l 694 1006 l 689 810 l 689 75 l 779 57 l 779 0 l 538 -15 m 438 -296 q 363 -269 393 -296 q 332 -197 332 -242 q 363 -125 332 -153 q 438 -97 393 -97 q 513 -125 482 -97 q 543 -197 543 -153 q 513 -269 543 -242 q 438 -296 482 -296 z "},"ḏ":{"ha":806,"x_min":51,"x_max":779,"o":"m 229 329 q 276 141 229 203 q 399 79 324 79 q 464 94 435 79 q 521 136 493 108 l 521 535 q 460 575 489 563 q 400 588 432 588 q 334 572 365 588 q 280 525 303 557 q 243 444 257 493 q 229 329 229 396 m 538 -15 l 526 74 q 441 4 488 28 q 332 -19 394 -19 q 219 4 271 -19 q 131 73 168 28 q 72 182 93 118 q 51 326 51 246 q 76 475 51 408 q 141 588 100 542 q 237 660 182 635 q 353 685 292 685 q 449 665 407 685 q 528 600 490 644 l 528 888 l 419 901 l 419 956 l 674 1018 l 694 1006 l 689 810 l 689 75 l 779 57 l 779 0 l 538 -15 m 236 -256 l 236 -151 l 636 -151 l 636 -256 l 236 -256 z "},"è":{"ha":715,"x_min":51,"x_max":661,"o":"m 389 685 q 501 665 450 685 q 587 608 551 644 q 642 520 622 572 q 661 406 661 468 q 653 329 661 360 l 228 329 q 291 149 233 208 q 436 90 349 90 q 540 115 499 90 q 617 178 582 139 l 657 142 q 547 22 617 64 q 379 -19 476 -19 q 246 4 306 -19 q 142 73 186 28 q 75 183 99 118 q 51 329 51 247 q 79 478 51 413 q 154 590 107 544 q 263 660 201 636 q 389 685 324 685 m 379 618 q 329 606 354 618 q 283 568 304 594 q 248 499 263 542 q 229 394 233 457 l 419 394 q 486 415 469 394 q 503 474 503 436 q 467 578 503 538 q 379 618 431 618 m 451 806 l 407 771 q 334 831 371 800 q 246 906 297 863 q 179 1000 179 960 q 199 1049 179 1032 q 243 1065 219 1065 q 290 1049 269 1065 q 335 994 311 1033 q 400 890 374 933 q 451 806 426 846 z "},"é":{"ha":715,"x_min":51,"x_max":661,"o":"m 389 685 q 501 665 450 685 q 587 608 551 644 q 642 520 622 572 q 661 406 661 468 q 653 329 661 360 l 228 329 q 291 149 233 208 q 436 90 349 90 q 540 115 499 90 q 617 178 582 139 l 657 142 q 547 22 617 64 q 379 -19 476 -19 q 246 4 306 -19 q 142 73 186 28 q 75 183 99 118 q 51 329 51 247 q 79 478 51 413 q 154 590 107 544 q 263 660 201 636 q 389 685 324 685 m 379 618 q 329 606 354 618 q 283 568 304 594 q 248 499 263 542 q 229 394 233 457 l 419 394 q 486 415 469 394 q 503 474 503 436 q 467 578 503 538 q 379 618 431 618 m 307 806 q 358 889 331 846 q 424 993 385 932 q 468 1049 447 1033 q 515 1065 489 1065 q 559 1049 539 1065 q 579 1000 579 1032 q 513 906 579 960 q 424 831 460 863 q 351 771 388 800 l 307 806 z "},"ê":{"ha":715,"x_min":51,"x_max":661,"o":"m 389 685 q 501 665 450 685 q 587 608 551 644 q 642 520 622 572 q 661 406 661 468 q 653 329 661 360 l 228 329 q 291 149 233 208 q 436 90 349 90 q 540 115 499 90 q 617 178 582 139 l 657 142 q 547 22 617 64 q 379 -19 476 -19 q 246 4 306 -19 q 142 73 186 28 q 75 183 99 118 q 51 329 51 247 q 79 478 51 413 q 154 590 107 544 q 263 660 201 636 q 389 685 324 685 m 379 618 q 329 606 354 618 q 283 568 304 594 q 248 499 263 542 q 229 394 233 457 l 419 394 q 486 415 469 394 q 503 474 503 436 q 467 578 503 538 q 379 618 431 618 m 563 757 l 382 908 l 201 757 l 161 796 l 349 1039 l 415 1039 l 603 796 l 563 757 z "},"ě":{"ha":715,"x_min":51,"x_max":661,"o":"m 389 685 q 501 665 450 685 q 587 608 551 644 q 642 520 622 572 q 661 406 661 468 q 653 329 661 360 l 228 329 q 291 149 233 208 q 436 90 349 90 q 540 115 499 90 q 617 178 582 139 l 657 142 q 547 22 617 64 q 379 -19 476 -19 q 246 4 306 -19 q 142 73 186 28 q 75 183 99 118 q 51 329 51 247 q 79 478 51 413 q 154 590 107 544 q 263 660 201 636 q 389 685 324 685 m 379 618 q 329 606 354 618 q 283 568 304 594 q 248 499 263 542 q 229 394 233 457 l 419 394 q 486 415 469 394 q 503 474 503 436 q 467 578 503 538 q 379 618 431 618 m 219 1044 l 385 900 l 550 1044 l 593 1010 l 440 789 l 329 789 l 176 1010 l 219 1044 z "},"ë":{"ha":715,"x_min":51,"x_max":661,"o":"m 389 685 q 501 665 450 685 q 587 608 551 644 q 642 520 622 572 q 661 406 661 468 q 653 329 661 360 l 228 329 q 291 149 233 208 q 436 90 349 90 q 540 115 499 90 q 617 178 582 139 l 657 142 q 547 22 617 64 q 379 -19 476 -19 q 246 4 306 -19 q 142 73 186 28 q 75 183 99 118 q 51 329 51 247 q 79 478 51 413 q 154 590 107 544 q 263 660 201 636 q 389 685 324 685 m 379 618 q 329 606 354 618 q 283 568 304 594 q 248 499 263 542 q 229 394 233 457 l 419 394 q 486 415 469 394 q 503 474 503 436 q 467 578 503 538 q 379 618 431 618 m 540 814 q 474 838 503 814 q 446 903 446 863 q 474 968 446 943 q 540 993 503 993 q 607 968 579 993 q 635 903 635 943 q 607 838 635 863 q 540 814 579 814 m 229 814 q 163 838 192 814 q 135 903 135 863 q 163 968 135 943 q 229 993 192 993 q 296 968 268 993 q 324 903 324 943 q 296 838 324 863 q 229 814 268 814 z "},"ē":{"ha":715,"x_min":51,"x_max":661,"o":"m 389 685 q 501 665 450 685 q 587 608 551 644 q 642 520 622 572 q 661 406 661 468 q 653 329 661 360 l 228 329 q 291 149 233 208 q 436 90 349 90 q 540 115 499 90 q 617 178 582 139 l 657 142 q 547 22 617 64 q 379 -19 476 -19 q 246 4 306 -19 q 142 73 186 28 q 75 183 99 118 q 51 329 51 247 q 79 478 51 413 q 154 590 107 544 q 263 660 201 636 q 389 685 324 685 m 379 618 q 329 606 354 618 q 283 568 304 594 q 248 499 263 542 q 229 394 233 457 l 419 394 q 486 415 469 394 q 503 474 503 436 q 467 578 503 538 q 379 618 431 618 m 178 822 l 178 926 l 578 926 l 578 822 l 178 822 z "},"ė":{"ha":715,"x_min":51,"x_max":661,"o":"m 389 685 q 501 665 450 685 q 587 608 551 644 q 642 520 622 572 q 661 406 661 468 q 653 329 661 360 l 228 329 q 291 149 233 208 q 436 90 349 90 q 540 115 499 90 q 617 178 582 139 l 657 142 q 547 22 617 64 q 379 -19 476 -19 q 246 4 306 -19 q 142 73 186 28 q 75 183 99 118 q 51 329 51 247 q 79 478 51 413 q 154 590 107 544 q 263 660 201 636 q 389 685 324 685 m 379 618 q 329 606 354 618 q 283 568 304 594 q 248 499 263 542 q 229 394 233 457 l 419 394 q 486 415 469 394 q 503 474 503 436 q 467 578 503 538 q 379 618 431 618 m 389 806 q 314 833 344 806 q 283 904 283 860 q 314 976 283 949 q 389 1004 344 1004 q 464 976 433 1004 q 494 904 494 949 q 464 833 494 860 q 389 806 433 806 z "},"ę":{"ha":715,"x_min":51,"x_max":661,"o":"m 340 -181 q 366 -88 340 -131 q 433 -15 392 -46 q 379 -19 404 -19 q 246 5 306 -19 q 142 74 186 29 q 75 185 99 119 q 51 333 51 250 q 79 481 51 415 q 154 591 107 546 q 263 660 201 636 q 389 685 324 685 q 501 665 450 685 q 587 608 551 644 q 642 519 622 571 q 661 404 661 468 q 653 329 661 360 l 228 329 q 290 150 232 210 q 436 90 349 90 q 540 114 499 90 q 617 178 581 138 l 657 142 q 609 72 636 100 q 542 15 582 43 q 456 -121 456 -43 q 482 -190 456 -165 q 551 -214 508 -214 q 625 -196 590 -214 l 644 -242 q 573 -293 615 -276 q 479 -310 531 -310 q 378 -274 415 -310 q 340 -181 340 -239 m 378 618 q 328 606 353 618 q 283 568 303 594 q 248 499 263 542 q 229 394 233 457 l 419 394 q 486 413 469 394 q 503 474 503 432 q 467 578 503 538 q 378 618 431 618 z "},"ĕ":{"ha":715,"x_min":51,"x_max":661,"o":"m 389 685 q 501 665 450 685 q 587 608 551 644 q 642 520 622 572 q 661 406 661 468 q 653 329 661 360 l 228 329 q 291 149 233 208 q 436 90 349 90 q 540 115 499 90 q 617 178 582 139 l 657 142 q 547 22 617 64 q 379 -19 476 -19 q 246 4 306 -19 q 142 73 186 28 q 75 183 99 118 q 51 329 51 247 q 79 478 51 413 q 154 590 107 544 q 263 660 201 636 q 389 685 324 685 m 379 618 q 329 606 354 618 q 283 568 304 594 q 248 499 263 542 q 229 394 233 457 l 419 394 q 486 415 469 394 q 503 474 503 436 q 467 578 503 538 q 379 618 431 618 m 157 1004 l 211 1021 q 270 932 232 968 q 374 896 308 896 q 477 933 439 896 q 536 1021 515 969 l 590 1004 q 572 928 586 967 q 532 860 558 890 q 467 812 506 831 q 374 793 428 793 q 281 812 319 793 q 215 860 242 831 q 175 928 189 890 q 157 1004 161 967 z "},"ế":{"ha":715,"x_min":51,"x_max":726,"o":"m 389 685 q 501 665 450 685 q 587 608 551 644 q 642 520 622 572 q 661 406 661 468 q 653 329 661 360 l 228 329 q 291 149 233 208 q 436 90 349 90 q 540 115 499 90 q 617 178 582 139 l 657 142 q 547 22 617 64 q 379 -19 476 -19 q 246 4 306 -19 q 142 73 186 28 q 75 183 99 118 q 51 329 51 247 q 79 478 51 413 q 154 590 107 544 q 263 660 201 636 q 389 685 324 685 m 379 618 q 329 606 354 618 q 283 568 304 594 q 248 499 263 542 q 229 394 233 457 l 419 394 q 486 415 469 394 q 503 474 503 436 q 467 578 503 538 q 379 618 431 618 m 185 749 l 151 790 l 346 975 l 415 975 l 610 790 l 576 749 l 381 858 l 185 749 m 572 892 l 531 932 l 583 1032 q 625 1092 603 1075 q 667 1108 647 1108 q 708 1093 689 1108 q 726 1047 726 1078 q 713 1008 726 1029 q 667 965 700 988 l 572 892 z "},"ệ":{"ha":715,"x_min":51,"x_max":661,"o":"m 389 685 q 501 665 450 685 q 587 608 551 644 q 642 520 622 572 q 661 406 661 468 q 653 329 661 360 l 228 329 q 291 149 233 208 q 436 90 349 90 q 540 115 499 90 q 617 178 582 139 l 657 142 q 547 22 617 64 q 379 -19 476 -19 q 246 4 306 -19 q 142 73 186 28 q 75 183 99 118 q 51 329 51 247 q 79 478 51 413 q 154 590 107 544 q 263 660 201 636 q 389 685 324 685 m 379 618 q 329 606 354 618 q 283 568 304 594 q 248 499 263 542 q 229 394 233 457 l 419 394 q 486 415 469 394 q 503 474 503 436 q 467 578 503 538 q 379 618 431 618 m 563 757 l 382 908 l 201 757 l 161 796 l 349 1039 l 415 1039 l 603 796 l 563 757 m 374 -296 q 299 -269 329 -296 q 268 -197 268 -242 q 299 -125 268 -153 q 374 -97 329 -97 q 449 -125 418 -97 q 479 -197 479 -153 q 449 -269 479 -242 q 374 -296 418 -296 z "},"ề":{"ha":715,"x_min":39,"x_max":661,"o":"m 389 685 q 501 665 450 685 q 587 608 551 644 q 642 520 622 572 q 661 406 661 468 q 653 329 661 360 l 228 329 q 291 149 233 208 q 436 90 349 90 q 540 115 499 90 q 617 178 582 139 l 657 142 q 547 22 617 64 q 379 -19 476 -19 q 246 4 306 -19 q 142 73 186 28 q 75 183 99 118 q 51 329 51 247 q 79 478 51 413 q 154 590 107 544 q 263 660 201 636 q 389 685 324 685 m 379 618 q 329 606 354 618 q 283 568 304 594 q 248 499 263 542 q 229 394 233 457 l 419 394 q 486 415 469 394 q 503 474 503 436 q 467 578 503 538 q 379 618 431 618 m 99 965 q 52 1008 65 988 q 39 1047 39 1029 q 58 1093 39 1078 q 99 1108 76 1108 q 141 1092 119 1108 q 182 1032 163 1075 l 235 932 l 194 892 l 99 965 m 181 749 l 147 790 l 342 975 l 411 975 l 606 790 l 572 749 l 376 858 l 181 749 z "},"ể":{"ha":715,"x_min":51,"x_max":719,"o":"m 389 685 q 501 665 450 685 q 587 608 551 644 q 642 520 622 572 q 661 406 661 468 q 653 329 661 360 l 228 329 q 291 149 233 208 q 436 90 349 90 q 540 115 499 90 q 617 178 582 139 l 657 142 q 547 22 617 64 q 379 -19 476 -19 q 246 4 306 -19 q 142 73 186 28 q 75 183 99 118 q 51 329 51 247 q 79 478 51 413 q 154 590 107 544 q 263 660 201 636 q 389 685 324 685 m 379 618 q 329 606 354 618 q 283 568 304 594 q 248 499 263 542 q 229 394 233 457 l 419 394 q 486 415 469 394 q 503 474 503 436 q 467 578 503 538 q 379 618 431 618 m 181 749 l 147 790 l 342 975 l 411 975 l 606 790 l 572 749 l 376 858 l 181 749 m 556 931 q 616 958 599 942 q 633 994 633 974 q 607 1033 633 1021 q 518 1054 581 1044 l 532 1169 q 673 1122 626 1161 q 719 1015 719 1082 q 681 921 719 957 q 572 876 643 885 l 556 931 z "},"ễ":{"ha":715,"x_min":51,"x_max":661,"o":"m 389 685 q 501 665 450 685 q 587 608 551 644 q 642 520 622 572 q 661 406 661 468 q 653 329 661 360 l 228 329 q 291 149 233 208 q 436 90 349 90 q 540 115 499 90 q 617 178 582 139 l 657 142 q 547 22 617 64 q 379 -19 476 -19 q 246 4 306 -19 q 142 73 186 28 q 75 183 99 118 q 51 329 51 247 q 79 478 51 413 q 154 590 107 544 q 263 660 201 636 q 389 685 324 685 m 379 618 q 329 606 354 618 q 283 568 304 594 q 248 499 263 542 q 229 394 233 457 l 419 394 q 486 415 469 394 q 503 474 503 436 q 467 578 503 538 q 379 618 431 618 m 181 749 l 147 790 l 342 960 l 411 960 l 606 790 l 572 749 l 376 851 l 181 749 m 140 1001 q 187 1104 150 1067 q 281 1142 224 1142 q 341 1133 317 1142 q 388 1114 365 1124 q 432 1094 410 1103 q 482 1085 454 1085 q 568 1146 542 1085 l 613 1128 q 566 1025 601 1063 q 475 988 531 988 q 413 997 439 988 q 365 1017 386 1006 q 321 1036 343 1028 q 271 1044 299 1044 q 185 985 211 1044 l 140 1001 z "},"ẹ":{"ha":715,"x_min":51,"x_max":661,"o":"m 389 685 q 501 665 450 685 q 587 608 551 644 q 642 520 622 572 q 661 406 661 468 q 653 329 661 360 l 228 329 q 291 149 233 208 q 436 90 349 90 q 540 115 499 90 q 617 178 582 139 l 657 142 q 547 22 617 64 q 379 -19 476 -19 q 246 4 306 -19 q 142 73 186 28 q 75 183 99 118 q 51 329 51 247 q 79 478 51 413 q 154 590 107 544 q 263 660 201 636 q 389 685 324 685 m 379 618 q 329 606 354 618 q 283 568 304 594 q 248 499 263 542 q 229 394 233 457 l 419 394 q 486 415 469 394 q 503 474 503 436 q 467 578 503 538 q 379 618 431 618 m 375 -296 q 300 -269 331 -296 q 269 -197 269 -242 q 300 -125 269 -153 q 375 -97 331 -97 q 450 -125 419 -97 q 481 -197 481 -153 q 450 -269 481 -242 q 375 -296 419 -296 z "},"ẻ":{"ha":715,"x_min":51,"x_max":661,"o":"m 389 685 q 501 665 450 685 q 587 608 551 644 q 642 520 622 572 q 661 406 661 468 q 653 329 661 360 l 228 329 q 291 149 233 208 q 436 90 349 90 q 540 115 499 90 q 617 178 582 139 l 657 142 q 547 22 617 64 q 379 -19 476 -19 q 246 4 306 -19 q 142 73 186 28 q 75 183 99 118 q 51 329 51 247 q 79 478 51 413 q 154 590 107 544 q 263 660 201 636 q 389 685 324 685 m 379 618 q 329 606 354 618 q 283 568 304 594 q 248 499 263 542 q 229 394 233 457 l 419 394 q 486 415 469 394 q 503 474 503 436 q 467 578 503 538 q 379 618 431 618 m 346 769 l 329 824 q 390 851 374 835 q 407 888 407 867 q 381 926 407 914 q 292 947 354 938 l 307 1063 q 447 1015 401 1054 q 493 908 493 975 q 455 815 493 850 q 346 769 417 779 z "},"ẽ":{"ha":715,"x_min":51,"x_max":661,"o":"m 389 685 q 501 665 450 685 q 587 608 551 644 q 642 520 622 572 q 661 406 661 468 q 653 329 661 360 l 228 329 q 291 149 233 208 q 436 90 349 90 q 540 115 499 90 q 617 178 582 139 l 657 142 q 547 22 617 64 q 379 -19 476 -19 q 246 4 306 -19 q 142 73 186 28 q 75 183 99 118 q 51 329 51 247 q 79 478 51 413 q 154 590 107 544 q 263 660 201 636 q 389 685 324 685 m 379 618 q 329 606 354 618 q 283 568 304 594 q 248 499 263 542 q 229 394 233 457 l 419 394 q 486 415 469 394 q 503 474 503 436 q 467 578 503 538 q 379 618 431 618 m 140 815 q 188 952 151 903 q 283 1001 225 1001 q 340 988 317 1001 q 386 958 364 975 q 430 922 408 940 q 479 903 451 903 q 531 929 510 903 q 565 1000 551 956 l 613 982 q 565 846 600 896 q 471 796 529 796 q 413 809 439 796 q 367 838 388 822 q 323 876 344 857 q 274 894 301 894 q 222 868 242 894 q 188 797 201 842 l 140 815 z "},"ğ":{"ha":736,"x_min":36,"x_max":713,"o":"m 342 -251 q 508 -216 451 -251 q 564 -128 564 -181 q 537 -61 564 -89 q 443 -33 510 -33 l 289 -33 q 197 -25 236 -33 q 169 -75 178 -51 q 160 -129 160 -99 q 207 -223 160 -194 q 342 -251 254 -251 m 67 458 q 138 624 67 563 q 338 685 210 685 q 535 626 464 685 l 692 686 l 713 672 l 713 575 l 578 575 q 607 458 607 526 q 536 294 607 356 q 338 233 465 233 q 222 249 275 233 q 196 172 196 213 q 213 131 196 146 q 276 115 231 115 l 450 115 q 644 64 586 115 q 703 -75 703 13 q 679 -169 703 -124 q 608 -249 656 -214 q 491 -303 561 -283 q 329 -324 421 -324 q 192 -310 249 -324 q 101 -275 136 -297 q 51 -223 67 -253 q 36 -158 36 -193 q 65 -77 36 -114 q 161 -8 94 -40 q 97 35 117 7 q 76 101 76 64 q 101 181 76 142 q 176 267 125 221 q 95 343 124 294 q 67 458 67 392 m 339 624 q 251 578 282 624 q 221 458 221 533 q 249 339 221 383 q 335 294 278 294 q 424 340 393 294 q 454 463 454 386 q 424 580 454 536 q 339 624 394 624 m 133 1004 l 188 1021 q 247 932 208 968 q 350 896 285 896 q 453 933 415 896 q 513 1021 492 969 l 567 1004 q 549 928 563 967 q 508 860 535 890 q 443 812 482 831 q 350 793 404 793 q 257 812 296 793 q 192 860 218 831 q 151 928 165 890 q 133 1004 138 967 z "},"ġ":{"ha":736,"x_min":36,"x_max":713,"o":"m 342 -251 q 508 -216 451 -251 q 564 -128 564 -181 q 537 -61 564 -89 q 443 -33 510 -33 l 289 -33 q 197 -25 236 -33 q 169 -75 178 -51 q 160 -129 160 -99 q 207 -223 160 -194 q 342 -251 254 -251 m 67 458 q 138 624 67 563 q 338 685 210 685 q 535 626 464 685 l 692 686 l 713 672 l 713 575 l 578 575 q 607 458 607 526 q 536 294 607 356 q 338 233 465 233 q 222 249 275 233 q 196 172 196 213 q 213 131 196 146 q 276 115 231 115 l 450 115 q 644 64 586 115 q 703 -75 703 13 q 679 -169 703 -124 q 608 -249 656 -214 q 491 -303 561 -283 q 329 -324 421 -324 q 192 -310 249 -324 q 101 -275 136 -297 q 51 -223 67 -253 q 36 -158 36 -193 q 65 -77 36 -114 q 161 -8 94 -40 q 97 35 117 7 q 76 101 76 64 q 101 181 76 142 q 176 267 125 221 q 95 343 124 294 q 67 458 67 392 m 339 624 q 251 578 282 624 q 221 458 221 533 q 249 339 221 383 q 335 294 278 294 q 424 340 393 294 q 454 463 454 386 q 424 580 454 536 q 339 624 394 624 m 346 806 q 271 833 301 806 q 240 904 240 860 q 271 976 240 949 q 346 1004 301 1004 q 421 976 390 1004 q 451 904 451 949 q 421 833 451 860 q 346 806 390 806 z "},"ģ":{"ha":736,"x_min":36,"x_max":713,"o":"m 342 -251 q 508 -216 451 -251 q 564 -128 564 -181 q 537 -61 564 -89 q 443 -33 510 -33 l 289 -33 q 197 -25 236 -33 q 169 -75 178 -51 q 160 -129 160 -99 q 207 -223 160 -194 q 342 -251 254 -251 m 67 458 q 138 624 67 563 q 338 685 210 685 q 535 626 464 685 l 692 686 l 713 672 l 713 575 l 578 575 q 607 458 607 526 q 536 294 607 356 q 338 233 465 233 q 222 249 275 233 q 196 172 196 213 q 213 131 196 146 q 276 115 231 115 l 450 115 q 644 64 586 115 q 703 -75 703 13 q 679 -169 703 -124 q 608 -249 656 -214 q 491 -303 561 -283 q 329 -324 421 -324 q 192 -310 249 -324 q 101 -275 136 -297 q 51 -223 67 -253 q 36 -158 36 -193 q 65 -77 36 -114 q 161 -8 94 -40 q 97 35 117 7 q 76 101 76 64 q 101 181 76 142 q 176 267 125 221 q 95 343 124 294 q 67 458 67 392 m 339 624 q 251 578 282 624 q 221 458 221 533 q 249 339 221 383 q 335 294 278 294 q 424 340 393 294 q 454 463 454 386 q 424 580 454 536 q 339 624 394 624 m 263 885 q 278 950 263 921 q 321 1003 294 979 q 383 1046 347 1028 q 458 1076 418 1064 l 476 1031 q 408 998 436 1015 q 357 953 381 981 q 408 914 389 938 q 428 860 428 890 q 404 808 428 828 q 349 789 381 789 q 312 795 329 789 q 275 817 294 801 q 265 853 268 838 q 263 885 263 869 z "},"ǧ":{"ha":736,"x_min":36,"x_max":713,"o":"m 342 -251 q 508 -216 451 -251 q 564 -128 564 -181 q 537 -61 564 -89 q 443 -33 510 -33 l 289 -33 q 197 -25 236 -33 q 169 -75 178 -51 q 160 -129 160 -99 q 207 -223 160 -194 q 342 -251 254 -251 m 67 458 q 138 624 67 563 q 338 685 210 685 q 535 626 464 685 l 692 686 l 713 672 l 713 575 l 578 575 q 607 458 607 526 q 536 294 607 356 q 338 233 465 233 q 222 249 275 233 q 196 172 196 213 q 213 131 196 146 q 276 115 231 115 l 450 115 q 644 64 586 115 q 703 -75 703 13 q 679 -169 703 -124 q 608 -249 656 -214 q 491 -303 561 -283 q 329 -324 421 -324 q 192 -310 249 -324 q 101 -275 136 -297 q 51 -223 67 -253 q 36 -158 36 -193 q 65 -77 36 -114 q 161 -8 94 -40 q 97 35 117 7 q 76 101 76 64 q 101 181 76 142 q 176 267 125 221 q 95 343 124 294 q 67 458 67 392 m 339 624 q 251 578 282 624 q 221 458 221 533 q 249 339 221 383 q 335 294 278 294 q 424 340 393 294 q 454 463 454 386 q 424 580 454 536 q 339 624 394 624 m 176 1044 l 342 900 l 507 1044 l 550 1010 l 397 789 l 286 789 l 133 1010 l 176 1044 z "},"ĝ":{"ha":736,"x_min":36,"x_max":713,"o":"m 342 -251 q 508 -216 451 -251 q 564 -128 564 -181 q 537 -61 564 -89 q 443 -33 510 -33 l 289 -33 q 197 -25 236 -33 q 169 -75 178 -51 q 160 -129 160 -99 q 207 -223 160 -194 q 342 -251 254 -251 m 67 458 q 138 624 67 563 q 338 685 210 685 q 535 626 464 685 l 692 686 l 713 672 l 713 575 l 578 575 q 607 458 607 526 q 536 294 607 356 q 338 233 465 233 q 222 249 275 233 q 196 172 196 213 q 213 131 196 146 q 276 115 231 115 l 450 115 q 644 64 586 115 q 703 -75 703 13 q 679 -169 703 -124 q 608 -249 656 -214 q 491 -303 561 -283 q 329 -324 421 -324 q 192 -310 249 -324 q 101 -275 136 -297 q 51 -223 67 -253 q 36 -158 36 -193 q 65 -77 36 -114 q 161 -8 94 -40 q 97 35 117 7 q 76 101 76 64 q 101 181 76 142 q 176 267 125 221 q 95 343 124 294 q 67 458 67 392 m 339 624 q 251 578 282 624 q 221 458 221 533 q 249 339 221 383 q 335 294 278 294 q 424 340 393 294 q 454 463 454 386 q 424 580 454 536 q 339 624 394 624 m 519 757 l 339 908 l 158 757 l 118 796 l 306 1039 l 372 1039 l 560 796 l 519 757 z "},"ḡ":{"ha":736,"x_min":36,"x_max":713,"o":"m 342 -251 q 508 -216 451 -251 q 564 -128 564 -181 q 537 -61 564 -89 q 443 -33 510 -33 l 289 -33 q 197 -25 236 -33 q 169 -75 178 -51 q 160 -129 160 -99 q 207 -223 160 -194 q 342 -251 254 -251 m 67 458 q 138 624 67 563 q 338 685 210 685 q 535 626 464 685 l 692 686 l 713 672 l 713 575 l 578 575 q 607 458 607 526 q 536 294 607 356 q 338 233 465 233 q 222 249 275 233 q 196 172 196 213 q 213 131 196 146 q 276 115 231 115 l 450 115 q 644 64 586 115 q 703 -75 703 13 q 679 -169 703 -124 q 608 -249 656 -214 q 491 -303 561 -283 q 329 -324 421 -324 q 192 -310 249 -324 q 101 -275 136 -297 q 51 -223 67 -253 q 36 -158 36 -193 q 65 -77 36 -114 q 161 -8 94 -40 q 97 35 117 7 q 76 101 76 64 q 101 181 76 142 q 176 267 125 221 q 95 343 124 294 q 67 458 67 392 m 339 624 q 251 578 282 624 q 221 458 221 533 q 249 339 221 383 q 335 294 278 294 q 424 340 393 294 q 454 463 454 386 q 424 580 454 536 q 339 624 394 624 m 146 822 l 146 926 l 546 926 l 546 822 l 146 822 z "},"ħ":{"ha":846,"x_min":31,"x_max":810,"o":"m 31 738 l 31 810 l 133 810 l 133 888 l 32 901 l 32 956 l 281 1018 l 301 1006 l 296 810 l 526 810 l 526 738 l 296 738 l 296 528 q 410 621 350 590 q 533 651 471 651 q 674 592 625 651 q 724 403 724 533 l 724 292 q 724 185 724 244 q 725 74 724 125 l 810 57 l 810 0 l 467 0 l 467 57 l 556 75 q 557 185 557 126 q 557 292 557 244 l 557 390 q 535 503 557 472 q 461 535 514 535 q 300 456 383 535 l 300 292 q 300 186 300 246 q 301 74 300 126 l 383 57 l 383 0 l 40 0 l 40 57 l 132 75 q 133 187 133 126 q 133 292 133 247 l 133 738 l 31 738 z "}}}
